<?xml version="1.0" standalone="no"?>
<!DOCTYPE svg PUBLIC "-//W3C//DTD SVG 1.1//EN" "http://www.w3.org/Graphics/SVG/1.1/DTD/svg11.dtd" >
<svg xmlns="http://www.w3.org/2000/svg" xmlns:xlink="http://www.w3.org/1999/xlink" version="1.1">
<metadata>
Created by FontForge 20161116 at Tue May 17 13:54:34 2016
 By Jimmy Warting
Copyright \(c\) 2016 by Fontfabric LLC. All rights reserved.
</metadata>
<defs>
<font id="Phenomena-Regular" horiz-adv-x="0" >
  <font-face 
    font-family="Phenomena"
    font-weight="400"
    font-stretch="normal"
    units-per-em="1000"
    panose-1="0 0 5 0 0 0 0 0 0 0"
    ascent="800"
    descent="-200"
    x-height="500"
    cap-height="700"
    bbox="-381.515 -233 832 930"
    underline-thickness="50"
    underline-position="-100"
    stemh="55"
    stemv="58"
    unicode-range="U+0020-25CA"
  />
<missing-glyph horiz-adv-x="500" 
d="M410 800v-1000h-317v1000h317zM333 733h-165v-33h65v-37h-66v-33h166v33h-66v37h66v33zM267 604h-100v-104h166v34h-66v70zM233 570v-36h-33v36h33zM333 473h-166v-33h66v-37h-66v-33h100v70h66v33zM333 413h-33v-66h-133v-34h166v100zM333 291h-100v-56h34v23h33v-47
h-100v80h-33v-113h166v113zM333 118h-166v-113h166v113zM300 85v-47h-100v47h100zM333 -18h-166v-33h70l-70 -47v-33h166v33h-102l70 47h32v33z" />
    <glyph glyph-name=".notdef" horiz-adv-x="500" 
d="M410 800v-1000h-317v1000h317zM333 733h-165v-33h65v-37h-66v-33h166v33h-66v37h66v33zM267 604h-100v-104h166v34h-66v70zM233 570v-36h-33v36h33zM333 473h-166v-33h66v-37h-66v-33h100v70h66v33zM333 413h-33v-66h-133v-34h166v100zM333 291h-100v-56h34v23h33v-47
h-100v80h-33v-113h166v113zM333 118h-166v-113h166v113zM300 85v-47h-100v47h100zM333 -18h-166v-33h70l-70 -47v-33h166v33h-102l70 47h32v33z" />
    <glyph glyph-name="A" unicode="A" horiz-adv-x="454" 
d="M72 0c-6 0 -10 4 -10 10v519c0 108 66 180 165 180s165 -72 165 -180v-519c0 -6 -4 -10 -10 -10h-40c-6 0 -10 4 -10 10v244h-210v-244c0 -6 -4 -10 -10 -10h-40zM122 310h210v219c0 78 -38 124 -105 124s-105 -46 -105 -124v-219z" />
    <glyph glyph-name="Aacute" unicode="&#xc1;" horiz-adv-x="454" 
d="M193 769c-8 0 -11 6 -6 12l69 91c3 5 8 6 13 6h46c8 0 11 -6 5 -12l-81 -91c-3 -4 -7 -6 -12 -6h-34zM72 0c-6 0 -10 4 -10 10v519c0 108 66 180 165 180s165 -72 165 -180v-519c0 -6 -4 -10 -10 -10h-40c-6 0 -10 4 -10 10v244h-210v-244c0 -6 -4 -10 -10 -10h-40z
M122 310h210v219c0 78 -38 124 -105 124s-105 -46 -105 -124v-219z" />
    <glyph glyph-name="Abreve" unicode="&#x102;" horiz-adv-x="454" 
d="M227 768c-63 0 -106 38 -111 97c0 6 4 10 10 10h33c6 0 10 -3 11 -10c3 -29 24 -46 57 -46s54 17 57 46c1 7 5 10 11 10h33c6 0 10 -3 10 -10c-5 -58 -47 -97 -111 -97zM72 0c-6 0 -10 4 -10 10v519c0 108 66 180 165 180s165 -72 165 -180v-519c0 -6 -4 -10 -10 -10h-40
c-6 0 -10 4 -10 10v244h-210v-244c0 -6 -4 -10 -10 -10h-40zM122 310h210v219c0 78 -38 124 -105 124s-105 -46 -105 -124v-219z" />
    <glyph glyph-name="Acircumflex" unicode="&#xc2;" horiz-adv-x="454" 
d="M340 781c5 -7 2 -12 -6 -12h-33c-5 0 -9 1 -12 5l-62 70l-62 -70c-3 -4 -7 -5 -12 -5h-33c-8 0 -11 5 -6 12l75 91c3 4 7 6 12 6h52c5 0 9 -2 12 -6zM72 0c-6 0 -10 4 -10 10v519c0 108 66 180 165 180s165 -72 165 -180v-519c0 -6 -4 -10 -10 -10h-40c-6 0 -10 4 -10 10
v244h-210v-244c0 -6 -4 -10 -10 -10h-40zM122 310h210v219c0 78 -38 124 -105 124s-105 -46 -105 -124v-219z" />
    <glyph glyph-name="Adieresis" unicode="&#xc4;" horiz-adv-x="454" 
d="M177 778c-22 0 -37 15 -37 37s15 37 37 37s37 -15 37 -37s-15 -37 -37 -37zM277 778c-22 0 -37 15 -37 37s15 37 37 37s37 -15 37 -37s-15 -37 -37 -37zM72 0c-6 0 -10 4 -10 10v519c0 108 66 180 165 180s165 -72 165 -180v-519c0 -6 -4 -10 -10 -10h-40
c-6 0 -10 4 -10 10v244h-210v-244c0 -6 -4 -10 -10 -10h-40zM122 310h210v219c0 78 -38 124 -105 124s-105 -46 -105 -124v-219z" />
    <glyph glyph-name="Agrave" unicode="&#xc0;" horiz-adv-x="454" 
d="M258 769h-34c-5 0 -9 2 -12 6l-81 91c-6 6 -3 12 5 12h46c5 0 10 -1 13 -6l69 -91c5 -6 2 -12 -6 -12zM72 0c-6 0 -10 4 -10 10v519c0 108 66 180 165 180s165 -72 165 -180v-519c0 -6 -4 -10 -10 -10h-40c-6 0 -10 4 -10 10v244h-210v-244c0 -6 -4 -10 -10 -10h-40z
M122 310h210v219c0 78 -38 124 -105 124s-105 -46 -105 -124v-219z" />
    <glyph glyph-name="Amacron" unicode="&#x100;" horiz-adv-x="454" 
d="M145 834c0 6 4 10 10 10h144c6 0 10 -4 10 -10v-32c0 -6 -4 -10 -10 -10h-144c-6 0 -10 4 -10 10v32zM72 0c-6 0 -10 4 -10 10v519c0 108 66 180 165 180s165 -72 165 -180v-519c0 -6 -4 -10 -10 -10h-40c-6 0 -10 4 -10 10v244h-210v-244c0 -6 -4 -10 -10 -10h-40z
M122 310h210v219c0 78 -38 124 -105 124s-105 -46 -105 -124v-219z" />
    <glyph glyph-name="Aogonek" unicode="&#x104;" horiz-adv-x="460" 
d="M366 -200c-67 0 -92 42 -92 83c0 40 21 76 54 117v254h-206v-244c0 -6 -4 -10 -10 -10h-40c-6 0 -10 4 -10 10v519c0 108 65 180 163 180s163 -72 163 -180v-522c0 -5 -2 -8 -6 -12c-32 -28 -54 -66 -54 -97s22 -44 53 -44h7c6 0 10 -3 10 -9v-33c0 -6 -3 -10 -9 -10
c-8 -1 -16 -2 -23 -2zM122 310h206v219c0 78 -38 124 -103 124s-103 -46 -103 -124v-219z" />
    <glyph glyph-name="Aring" unicode="&#xc5;" horiz-adv-x="454" 
d="M158 822c0 39 27 65 68 65s68 -26 68 -65c0 -40 -27 -67 -68 -67s-68 27 -68 67zM197 821c0 -18 11 -29 29 -29c17 0 29 11 29 29c0 17 -12 29 -29 29c-18 0 -29 -12 -29 -29zM72 0c-6 0 -10 4 -10 10v519c0 108 66 180 165 180s165 -72 165 -180v-519
c0 -6 -4 -10 -10 -10h-40c-6 0 -10 4 -10 10v244h-210v-244c0 -6 -4 -10 -10 -10h-40zM122 310h210v219c0 78 -38 124 -105 124s-105 -46 -105 -124v-219z" />
    <glyph glyph-name="Atilde" unicode="&#xc3;" horiz-adv-x="454" 
d="M190 808c-11 0 -17 -7 -19 -21c-1 -7 -5 -10 -11 -10h-31c-6 0 -10 4 -10 10c4 43 30 70 66 70c39 0 57 -32 78 -32c11 0 17 7 19 21c1 7 5 10 11 10h31c6 0 10 -4 10 -10c-4 -43 -31 -70 -66 -70c-38 0 -56 32 -78 32zM72 0c-6 0 -10 4 -10 10v519c0 108 66 180 165 180
s165 -72 165 -180v-519c0 -6 -4 -10 -10 -10h-40c-6 0 -10 4 -10 10v244h-210v-244c0 -6 -4 -10 -10 -10h-40zM122 310h210v219c0 78 -38 124 -105 124s-105 -46 -105 -124v-219z" />
    <glyph glyph-name="AE" unicode="&#xc6;" horiz-adv-x="616" 
d="M72 0c-6 0 -10 4 -10 10v533c0 96 65 166 155 166c55 0 98 -35 125 -77c28 41 73 74 133 74h87c6 0 10 -4 10 -10v-36c0 -6 -4 -10 -10 -10h-87c-66 0 -103 -40 -103 -107v-160h160c6 0 10 -4 10 -10v-36c0 -6 -4 -10 -10 -10h-160v-162c0 -69 37 -111 103 -111h97
c6 0 10 -4 10 -10v-36c0 -6 -4 -10 -10 -10h-97c-99 0 -163 67 -163 167v162h-190v-317c0 -6 -4 -10 -10 -10h-40zM122 383h190v160c0 65 -38 110 -95 110s-95 -45 -95 -110v-160z" />
    <glyph glyph-name="B" unicode="B" horiz-adv-x="429" 
d="M292 360c61 -19 100 -75 100 -145v-49c0 -101 -65 -168 -163 -168h-137c-18 0 -30 12 -30 30v514c0 100 62 167 154 167c96 0 159 -67 159 -167v-48c0 -67 -32 -119 -83 -134zM122 542v-159h93c63 0 100 41 100 111v48c0 70 -36 111 -99 111c-59 0 -94 -41 -94 -111z
M332 166v49c0 70 -38 112 -103 112h-107v-273h107c65 0 103 42 103 112z" />
    <glyph glyph-name="C" unicode="C" horiz-adv-x="409" 
d="M212 -10c-98 0 -163 69 -163 172v376c0 103 65 172 163 172c94 0 160 -74 163 -185c0 -6 -4 -10 -10 -10h-40c-6 0 -10 3 -10 10c-3 83 -43 129 -103 129c-65 0 -103 -43 -103 -116v-376c0 -73 38 -116 103 -116c66 0 106 50 108 134c0 7 4 10 10 10h40c6 0 10 -3 10 -9
c-3 -115 -70 -191 -168 -191z" />
    <glyph glyph-name="Cacute" unicode="&#x106;" horiz-adv-x="409" 
d="M175 769c-8 0 -11 6 -6 12l69 91c3 5 8 6 13 6h46c8 0 11 -6 5 -12l-81 -91c-3 -4 -7 -6 -12 -6h-34zM212 -10c-98 0 -163 69 -163 172v376c0 103 65 172 163 172c94 0 160 -74 163 -185c0 -6 -4 -10 -10 -10h-40c-6 0 -10 3 -10 10c-3 83 -43 129 -103 129
c-65 0 -103 -43 -103 -116v-376c0 -73 38 -116 103 -116c66 0 106 50 108 134c0 7 4 10 10 10h40c6 0 10 -3 10 -9c-3 -115 -70 -191 -168 -191z" />
    <glyph glyph-name="Ccaron" unicode="&#x10c;" horiz-adv-x="409" 
d="M320 866l-75 -91c-3 -4 -7 -6 -12 -6h-52c-5 0 -9 2 -12 6l-75 91c-5 7 -2 12 6 12h33c5 0 9 -1 12 -5l62 -70l62 70c3 4 7 5 12 5h33c8 0 11 -5 6 -12zM212 -10c-98 0 -163 69 -163 172v376c0 103 65 172 163 172c94 0 160 -74 163 -185c0 -6 -4 -10 -10 -10h-40
c-6 0 -10 3 -10 10c-3 83 -43 129 -103 129c-65 0 -103 -43 -103 -116v-376c0 -73 38 -116 103 -116c66 0 106 50 108 134c0 7 4 10 10 10h40c6 0 10 -3 10 -9c-3 -115 -70 -191 -168 -191z" />
    <glyph glyph-name="Ccedilla" unicode="&#xc7;" horiz-adv-x="409" 
d="M380 181c-3 -110 -64 -184 -155 -191l-6 -34h6c42 -3 76 -33 76 -75c0 -51 -38 -81 -89 -81c-47 0 -84 26 -88 71c-1 6 3 10 9 10h28c6 0 9 -3 10 -9c4 -19 20 -29 41 -29c24 0 42 14 42 38c0 20 -17 34 -40 34c-13 0 -25 -2 -35 -5c-3 -1 -6 0 -8 2l-2 2c-2 2 -4 4 -3 8
l14 71c-80 13 -131 78 -131 169v376c0 103 65 172 163 172c94 0 160 -74 163 -185c0 -6 -4 -10 -10 -10h-40c-6 0 -10 3 -10 10c-3 83 -43 129 -103 129c-65 0 -103 -43 -103 -116v-376c0 -73 38 -116 103 -116c66 0 106 50 108 134c0 7 4 10 10 10h40c6 0 10 -3 10 -9z" />
    <glyph glyph-name="Cdotaccent" unicode="&#x10a;" horiz-adv-x="409" 
d="M209 773c-23 0 -39 17 -39 39c0 23 16 39 39 39c22 0 39 -16 39 -39c0 -21 -17 -39 -39 -39zM212 -10c-98 0 -163 69 -163 172v376c0 103 65 172 163 172c94 0 160 -74 163 -185c0 -6 -4 -10 -10 -10h-40c-6 0 -10 3 -10 10c-3 83 -43 129 -103 129
c-65 0 -103 -43 -103 -116v-376c0 -73 38 -116 103 -116c66 0 106 50 108 134c0 7 4 10 10 10h40c6 0 10 -3 10 -9c-3 -115 -70 -191 -168 -191z" />
    <glyph glyph-name="D" unicode="D" horiz-adv-x="447" 
d="M100 -2c-19 0 -30 11 -30 30v644c0 19 11 30 30 30h135c101 0 163 -75 163 -175v-355c0 -99 -64 -174 -163 -174h-135zM130 54h105c63 0 103 50 103 118v355c0 69 -39 119 -103 119h-105v-592z" />
    <glyph glyph-name="Eth" unicode="&#xd0;" horiz-adv-x="490" 
d="M278 702c101 0 163 -75 163 -175v-355c0 -99 -64 -174 -163 -174h-135c-19 0 -30 11 -30 30v299h-58c-6 0 -10 4 -10 10v35c0 6 4 10 10 10h58v290c0 19 11 30 30 30h135zM381 172v355c0 69 -39 119 -103 119h-105v-264h72c6 0 10 -4 10 -10v-35c0 -6 -4 -10 -10 -10h-72
v-273h105c63 0 103 50 103 118z" />
    <glyph glyph-name="Dcaron" unicode="&#x10e;" horiz-adv-x="447" 
d="M318 866l-75 -91c-3 -4 -7 -6 -12 -6h-52c-5 0 -9 2 -12 6l-75 91c-5 7 -2 12 6 12h33c5 0 9 -1 12 -5l62 -70l62 70c3 4 7 5 12 5h33c8 0 11 -5 6 -12zM100 -2c-19 0 -30 11 -30 30v644c0 19 11 30 30 30h135c101 0 163 -75 163 -175v-355c0 -99 -64 -174 -163 -174
h-135zM130 54h105c63 0 103 50 103 118v355c0 69 -39 119 -103 119h-105v-592z" />
    <glyph glyph-name="Dcroat" unicode="&#x110;" horiz-adv-x="490" 
d="M278 702c101 0 163 -75 163 -175v-355c0 -99 -64 -174 -163 -174h-135c-19 0 -30 11 -30 30v299h-58c-6 0 -10 4 -10 10v35c0 6 4 10 10 10h58v290c0 19 11 30 30 30h135zM381 172v355c0 69 -39 119 -103 119h-105v-264h72c6 0 10 -4 10 -10v-35c0 -6 -4 -10 -10 -10h-72
v-273h105c63 0 103 50 103 118z" />
    <glyph glyph-name="E" unicode="E" horiz-adv-x="360" 
d="M212 -2c-96 0 -163 75 -163 172v360c0 97 67 172 163 172h104c6 0 10 -4 10 -10v-36c0 -6 -4 -10 -10 -10h-104c-61 0 -103 -50 -103 -116v-147h183c6 0 10 -4 10 -10v-36c0 -6 -4 -10 -10 -10h-183v-157c0 -66 42 -116 103 -116h104c6 0 10 -4 10 -10v-36
c0 -6 -4 -10 -10 -10h-104z" />
    <glyph glyph-name="Eacute" unicode="&#xc9;" horiz-adv-x="362" 
d="M168 769c-8 0 -11 6 -6 12l69 91c3 5 8 6 13 6h46c8 0 11 -6 5 -12l-81 -91c-3 -4 -7 -6 -12 -6h-34zM212 -2c-96 0 -163 75 -163 172v360c0 97 67 172 163 172h104c6 0 10 -4 10 -10v-36c0 -6 -4 -10 -10 -10h-104c-61 0 -103 -50 -103 -116v-147h183c6 0 10 -4 10 -10
v-36c0 -6 -4 -10 -10 -10h-183v-157c0 -66 42 -116 103 -116h104c6 0 10 -4 10 -10v-36c0 -6 -4 -10 -10 -10h-104z" />
    <glyph glyph-name="Ecaron" unicode="&#x11a;" horiz-adv-x="360" 
d="M319 866l-75 -91c-3 -4 -7 -6 -12 -6h-52c-5 0 -9 2 -12 6l-75 91c-5 7 -2 12 6 12h33c5 0 9 -1 12 -5l62 -70l62 70c3 4 7 5 12 5h33c8 0 11 -5 6 -12zM212 -2c-96 0 -163 75 -163 172v360c0 97 67 172 163 172h104c6 0 10 -4 10 -10v-36c0 -6 -4 -10 -10 -10h-104
c-61 0 -103 -50 -103 -116v-147h183c6 0 10 -4 10 -10v-36c0 -6 -4 -10 -10 -10h-183v-157c0 -66 42 -116 103 -116h104c6 0 10 -4 10 -10v-36c0 -6 -4 -10 -10 -10h-104z" />
    <glyph glyph-name="Ecircumflex" unicode="&#xca;" horiz-adv-x="360" 
d="M321 781c5 -7 2 -12 -6 -12h-33c-5 0 -9 1 -12 5l-62 70l-62 -70c-3 -4 -7 -5 -12 -5h-33c-8 0 -11 5 -6 12l75 91c3 4 7 6 12 6h52c5 0 9 -2 12 -6zM212 -2c-96 0 -163 75 -163 172v360c0 97 67 172 163 172h104c6 0 10 -4 10 -10v-36c0 -6 -4 -10 -10 -10h-104
c-61 0 -103 -50 -103 -116v-147h183c6 0 10 -4 10 -10v-36c0 -6 -4 -10 -10 -10h-183v-157c0 -66 42 -116 103 -116h104c6 0 10 -4 10 -10v-36c0 -6 -4 -10 -10 -10h-104z" />
    <glyph glyph-name="Edieresis" unicode="&#xcb;" horiz-adv-x="360" 
d="M158 778c-22 0 -37 15 -37 37s15 37 37 37s37 -15 37 -37s-15 -37 -37 -37zM258 778c-22 0 -37 15 -37 37s15 37 37 37s37 -15 37 -37s-15 -37 -37 -37zM212 -2c-96 0 -163 75 -163 172v360c0 97 67 172 163 172h104c6 0 10 -4 10 -10v-36c0 -6 -4 -10 -10 -10h-104
c-61 0 -103 -50 -103 -116v-147h183c6 0 10 -4 10 -10v-36c0 -6 -4 -10 -10 -10h-183v-157c0 -66 42 -116 103 -116h104c6 0 10 -4 10 -10v-36c0 -6 -4 -10 -10 -10h-104z" />
    <glyph glyph-name="Edotaccent" unicode="&#x116;" horiz-adv-x="360" 
d="M208 773c-23 0 -39 17 -39 39c0 23 16 39 39 39c22 0 39 -16 39 -39c0 -21 -17 -39 -39 -39zM212 -2c-96 0 -163 75 -163 172v360c0 97 67 172 163 172h104c6 0 10 -4 10 -10v-36c0 -6 -4 -10 -10 -10h-104c-61 0 -103 -50 -103 -116v-147h183c6 0 10 -4 10 -10v-36
c0 -6 -4 -10 -10 -10h-183v-157c0 -66 42 -116 103 -116h104c6 0 10 -4 10 -10v-36c0 -6 -4 -10 -10 -10h-104z" />
    <glyph glyph-name="Egrave" unicode="&#xc8;" horiz-adv-x="362" 
d="M249 769h-34c-5 0 -9 2 -12 6l-81 91c-6 6 -3 12 5 12h46c5 0 10 -1 13 -6l69 -91c5 -6 2 -12 -6 -12zM212 -2c-96 0 -163 75 -163 172v360c0 97 67 172 163 172h104c6 0 10 -4 10 -10v-36c0 -6 -4 -10 -10 -10h-104c-61 0 -103 -50 -103 -116v-147h183c6 0 10 -4 10 -10
v-36c0 -6 -4 -10 -10 -10h-183v-157c0 -66 42 -116 103 -116h104c6 0 10 -4 10 -10v-36c0 -6 -4 -10 -10 -10h-104z" />
    <glyph glyph-name="Emacron" unicode="&#x112;" horiz-adv-x="360" 
d="M126 834c0 6 4 10 10 10h144c6 0 10 -4 10 -10v-32c0 -6 -4 -10 -10 -10h-144c-6 0 -10 4 -10 10v32zM212 -2c-96 0 -163 75 -163 172v360c0 97 67 172 163 172h104c6 0 10 -4 10 -10v-36c0 -6 -4 -10 -10 -10h-104c-61 0 -103 -50 -103 -116v-147h183c6 0 10 -4 10 -10
v-36c0 -6 -4 -10 -10 -10h-183v-157c0 -66 42 -116 103 -116h104c6 0 10 -4 10 -10v-36c0 -6 -4 -10 -10 -10h-104z" />
    <glyph glyph-name="Eogonek" unicode="&#x118;" horiz-adv-x="365" 
d="M212 646c-61 0 -103 -50 -103 -116v-147h183c6 0 10 -4 10 -10v-36c0 -6 -4 -10 -10 -10h-183v-157c0 -66 42 -116 103 -116h104c6 0 10 -4 10 -10v-36c0 -6 -4 -10 -10 -10h-40c-33 -29 -56 -68 -56 -100c0 -31 22 -44 53 -44h7c6 0 10 -3 10 -9v-33c0 -6 -3 -10 -9 -10
c-8 -1 -16 -2 -23 -2c-67 0 -92 42 -92 83c0 39 20 75 52 115h-6c-96 0 -163 75 -163 172v360c0 97 67 172 163 172h104c6 0 10 -4 10 -10v-36c0 -6 -4 -10 -10 -10h-104z" />
    <glyph glyph-name="F" unicode="F" horiz-adv-x="342" 
d="M72 0c-6 0 -10 4 -10 10v518c0 97 67 172 163 172h87c6 0 10 -4 10 -10v-36c0 -6 -4 -10 -10 -10h-87c-61 0 -103 -50 -103 -116v-155h170c6 0 10 -4 10 -10v-36c0 -6 -4 -10 -10 -10h-170v-307c0 -6 -4 -10 -10 -10h-40z" />
    <glyph glyph-name="G" unicode="G" horiz-adv-x="428" 
d="M219 -10c-100 0 -170 75 -170 182v357c0 107 66 181 168 181c98 0 162 -73 166 -170c0 -6 -4 -10 -10 -10h-40c-6 0 -10 3 -10 10c-4 66 -43 114 -106 114c-67 0 -108 -50 -108 -126v-356c0 -76 45 -126 110 -126s110 50 110 116v155h-94c-6 0 -10 4 -10 10v36
c0 6 4 10 10 10h124c19 0 30 -11 30 -30v-181c0 -97 -70 -172 -170 -172z" />
    <glyph glyph-name="Gbreve" unicode="&#x11e;" horiz-adv-x="428" 
d="M210 768c-63 0 -106 38 -111 97c0 6 4 10 10 10h33c6 0 10 -3 11 -10c3 -29 24 -46 57 -46s54 17 57 46c1 7 5 10 11 10h33c6 0 10 -3 10 -10c-5 -58 -47 -97 -111 -97zM219 -10c-100 0 -170 75 -170 182v357c0 107 66 181 168 181c98 0 162 -73 166 -170
c0 -6 -4 -10 -10 -10h-40c-6 0 -10 3 -10 10c-4 66 -43 114 -106 114c-67 0 -108 -50 -108 -126v-356c0 -76 45 -126 110 -126s110 50 110 116v155h-94c-6 0 -10 4 -10 10v36c0 6 4 10 10 10h124c19 0 30 -11 30 -30v-181c0 -97 -70 -172 -170 -172z" />
    <glyph glyph-name="Gcommaaccent" unicode="&#x122;" horiz-adv-x="428" 
d="M219 -10c-100 0 -170 75 -170 182v357c0 107 66 181 168 181c98 0 162 -73 166 -170c0 -6 -4 -10 -10 -10h-40c-6 0 -10 3 -10 10c-4 66 -43 114 -106 114c-67 0 -108 -50 -108 -126v-356c0 -76 45 -126 110 -126s110 50 110 116v155h-94c-6 0 -10 4 -10 10v36
c0 6 4 10 10 10h124c19 0 30 -11 30 -30v-181c0 -97 -70 -172 -170 -172zM179 -69c0 7 5 10 11 10h43c7 0 10 -5 9 -11l-28 -154c-1 -6 -5 -9 -11 -9h-24c-6 0 -9 4 -9 10z" />
    <glyph glyph-name="Gdotaccent" unicode="&#x120;" horiz-adv-x="428" 
d="M210 773c-23 0 -39 17 -39 39c0 23 16 39 39 39c22 0 39 -16 39 -39c0 -21 -17 -39 -39 -39zM219 -10c-100 0 -170 75 -170 182v357c0 107 66 181 168 181c98 0 162 -73 166 -170c0 -6 -4 -10 -10 -10h-40c-6 0 -10 3 -10 10c-4 66 -43 114 -106 114
c-67 0 -108 -50 -108 -126v-356c0 -76 45 -126 110 -126s110 50 110 116v155h-94c-6 0 -10 4 -10 10v36c0 6 4 10 10 10h124c19 0 30 -11 30 -30v-181c0 -97 -70 -172 -170 -172z" />
    <glyph glyph-name="H" unicode="H" horiz-adv-x="460" 
d="M330 690c0 6 4 10 10 10h40c6 0 10 -4 10 -10v-680c0 -6 -4 -10 -10 -10h-40c-6 0 -10 4 -10 10v318h-200v-318c0 -6 -4 -10 -10 -10h-40c-6 0 -10 4 -10 10v680c0 6 4 10 10 10h40c6 0 10 -4 10 -10v-307h200v307z" />
    <glyph glyph-name="Hbar" unicode="&#x126;" horiz-adv-x="520" 
d="M465 564c6 0 10 -4 10 -10v-25c0 -6 -4 -10 -10 -10h-46v-509c0 -6 -4 -10 -10 -10h-40c-6 0 -10 4 -10 10v318h-198v-318c0 -6 -4 -10 -10 -10h-40c-6 0 -10 4 -10 10v509h-46c-6 0 -10 4 -10 10v25c0 6 4 10 10 10h46v126c0 6 4 10 10 10h40c6 0 10 -4 10 -10v-126h198
v126c0 6 4 10 10 10h40c6 0 10 -4 10 -10v-126h46zM359 383v136h-198v-136h198z" />
    <glyph glyph-name="I" unicode="I" horiz-adv-x="200" 
d="M70 690c0 6 4 10 10 10h40c6 0 10 -4 10 -10v-680c0 -6 -4 -10 -10 -10h-40c-6 0 -10 4 -10 10v680z" />
    <glyph glyph-name="Iacute" unicode="&#xcd;" horiz-adv-x="223" 
d="M78 769c-8 0 -11 6 -6 12l69 91c3 5 8 6 13 6h46c8 0 11 -6 5 -12l-81 -91c-3 -4 -7 -6 -12 -6h-34zM82 690c0 6 4 10 10 10h40c6 0 10 -4 10 -10v-680c0 -6 -4 -10 -10 -10h-40c-6 0 -10 4 -10 10v680z" />
    <glyph glyph-name="Icircumflex" unicode="&#xce;" horiz-adv-x="260" 
d="M243 781c5 -7 2 -12 -6 -12h-33c-5 0 -9 1 -12 5l-62 70l-62 -70c-3 -4 -7 -5 -12 -5h-33c-8 0 -11 5 -6 12l75 91c3 4 7 6 12 6h52c5 0 9 -2 12 -6zM100 690c0 6 4 10 10 10h40c6 0 10 -4 10 -10v-680c0 -6 -4 -10 -10 -10h-40c-6 0 -10 4 -10 10v680z" />
    <glyph glyph-name="Idieresis" unicode="&#xcf;" horiz-adv-x="200" 
d="M50 778c-22 0 -37 15 -37 37s15 37 37 37s37 -15 37 -37s-15 -37 -37 -37zM150 778c-22 0 -37 15 -37 37s15 37 37 37s37 -15 37 -37s-15 -37 -37 -37zM70 690c0 6 4 10 10 10h40c6 0 10 -4 10 -10v-680c0 -6 -4 -10 -10 -10h-40c-6 0 -10 4 -10 10v680z" />
    <glyph glyph-name="Idotaccent" unicode="&#x130;" horiz-adv-x="200" 
d="M100 773c-23 0 -39 17 -39 39c0 23 16 39 39 39c22 0 39 -16 39 -39c0 -21 -17 -39 -39 -39zM70 690c0 6 4 10 10 10h40c6 0 10 -4 10 -10v-680c0 -6 -4 -10 -10 -10h-40c-6 0 -10 4 -10 10v680z" />
    <glyph glyph-name="Igrave" unicode="&#xcc;" horiz-adv-x="200" 
d="M160 769h-34c-5 0 -9 2 -12 6l-81 91c-6 6 -3 12 5 12h46c5 0 10 -1 13 -6l69 -91c5 -6 2 -12 -6 -12zM70 690c0 6 4 10 10 10h40c6 0 10 -4 10 -10v-680c0 -6 -4 -10 -10 -10h-40c-6 0 -10 4 -10 10v680z" />
    <glyph glyph-name="Imacron" unicode="&#x12a;" horiz-adv-x="200" 
d="M18 834c0 6 4 10 10 10h144c6 0 10 -4 10 -10v-32c0 -6 -4 -10 -10 -10h-144c-6 0 -10 4 -10 10v32zM70 690c0 6 4 10 10 10h40c6 0 10 -4 10 -10v-680c0 -6 -4 -10 -10 -10h-40c-6 0 -10 4 -10 10v680z" />
    <glyph glyph-name="Iogonek" unicode="&#x12e;" horiz-adv-x="200" 
d="M143 -146c6 0 10 -3 10 -9v-33c0 -6 -3 -9 -9 -10c-8 -1 -16 -2 -23 -2c-74 0 -101 43 -101 84c0 40 23 82 57 116c-3 0 -7 4 -7 10v680c0 6 4 10 10 10h40c6 0 10 -4 10 -10v-680c0 -6 -4 -10 -8 -10c-31 -27 -50 -66 -50 -98c0 -34 27 -48 64 -48h7z" />
    <glyph glyph-name="J" unicode="J" horiz-adv-x="403" 
d="M178 -10c-98 0 -159 78 -163 190c0 6 4 10 10 10h40c6 0 10 -3 10 -10c3 -80 39 -134 104 -134c66 0 102 50 102 129v515c0 6 4 10 10 10h40c6 0 10 -4 10 -10v-515c0 -110 -57 -185 -163 -185z" />
    <glyph glyph-name="K" unicode="K" horiz-adv-x="446" 
d="M80 0c-6 0 -10 4 -10 10v680c0 6 4 10 10 10h40c6 0 10 -4 10 -10v-307h102l104 309c2 5 7 8 12 8h40c7 0 10 -4 8 -11l-108 -316c67 -23 105 -86 105 -169v-194c0 -6 -4 -10 -10 -10h-40c-6 0 -10 4 -10 10v194c0 73 -41 123 -103 123h-100v-317c0 -6 -4 -10 -10 -10
h-40z" />
    <glyph glyph-name="Kcommaaccent" unicode="&#x136;" horiz-adv-x="446" 
d="M80 0c-6 0 -10 4 -10 10v680c0 6 4 10 10 10h40c6 0 10 -4 10 -10v-307h102l104 309c2 5 7 8 12 8h40c7 0 10 -4 8 -11l-108 -316c67 -23 105 -86 105 -169v-194c0 -6 -4 -10 -10 -10h-40c-6 0 -10 4 -10 10v194c0 73 -41 123 -103 123h-100v-317c0 -6 -4 -10 -10 -10
h-40zM198 -69c0 7 5 10 11 10h43c7 0 10 -5 9 -11l-28 -154c-1 -6 -5 -9 -11 -9h-24c-6 0 -9 4 -9 10z" />
    <glyph glyph-name="L" unicode="L" horiz-adv-x="337" 
d="M222 54h90c6 0 10 -4 10 -10v-36c0 -6 -4 -10 -10 -10h-90c-96 0 -160 75 -160 171v521c0 6 4 10 10 10h40c6 0 10 -4 10 -10v-521c0 -65 40 -115 100 -115z" />
    <glyph glyph-name="Lacute" unicode="&#x139;" horiz-adv-x="337" 
d="M63 769c-8 0 -11 6 -6 12l69 91c3 5 8 6 13 6h46c8 0 11 -6 5 -12l-81 -91c-3 -4 -7 -6 -12 -6h-34zM222 54h90c6 0 10 -4 10 -10v-36c0 -6 -4 -10 -10 -10h-90c-96 0 -160 75 -160 171v521c0 6 4 10 10 10h40c6 0 10 -4 10 -10v-521c0 -65 40 -115 100 -115z" />
    <glyph glyph-name="Lcaron" unicode="&#x13d;" horiz-adv-x="330" 
d="M194 547c-6 0 -9 4 -9 10l8 136c0 7 5 10 11 10h43c7 0 10 -5 9 -11l-25 -136c-1 -6 -5 -9 -11 -9h-26zM217 0c-96 0 -160 75 -160 171v519c0 6 4 10 10 10h40c6 0 10 -4 10 -10v-519c0 -65 40 -115 100 -115h90c6 0 10 -4 10 -10v-36c0 -6 -4 -10 -10 -10h-90z" />
    <glyph glyph-name="Lcommaaccent" unicode="&#x13b;" horiz-adv-x="337" 
d="M222 54h90c6 0 10 -4 10 -10v-36c0 -6 -4 -10 -10 -10h-90c-96 0 -160 75 -160 171v521c0 6 4 10 10 10h40c6 0 10 -4 10 -10v-521c0 -65 40 -115 100 -115zM141 -69c0 7 5 10 11 10h43c7 0 10 -5 9 -11l-28 -154c-1 -6 -5 -9 -11 -9h-24c-6 0 -9 4 -9 10z" />
    <glyph glyph-name="Lslash" unicode="&#x141;" horiz-adv-x="405" 
d="M385 54c6 0 10 -4 10 -10v-36c0 -6 -4 -10 -10 -10h-90c-96 0 -160 75 -160 171v159l-86 -33c-7 -3 -12 1 -12 8v40c0 5 3 9 8 11l90 34v302c0 6 4 10 10 10h40c6 0 10 -4 10 -10v-279l106 41c7 3 12 -1 12 -8v-40c0 -5 -3 -9 -8 -11l-110 -42v-182
c0 -65 40 -115 100 -115h90z" />
    <glyph glyph-name="M" unicode="M" horiz-adv-x="684" 
d="M467 710c97 0 155 -70 155 -182v-518c0 -6 -4 -10 -10 -10h-40c-6 0 -10 4 -10 10v518c0 81 -33 126 -95 126c-57 0 -95 -45 -95 -126v-518c0 -6 -4 -10 -10 -10h-40c-6 0 -10 4 -10 10v518c0 81 -40 126 -95 126c-63 0 -95 -45 -95 -126v-518c0 -6 -4 -10 -10 -10h-40
c-6 0 -10 4 -10 10v518c0 112 57 182 155 182c67 0 99 -36 125 -84c26 48 60 84 125 84z" />
    <glyph glyph-name="N" unicode="N" horiz-adv-x="454" 
d="M72 0c-6 0 -10 4 -10 10v520c0 105 65 180 165 180s165 -75 165 -180v-520c0 -6 -4 -10 -10 -10h-40c-6 0 -10 4 -10 10v520c0 74 -41 124 -105 124s-105 -50 -105 -124v-520c0 -6 -4 -10 -10 -10h-40z" />
    <glyph glyph-name="Nacute" unicode="&#x143;" horiz-adv-x="454" 
d="M196 769c-8 0 -11 6 -6 12l69 91c3 5 8 6 13 6h46c8 0 11 -6 5 -12l-81 -91c-3 -4 -7 -6 -12 -6h-34zM72 0c-6 0 -10 4 -10 10v520c0 105 65 180 165 180s165 -75 165 -180v-520c0 -6 -4 -10 -10 -10h-40c-6 0 -10 4 -10 10v520c0 74 -41 124 -105 124
s-105 -50 -105 -124v-520c0 -6 -4 -10 -10 -10h-40z" />
    <glyph glyph-name="Ncaron" unicode="&#x147;" horiz-adv-x="454" 
d="M341 866l-75 -91c-3 -4 -7 -6 -12 -6h-52c-5 0 -9 2 -12 6l-75 91c-5 7 -2 12 6 12h33c5 0 9 -1 12 -5l62 -70l62 70c3 4 7 5 12 5h33c8 0 11 -5 6 -12zM72 0c-6 0 -10 4 -10 10v520c0 105 65 180 165 180s165 -75 165 -180v-520c0 -6 -4 -10 -10 -10h-40
c-6 0 -10 4 -10 10v520c0 74 -41 124 -105 124s-105 -50 -105 -124v-520c0 -6 -4 -10 -10 -10h-40z" />
    <glyph glyph-name="Ncommaaccent" unicode="&#x145;" horiz-adv-x="454" 
d="M72 0c-6 0 -10 4 -10 10v520c0 105 65 180 165 180s165 -75 165 -180v-520c0 -6 -4 -10 -10 -10h-40c-6 0 -10 4 -10 10v520c0 74 -41 124 -105 124s-105 -50 -105 -124v-520c0 -6 -4 -10 -10 -10h-40zM200 -69c0 7 5 10 11 10h43c7 0 10 -5 9 -11l-28 -154
c-1 -6 -5 -9 -11 -9h-24c-6 0 -9 4 -9 10z" />
    <glyph glyph-name="Eng" unicode="&#x14a;" horiz-adv-x="454" 
d="M242 -204c-6 0 -10 4 -10 10v40c0 6 3 10 10 10c67 4 90 43 90 115v559c0 74 -41 124 -105 124s-105 -50 -105 -124v-520c0 -6 -4 -10 -10 -10h-40c-6 0 -10 4 -10 10v520c0 105 65 180 165 180s165 -75 165 -180v-559c0 -105 -49 -171 -150 -175z" />
    <glyph glyph-name="Ntilde" unicode="&#xd1;" horiz-adv-x="454" 
d="M193 808c-11 0 -17 -7 -19 -21c-1 -7 -5 -10 -11 -10h-31c-6 0 -10 4 -10 10c4 43 30 70 66 70c39 0 57 -32 78 -32c11 0 17 7 19 21c1 7 5 10 11 10h31c6 0 10 -4 10 -10c-4 -43 -31 -70 -66 -70c-38 0 -56 32 -78 32zM72 0c-6 0 -10 4 -10 10v520c0 105 65 180 165 180
s165 -75 165 -180v-520c0 -6 -4 -10 -10 -10h-40c-6 0 -10 4 -10 10v520c0 74 -41 124 -105 124s-105 -50 -105 -124v-520c0 -6 -4 -10 -10 -10h-40z" />
    <glyph glyph-name="O" unicode="O" horiz-adv-x="438" 
d="M219 -9c-100 0 -170 75 -170 185v348c0 110 70 185 170 185s170 -75 170 -175v-368c0 -100 -70 -175 -170 -175zM219 47c65 0 110 50 110 119v368c0 69 -45 119 -110 119s-110 -50 -110 -129v-348c0 -79 45 -129 110 -129z" />
    <glyph glyph-name="Oacute" unicode="&#xd3;" horiz-adv-x="438" 
d="M185 769c-8 0 -11 6 -6 12l69 91c3 5 8 6 13 6h46c8 0 11 -6 5 -12l-81 -91c-3 -4 -7 -6 -12 -6h-34zM219 -9c-100 0 -170 75 -170 185v348c0 110 70 185 170 185s170 -75 170 -175v-368c0 -100 -70 -175 -170 -175zM219 47c65 0 110 50 110 119v368
c0 69 -45 119 -110 119s-110 -50 -110 -129v-348c0 -79 45 -129 110 -129z" />
    <glyph glyph-name="Ocircumflex" unicode="&#xd4;" horiz-adv-x="438" 
d="M332 781c5 -7 2 -12 -6 -12h-33c-5 0 -9 1 -12 5l-62 70l-62 -70c-3 -4 -7 -5 -12 -5h-33c-8 0 -11 5 -6 12l75 91c3 4 7 6 12 6h52c5 0 9 -2 12 -6zM219 -9c-100 0 -170 75 -170 185v348c0 110 70 185 170 185s170 -75 170 -175v-368c0 -100 -70 -175 -170 -175zM219 47
c65 0 110 50 110 119v368c0 69 -45 119 -110 119s-110 -50 -110 -129v-348c0 -79 45 -129 110 -129z" />
    <glyph glyph-name="Odieresis" unicode="&#xd6;" horiz-adv-x="438" 
d="M169 778c-22 0 -37 15 -37 37s15 37 37 37s37 -15 37 -37s-15 -37 -37 -37zM269 778c-22 0 -37 15 -37 37s15 37 37 37s37 -15 37 -37s-15 -37 -37 -37zM219 -9c-100 0 -170 75 -170 185v348c0 110 70 185 170 185s170 -75 170 -175v-368c0 -100 -70 -175 -170 -175z
M219 47c65 0 110 50 110 119v368c0 69 -45 119 -110 119s-110 -50 -110 -129v-348c0 -79 45 -129 110 -129z" />
    <glyph glyph-name="Ograve" unicode="&#xd2;" horiz-adv-x="438" 
d="M279 769h-34c-5 0 -9 2 -12 6l-81 91c-6 6 -3 12 5 12h46c5 0 10 -1 13 -6l69 -91c5 -6 2 -12 -6 -12zM219 -9c-100 0 -170 75 -170 185v348c0 110 70 185 170 185s170 -75 170 -175v-368c0 -100 -70 -175 -170 -175zM219 47c65 0 110 50 110 119v368
c0 69 -45 119 -110 119s-110 -50 -110 -129v-348c0 -79 45 -129 110 -129z" />
    <glyph glyph-name="Ohungarumlaut" unicode="&#x150;" horiz-adv-x="438" 
d="M125 769c-8 0 -11 6 -6 12l69 91c3 5 8 6 13 6h46c8 0 11 -6 5 -12l-81 -91c-3 -4 -7 -6 -12 -6h-34zM225 769c-8 0 -11 6 -6 12l69 91c3 5 8 6 13 6h46c8 0 11 -6 5 -12l-81 -91c-3 -4 -7 -6 -12 -6h-34zM219 -9c-100 0 -170 75 -170 185v348c0 110 70 185 170 185
s170 -75 170 -175v-368c0 -100 -70 -175 -170 -175zM219 47c65 0 110 50 110 119v368c0 69 -45 119 -110 119s-110 -50 -110 -129v-348c0 -79 45 -129 110 -129z" />
    <glyph glyph-name="Omacron" unicode="&#x14c;" horiz-adv-x="438" 
d="M137 834c0 6 4 10 10 10h144c6 0 10 -4 10 -10v-32c0 -6 -4 -10 -10 -10h-144c-6 0 -10 4 -10 10v32zM219 -9c-100 0 -170 75 -170 185v348c0 110 70 185 170 185s170 -75 170 -175v-368c0 -100 -70 -175 -170 -175zM219 47c65 0 110 50 110 119v368
c0 69 -45 119 -110 119s-110 -50 -110 -129v-348c0 -79 45 -129 110 -129z" />
    <glyph glyph-name="Oslash" unicode="&#xd8;" horiz-adv-x="440" 
d="M87 -45c-7 0 -11 4 -9 11l22 73c-32 33 -51 80 -51 137v348c0 110 70 185 171 185c27 0 52 -5 74 -15l13 43c2 5 5 8 11 8h35c7 0 11 -4 9 -11l-22 -72c32 -31 51 -76 51 -128v-368c0 -100 -70 -175 -171 -175c-27 0 -52 5 -74 15l-13 -43c-2 -5 -5 -8 -11 -8h-35z
M122 113l155 525c-16 9 -35 15 -57 15c-65 0 -110 -50 -110 -129v-348c0 -24 4 -45 12 -63zM220 47c65 0 110 50 110 119v368c0 20 -4 39 -11 55l-156 -526c16 -11 35 -16 57 -16z" />
    <glyph glyph-name="Otilde" unicode="&#xd5;" horiz-adv-x="438" 
d="M182 808c-11 0 -17 -7 -19 -21c-1 -7 -5 -10 -11 -10h-31c-6 0 -10 4 -10 10c4 43 30 70 66 70c39 0 57 -32 78 -32c11 0 17 7 19 21c1 7 5 10 11 10h31c6 0 10 -4 10 -10c-4 -43 -31 -70 -66 -70c-38 0 -56 32 -78 32zM219 -9c-100 0 -170 75 -170 185v348
c0 110 70 185 170 185s170 -75 170 -175v-368c0 -100 -70 -175 -170 -175zM219 47c65 0 110 50 110 119v368c0 69 -45 119 -110 119s-110 -50 -110 -129v-348c0 -79 45 -129 110 -129z" />
    <glyph glyph-name="OE" unicode="&#x152;" horiz-adv-x="625" 
d="M208 -8c-93 0 -159 74 -159 173v370c0 99 66 173 159 173c63 0 110 -34 133 -86c24 49 68 81 127 81h113c6 0 10 -4 10 -10v-35c0 -6 -4 -10 -10 -10h-113c-59 0 -99 -54 -99 -122v-143h175c6 0 10 -4 10 -10v-35c0 -6 -4 -10 -10 -10h-175v-154c0 -68 40 -121 99 -121
h113c6 0 10 -4 10 -10v-36c0 -6 -4 -10 -10 -10h-113c-59 0 -103 32 -127 81c-23 -52 -70 -86 -133 -86zM208 48c60 0 101 54 101 126v352c0 72 -41 126 -101 126c-58 0 -99 -49 -99 -117v-370c0 -68 41 -117 99 -117z" />
    <glyph glyph-name="P" unicode="P" horiz-adv-x="419" 
d="M72 0c-6 0 -10 4 -10 10v520c0 105 62 180 162 180s163 -75 163 -180v-108c0 -95 -64 -161 -163 -161h-102v-251c0 -6 -4 -10 -10 -10h-40zM122 317h102c62 0 103 41 103 105v108c0 74 -40 124 -103 124s-102 -50 -102 -124v-213z" />
    <glyph glyph-name="Thorn" unicode="&#xde;" horiz-adv-x="412" 
d="M80 0c-6 0 -10 4 -10 10v680c0 6 4 10 10 10h40c6 0 10 -4 10 -10v-120h95c86 0 155 -70 155 -155v-130c0 -85 -69 -155 -155 -155h-95v-120c0 -6 -4 -10 -10 -10h-40zM130 186h95c52 0 95 42 95 95v138c0 53 -43 95 -95 95h-95v-328z" />
    <glyph glyph-name="Q" unicode="Q" horiz-adv-x="445" 
d="M393 12c4 -4 4 -10 0 -14l-21 -21c-4 -4 -10 -4 -14 0l-41 42c-27 -18 -60 -28 -97 -28c-101 0 -171 75 -171 175v368c0 100 70 175 171 175s171 -75 171 -175v-368c0 -44 -14 -84 -38 -114zM220 47c21 0 39 5 55 14l-45 46c-4 4 -4 10 0 14l21 21c4 4 10 4 14 0l46 -46
c12 19 19 43 19 70v368c0 69 -45 119 -110 119s-110 -50 -110 -119v-368c0 -69 45 -119 110 -119z" />
    <glyph glyph-name="R" unicode="R" horiz-adv-x="439" 
d="M72 0c-6 0 -10 4 -10 10v520c0 105 67 180 164 180s164 -75 164 -180v-74c0 -83 -43 -141 -101 -165l115 -279c3 -7 -1 -12 -8 -12h-44c-5 0 -9 2 -11 8l-108 271h-111v-269c0 -6 -4 -10 -10 -10h-40zM122 335h103c63 0 105 50 105 121v74c0 74 -42 124 -104 124
s-104 -50 -104 -124v-195z" />
    <glyph glyph-name="Racute" unicode="&#x154;" horiz-adv-x="439" 
d="M187 769c-8 0 -11 6 -6 12l69 91c3 5 8 6 13 6h46c8 0 11 -6 5 -12l-81 -91c-3 -4 -7 -6 -12 -6h-34zM72 0c-6 0 -10 4 -10 10v520c0 105 67 180 164 180s164 -75 164 -180v-74c0 -83 -43 -141 -101 -165l115 -279c3 -7 -1 -12 -8 -12h-44c-5 0 -9 2 -11 8l-108 271h-111
v-269c0 -6 -4 -10 -10 -10h-40zM122 335h103c63 0 105 50 105 121v74c0 74 -42 124 -104 124s-104 -50 -104 -124v-195z" />
    <glyph glyph-name="Rcaron" unicode="&#x158;" horiz-adv-x="439" 
d="M332 866l-75 -91c-3 -4 -7 -6 -12 -6h-52c-5 0 -9 2 -12 6l-75 91c-5 7 -2 12 6 12h33c5 0 9 -1 12 -5l62 -70l62 70c3 4 7 5 12 5h33c8 0 11 -5 6 -12zM72 0c-6 0 -10 4 -10 10v520c0 105 67 180 164 180s164 -75 164 -180v-74c0 -83 -43 -141 -101 -165l115 -279
c3 -7 -1 -12 -8 -12h-44c-5 0 -9 2 -11 8l-108 271h-111v-269c0 -6 -4 -10 -10 -10h-40zM122 335h103c63 0 105 50 105 121v74c0 74 -42 124 -104 124s-104 -50 -104 -124v-195z" />
    <glyph glyph-name="Rcommaaccent" unicode="&#x156;" horiz-adv-x="439" 
d="M72 0c-6 0 -10 4 -10 10v520c0 105 67 180 164 180s164 -75 164 -180v-74c0 -83 -43 -141 -101 -165l115 -279c3 -7 -1 -12 -8 -12h-44c-5 0 -9 2 -11 8l-108 271h-111v-269c0 -6 -4 -10 -10 -10h-40zM122 335h103c63 0 105 50 105 121v74c0 74 -42 124 -104 124
s-104 -50 -104 -124v-195zM191 -69c0 7 5 10 11 10h43c7 0 10 -5 9 -11l-28 -154c-1 -6 -5 -9 -11 -9h-24c-6 0 -9 4 -9 10z" />
    <glyph glyph-name="S" unicode="S" horiz-adv-x="406" 
d="M204 -10c-98 0 -165 76 -168 190c0 6 4 10 10 10h40c6 0 10 -4 10 -10c3 -88 40 -134 108 -134c70 0 106 36 106 105c0 171 -269 209 -269 404c0 93 64 155 161 155c91 0 154 -74 159 -185c0 -6 -4 -10 -10 -10h-40c-6 0 -10 4 -10 10c-4 88 -39 129 -99 129
c-66 0 -101 -34 -101 -99c0 -161 269 -198 269 -404c0 -97 -66 -161 -166 -161z" />
    <glyph glyph-name="Sacute" unicode="&#x15a;" horiz-adv-x="406" 
d="M170 769c-8 0 -11 6 -6 12l69 91c3 5 8 6 13 6h46c8 0 11 -6 5 -12l-81 -91c-3 -4 -7 -6 -12 -6h-34zM204 -10c-98 0 -165 76 -168 190c0 6 4 10 10 10h40c6 0 10 -4 10 -10c3 -88 40 -134 108 -134c70 0 106 36 106 105c0 171 -269 209 -269 404c0 93 64 155 161 155
c91 0 154 -74 159 -185c0 -6 -4 -10 -10 -10h-40c-6 0 -10 4 -10 10c-4 88 -39 129 -99 129c-66 0 -101 -34 -101 -99c0 -161 269 -198 269 -404c0 -97 -66 -161 -166 -161z" />
    <glyph glyph-name="Scaron" unicode="&#x160;" horiz-adv-x="406" 
d="M315 866l-75 -91c-3 -4 -7 -6 -12 -6h-52c-5 0 -9 2 -12 6l-75 91c-5 7 -2 12 6 12h33c5 0 9 -1 12 -5l62 -70l62 70c3 4 7 5 12 5h33c8 0 11 -5 6 -12zM204 -10c-98 0 -165 76 -168 190c0 6 4 10 10 10h40c6 0 10 -4 10 -10c3 -88 40 -134 108 -134c70 0 106 36 106 105
c0 171 -269 209 -269 404c0 93 64 155 161 155c91 0 154 -74 159 -185c0 -6 -4 -10 -10 -10h-40c-6 0 -10 4 -10 10c-4 88 -39 129 -99 129c-66 0 -101 -34 -101 -99c0 -161 269 -198 269 -404c0 -97 -66 -161 -166 -161z" />
    <glyph glyph-name="Scedilla" unicode="&#x15e;" horiz-adv-x="406" 
d="M370 151c0 -93 -60 -155 -153 -161l-6 -34h6c42 -3 76 -33 76 -75c0 -51 -38 -81 -89 -81c-47 0 -84 26 -88 71c-1 6 3 10 9 10h28c6 0 9 -3 10 -9c4 -19 20 -29 41 -29c24 0 42 14 42 38c0 20 -17 34 -40 34c-13 0 -25 -2 -35 -5c-3 -1 -6 0 -8 2l-2 2c-2 2 -4 4 -3 8
l14 71c-80 15 -133 86 -136 187c0 6 4 10 10 10h40c6 0 10 -4 10 -10c3 -88 40 -134 108 -134c70 0 106 36 106 105c0 171 -269 209 -269 404c0 93 64 155 161 155c91 0 154 -74 159 -185c0 -6 -4 -10 -10 -10h-40c-6 0 -10 4 -10 10c-4 88 -39 129 -99 129
c-66 0 -101 -34 -101 -99c0 -161 269 -198 269 -404z" />
    <glyph glyph-name="Scommaaccent" unicode="&#x218;" horiz-adv-x="406" 
d="M204 -10c-98 0 -165 76 -168 190c0 6 4 10 10 10h40c6 0 10 -4 10 -10c3 -88 40 -134 108 -134c70 0 106 36 106 105c0 171 -269 209 -269 404c0 93 64 155 161 155c91 0 154 -74 159 -185c0 -6 -4 -10 -10 -10h-40c-6 0 -10 4 -10 10c-4 88 -39 129 -99 129
c-66 0 -101 -34 -101 -99c0 -161 269 -198 269 -404c0 -97 -66 -161 -166 -161zM189 -69c0 7 5 10 11 10h43c7 0 10 -5 9 -11l-28 -154c-1 -6 -5 -9 -11 -9h-24c-6 0 -9 4 -9 10z" />
    <glyph glyph-name="T" unicode="T" horiz-adv-x="350" 
d="M325 700c6 0 10 -4 10 -10v-36c0 -6 -4 -10 -10 -10h-120v-634c0 -6 -4 -10 -10 -10h-40c-6 0 -10 4 -10 10v634h-120c-6 0 -10 4 -10 10v36c0 6 4 10 10 10h300z" />
    <glyph glyph-name="Tbar" unicode="&#x166;" horiz-adv-x="350" 
d="M325 700c6 0 10 -4 10 -10v-35c0 -6 -4 -10 -10 -10h-120v-238h70c6 0 10 -4 10 -10v-29c0 -6 -4 -10 -10 -10h-70v-348c0 -6 -4 -10 -10 -10h-40c-6 0 -10 4 -10 10v348h-70c-6 0 -10 4 -10 10v29c0 6 4 10 10 10h70v238h-120c-6 0 -10 4 -10 10v35c0 6 4 10 10 10h300z
" />
    <glyph glyph-name="Tcaron" unicode="&#x164;" horiz-adv-x="350" 
d="M286 866l-75 -91c-3 -4 -7 -6 -12 -6h-52c-5 0 -9 2 -12 6l-75 91c-5 7 -2 12 6 12h33c5 0 9 -1 12 -5l62 -70l62 70c3 4 7 5 12 5h33c8 0 11 -5 6 -12zM325 700c6 0 10 -4 10 -10v-36c0 -6 -4 -10 -10 -10h-120v-634c0 -6 -4 -10 -10 -10h-40c-6 0 -10 4 -10 10v634
h-120c-6 0 -10 4 -10 10v36c0 6 4 10 10 10h300z" />
    <glyph glyph-name="uni0162" unicode="&#x162;" horiz-adv-x="350" 
d="M325 700c6 0 10 -4 10 -10v-36c0 -6 -4 -10 -10 -10h-120v-634c0 -6 -4 -10 -10 -10h-40c-6 0 -10 4 -10 10v634h-120c-6 0 -10 4 -10 10v36c0 6 4 10 10 10h300zM145 -69c0 7 5 10 11 10h43c7 0 10 -5 9 -11l-28 -154c-1 -6 -5 -9 -11 -9h-24c-6 0 -9 4 -9 10z" />
    <glyph glyph-name="uni021A" unicode="&#x21a;" horiz-adv-x="350" 
d="M325 700c6 0 10 -4 10 -10v-36c0 -6 -4 -10 -10 -10h-120v-634c0 -6 -4 -10 -10 -10h-40c-6 0 -10 4 -10 10v634h-120c-6 0 -10 4 -10 10v36c0 6 4 10 10 10h300zM149 -69c0 7 5 10 11 10h43c7 0 10 -5 9 -11l-28 -154c-1 -6 -5 -9 -11 -9h-24c-6 0 -9 4 -9 10z" />
    <glyph glyph-name="U" unicode="U" horiz-adv-x="454" 
d="M72 700h40c6 0 10 -4 10 -10v-520c0 -74 41 -124 105 -124s105 50 105 124v520c0 6 4 10 10 10h40c6 0 10 -4 10 -10v-520c0 -105 -65 -180 -165 -180s-165 75 -165 180v520c0 6 4 10 10 10z" />
    <glyph glyph-name="Uacute" unicode="&#xda;" horiz-adv-x="454" 
d="M188 769c-8 0 -11 6 -6 12l69 91c3 5 8 6 13 6h46c8 0 11 -6 5 -12l-81 -91c-3 -4 -7 -6 -12 -6h-34zM72 700h40c6 0 10 -4 10 -10v-520c0 -74 41 -124 105 -124s105 50 105 124v520c0 6 4 10 10 10h40c6 0 10 -4 10 -10v-520c0 -105 -65 -180 -165 -180
s-165 75 -165 180v520c0 6 4 10 10 10z" />
    <glyph glyph-name="Ucircumflex" unicode="&#xdb;" horiz-adv-x="454" 
d="M335 781c5 -7 2 -12 -6 -12h-33c-5 0 -9 1 -12 5l-62 70l-62 -70c-3 -4 -7 -5 -12 -5h-33c-8 0 -11 5 -6 12l75 91c3 4 7 6 12 6h52c5 0 9 -2 12 -6zM72 700h40c6 0 10 -4 10 -10v-520c0 -74 41 -124 105 -124s105 50 105 124v520c0 6 4 10 10 10h40c6 0 10 -4 10 -10
v-520c0 -105 -65 -180 -165 -180s-165 75 -165 180v520c0 6 4 10 10 10z" />
    <glyph glyph-name="Udieresis" unicode="&#xdc;" horiz-adv-x="454" 
d="M172 778c-22 0 -37 15 -37 37s15 37 37 37s37 -15 37 -37s-15 -37 -37 -37zM272 778c-22 0 -37 15 -37 37s15 37 37 37s37 -15 37 -37s-15 -37 -37 -37zM72 700h40c6 0 10 -4 10 -10v-520c0 -74 41 -124 105 -124s105 50 105 124v520c0 6 4 10 10 10h40c6 0 10 -4 10 -10
v-520c0 -105 -65 -180 -165 -180s-165 75 -165 180v520c0 6 4 10 10 10z" />
    <glyph glyph-name="Ugrave" unicode="&#xd9;" horiz-adv-x="454" 
d="M282 769h-34c-5 0 -9 2 -12 6l-81 91c-6 6 -3 12 5 12h46c5 0 10 -1 13 -6l69 -91c5 -6 2 -12 -6 -12zM72 700h40c6 0 10 -4 10 -10v-520c0 -74 41 -124 105 -124s105 50 105 124v520c0 6 4 10 10 10h40c6 0 10 -4 10 -10v-520c0 -105 -65 -180 -165 -180
s-165 75 -165 180v520c0 6 4 10 10 10z" />
    <glyph glyph-name="Uhungarumlaut" unicode="&#x170;" horiz-adv-x="454" 
d="M128 769c-8 0 -11 6 -6 12l69 91c3 5 8 6 13 6h46c8 0 11 -6 5 -12l-81 -91c-3 -4 -7 -6 -12 -6h-34zM228 769c-8 0 -11 6 -6 12l69 91c3 5 8 6 13 6h46c8 0 11 -6 5 -12l-81 -91c-3 -4 -7 -6 -12 -6h-34zM72 700h40c6 0 10 -4 10 -10v-520c0 -74 41 -124 105 -124
s105 50 105 124v520c0 6 4 10 10 10h40c6 0 10 -4 10 -10v-520c0 -105 -65 -180 -165 -180s-165 75 -165 180v520c0 6 4 10 10 10z" />
    <glyph glyph-name="Umacron" unicode="&#x16a;" horiz-adv-x="454" 
d="M140 834c0 6 4 10 10 10h144c6 0 10 -4 10 -10v-32c0 -6 -4 -10 -10 -10h-144c-6 0 -10 4 -10 10v32zM72 700h40c6 0 10 -4 10 -10v-520c0 -74 41 -124 105 -124s105 50 105 124v520c0 6 4 10 10 10h40c6 0 10 -4 10 -10v-520c0 -105 -65 -180 -165 -180
s-165 75 -165 180v520c0 6 4 10 10 10z" />
    <glyph glyph-name="Uogonek" unicode="&#x172;" horiz-adv-x="448" 
d="M326 690c0 6 4 10 10 10h40c6 0 10 -4 10 -10v-532c0 -54 -24 -96 -59 -133c-39 -42 -71 -100 -71 -137c0 -25 23 -35 60 -34c7 1 11 -3 11 -9v-36c0 -6 -3 -10 -9 -10c-67 -7 -121 22 -121 80c0 32 23 77 51 113c-8 -1 -16 -2 -24 -2c-95 0 -162 75 -162 168v532
c0 6 4 10 10 10h40c6 0 10 -4 10 -10v-532c0 -62 42 -112 102 -112s102 50 102 112v532z" />
    <glyph glyph-name="Uring" unicode="&#x16e;" horiz-adv-x="454" 
d="M153 822c0 39 27 65 68 65s68 -26 68 -65c0 -40 -27 -67 -68 -67s-68 27 -68 67zM192 821c0 -18 11 -29 29 -29c17 0 29 11 29 29c0 17 -12 29 -29 29c-18 0 -29 -12 -29 -29zM72 700h40c6 0 10 -4 10 -10v-520c0 -74 41 -124 105 -124s105 50 105 124v520
c0 6 4 10 10 10h40c6 0 10 -4 10 -10v-520c0 -105 -65 -180 -165 -180s-165 75 -165 180v520c0 6 4 10 10 10z" />
    <glyph glyph-name="V" unicode="V" horiz-adv-x="384" 
d="M361 700c7 0 10 -5 9 -11l-128 -665c-3 -18 -14 -27 -32 -27h-37c-18 0 -28 9 -32 27l-127 665c-1 6 2 11 9 11h40c6 0 10 -3 11 -9l118 -625l118 625c1 6 5 9 11 9h40z" />
    <glyph glyph-name="W" unicode="W" horiz-adv-x="684" 
d="M612 700c6 0 10 -4 10 -10v-518c0 -112 -57 -182 -155 -182c-67 0 -99 36 -125 84c-26 -48 -60 -84 -125 -84c-97 0 -155 70 -155 182v518c0 6 4 10 10 10h40c6 0 10 -4 10 -10v-518c0 -81 33 -126 95 -126c57 0 95 45 95 126v518c0 6 4 10 10 10h40c6 0 10 -4 10 -10
v-518c0 -81 40 -126 95 -126c63 0 95 45 95 126v518c0 6 4 10 10 10h40z" />
    <glyph glyph-name="Wacute" unicode="&#x1e82;" horiz-adv-x="684" 
d="M308 769c-8 0 -11 6 -6 12l69 91c3 5 8 6 13 6h46c8 0 11 -6 5 -12l-81 -91c-3 -4 -7 -6 -12 -6h-34zM612 700c6 0 10 -4 10 -10v-518c0 -112 -57 -182 -155 -182c-67 0 -99 36 -125 84c-26 -48 -60 -84 -125 -84c-97 0 -155 70 -155 182v518c0 6 4 10 10 10h40
c6 0 10 -4 10 -10v-518c0 -81 33 -126 95 -126c57 0 95 45 95 126v518c0 6 4 10 10 10h40c6 0 10 -4 10 -10v-518c0 -81 40 -126 95 -126c63 0 95 45 95 126v518c0 6 4 10 10 10h40z" />
    <glyph glyph-name="Wcircumflex" unicode="&#x174;" horiz-adv-x="684" 
d="M235 769c-8 0 -11 5 -6 12l75 91c3 4 7 6 12 6h52c5 0 9 -2 12 -6l75 -91c5 -7 2 -12 -6 -12h-33c-5 0 -9 1 -12 5l-62 70l-62 -70c-3 -4 -7 -5 -12 -5h-33zM612 700c6 0 10 -4 10 -10v-518c0 -112 -57 -182 -155 -182c-67 0 -99 36 -125 84c-26 -48 -60 -84 -125 -84
c-97 0 -155 70 -155 182v518c0 6 4 10 10 10h40c6 0 10 -4 10 -10v-518c0 -81 33 -126 95 -126c57 0 95 45 95 126v518c0 6 4 10 10 10h40c6 0 10 -4 10 -10v-518c0 -81 40 -126 95 -126c63 0 95 45 95 126v518c0 6 4 10 10 10h40z" />
    <glyph glyph-name="Wdieresis" unicode="&#x1e84;" horiz-adv-x="684" 
d="M292 778c-22 0 -37 15 -37 37s15 37 37 37s37 -15 37 -37s-15 -37 -37 -37zM392 778c-22 0 -37 15 -37 37s15 37 37 37s37 -15 37 -37s-15 -37 -37 -37zM612 700c6 0 10 -4 10 -10v-518c0 -112 -57 -182 -155 -182c-67 0 -99 36 -125 84c-26 -48 -60 -84 -125 -84
c-97 0 -155 70 -155 182v518c0 6 4 10 10 10h40c6 0 10 -4 10 -10v-518c0 -81 33 -126 95 -126c57 0 95 45 95 126v518c0 6 4 10 10 10h40c6 0 10 -4 10 -10v-518c0 -81 40 -126 95 -126c63 0 95 45 95 126v518c0 6 4 10 10 10h40z" />
    <glyph glyph-name="Wgrave" unicode="&#x1e80;" horiz-adv-x="684" 
d="M356 775l-81 91c-6 6 -3 12 5 12h46c5 0 10 -1 13 -6l69 -91c5 -6 2 -12 -6 -12h-34c-5 0 -9 2 -12 6zM612 700c6 0 10 -4 10 -10v-518c0 -112 -57 -182 -155 -182c-67 0 -99 36 -125 84c-26 -48 -60 -84 -125 -84c-97 0 -155 70 -155 182v518c0 6 4 10 10 10h40
c6 0 10 -4 10 -10v-518c0 -81 33 -126 95 -126c57 0 95 45 95 126v518c0 6 4 10 10 10h40c6 0 10 -4 10 -10v-518c0 -81 40 -126 95 -126c63 0 95 45 95 126v518c0 6 4 10 10 10h40z" />
    <glyph glyph-name="X" unicode="X" horiz-adv-x="424" 
d="M375 500c0 -69 -30 -116 -85 -145c55 -29 85 -76 85 -145v-200c0 -6 -4 -10 -10 -10h-40c-6 0 -10 4 -10 10v200c0 67 -42 117 -103 117s-103 -50 -103 -117v-200c0 -6 -4 -10 -10 -10h-40c-6 0 -10 4 -10 10v200c0 69 30 116 85 145c-55 29 -85 76 -85 145v190
c0 6 4 10 10 10h40c6 0 10 -4 10 -10v-190c0 -67 42 -118 103 -118s103 51 103 118v190c0 6 4 10 10 10h40c6 0 10 -4 10 -10v-190z" />
    <glyph glyph-name="Y" unicode="Y" horiz-adv-x="414" 
d="M187 0c-6 0 -10 4 -10 10v219c-80 13 -133 82 -133 169v292c0 6 4 10 10 10h40c6 0 10 -4 10 -10v-292c0 -66 42 -117 103 -117s103 51 103 117v292c0 6 4 10 10 10h40c6 0 10 -4 10 -10v-292c0 -87 -53 -156 -133 -169v-219c0 -6 -4 -10 -10 -10h-40z" />
    <glyph glyph-name="Yacute" unicode="&#xdd;" horiz-adv-x="414" 
d="M173 769c-8 0 -11 6 -6 12l69 91c3 5 8 6 13 6h46c8 0 11 -6 5 -12l-81 -91c-3 -4 -7 -6 -12 -6h-34zM187 0c-6 0 -10 4 -10 10v219c-80 13 -133 82 -133 169v292c0 6 4 10 10 10h40c6 0 10 -4 10 -10v-292c0 -66 42 -117 103 -117s103 51 103 117v292c0 6 4 10 10 10h40
c6 0 10 -4 10 -10v-292c0 -87 -53 -156 -133 -169v-219c0 -6 -4 -10 -10 -10h-40z" />
    <glyph glyph-name="Ycircumflex" unicode="&#x176;" horiz-adv-x="414" 
d="M320 781c5 -7 2 -12 -6 -12h-33c-5 0 -9 1 -12 5l-62 70l-62 -70c-3 -4 -7 -5 -12 -5h-33c-8 0 -11 5 -6 12l75 91c3 4 7 6 12 6h52c5 0 9 -2 12 -6zM187 0c-6 0 -10 4 -10 10v219c-80 13 -133 82 -133 169v292c0 6 4 10 10 10h40c6 0 10 -4 10 -10v-292
c0 -66 42 -117 103 -117s103 51 103 117v292c0 6 4 10 10 10h40c6 0 10 -4 10 -10v-292c0 -87 -53 -156 -133 -169v-219c0 -6 -4 -10 -10 -10h-40z" />
    <glyph glyph-name="Ydieresis" unicode="&#x178;" horiz-adv-x="414" 
d="M157 778c-22 0 -37 15 -37 37s15 37 37 37s37 -15 37 -37s-15 -37 -37 -37zM257 778c-22 0 -37 15 -37 37s15 37 37 37s37 -15 37 -37s-15 -37 -37 -37zM187 0c-6 0 -10 4 -10 10v219c-80 13 -133 82 -133 169v292c0 6 4 10 10 10h40c6 0 10 -4 10 -10v-292
c0 -66 42 -117 103 -117s103 51 103 117v292c0 6 4 10 10 10h40c6 0 10 -4 10 -10v-292c0 -87 -53 -156 -133 -169v-219c0 -6 -4 -10 -10 -10h-40z" />
    <glyph glyph-name="Ygrave" unicode="&#x1ef2;" horiz-adv-x="414" 
d="M267 769h-34c-5 0 -9 2 -12 6l-81 91c-6 6 -3 12 5 12h46c5 0 10 -1 13 -6l69 -91c5 -6 2 -12 -6 -12zM187 0c-6 0 -10 4 -10 10v219c-80 13 -133 82 -133 169v292c0 6 4 10 10 10h40c6 0 10 -4 10 -10v-292c0 -66 42 -117 103 -117s103 51 103 117v292c0 6 4 10 10 10
h40c6 0 10 -4 10 -10v-292c0 -87 -53 -156 -133 -169v-219c0 -6 -4 -10 -10 -10h-40z" />
    <glyph glyph-name="Z" unicode="Z" horiz-adv-x="397" 
d="M94 56h257c6 0 10 -4 10 -10v-36c0 -6 -4 -10 -10 -10h-284c-19 0 -30 11 -30 30v20c0 14 1 24 7 37l257 557h-233c-6 0 -10 4 -10 10v36c0 6 4 10 10 10h261c19 0 29 -10 30 -30l1 -20c1 -14 -1 -24 -7 -37z" />
    <glyph glyph-name="Zacute" unicode="&#x179;" horiz-adv-x="397" 
d="M180 769c-8 0 -11 6 -6 12l69 91c3 5 8 6 13 6h46c8 0 11 -6 5 -12l-81 -91c-3 -4 -7 -6 -12 -6h-34zM94 56h257c6 0 10 -4 10 -10v-36c0 -6 -4 -10 -10 -10h-284c-19 0 -30 11 -30 30v20c0 14 1 24 7 37l257 557h-233c-6 0 -10 4 -10 10v36c0 6 4 10 10 10h261
c19 0 29 -10 30 -30l1 -20c1 -14 -1 -24 -7 -37z" />
    <glyph glyph-name="Zcaron" unicode="&#x17d;" horiz-adv-x="397" 
d="M325 866l-75 -91c-3 -4 -7 -6 -12 -6h-52c-5 0 -9 2 -12 6l-75 91c-5 7 -2 12 6 12h33c5 0 9 -1 12 -5l62 -70l62 70c3 4 7 5 12 5h33c8 0 11 -5 6 -12zM94 56h257c6 0 10 -4 10 -10v-36c0 -6 -4 -10 -10 -10h-284c-19 0 -30 11 -30 30v20c0 14 1 24 7 37l257 557h-233
c-6 0 -10 4 -10 10v36c0 6 4 10 10 10h261c19 0 29 -10 30 -30l1 -20c1 -14 -1 -24 -7 -37z" />
    <glyph glyph-name="Zdotaccent" unicode="&#x17b;" horiz-adv-x="397" 
d="M214 765c-23 0 -39 17 -39 39c0 23 16 39 39 39c22 0 39 -16 39 -39c0 -21 -17 -39 -39 -39zM94 56h257c6 0 10 -4 10 -10v-36c0 -6 -4 -10 -10 -10h-284c-19 0 -30 11 -30 30v20c0 14 1 24 7 37l257 557h-233c-6 0 -10 4 -10 10v36c0 6 4 10 10 10h261
c19 0 29 -10 30 -30l1 -20c1 -14 -1 -24 -7 -37z" />
    <glyph glyph-name="uni0162.ss01" horiz-adv-x="350" 
d="M325 700c6 0 10 -4 10 -10v-36c0 -6 -4 -10 -10 -10h-120v-634c0 -6 -3 -10 -7 -10l-8 -44h6c42 -3 76 -33 76 -75c0 -51 -38 -81 -89 -81c-47 0 -84 26 -88 71c-1 6 3 10 9 10h28c6 0 9 -3 10 -9c4 -19 20 -29 41 -29c24 0 42 14 42 38c0 20 -17 34 -40 34
c-13 0 -25 -2 -35 -5c-3 -1 -6 0 -8 2l-2 2c-2 2 -4 4 -3 8l15 78c-4 0 -7 4 -7 10v634h-120c-6 0 -10 4 -10 10v36c0 6 4 10 10 10h300z" />
    <glyph glyph-name="a" unicode="a" horiz-adv-x="389" 
d="M192 -9c-93 0 -154 66 -154 155c0 79 61 144 152 144h97v65c0 58 -35 100 -94 100c-53 0 -86 -37 -90 -92c-1 -7 -4 -10 -10 -10h-37c-6 0 -10 4 -10 10c5 85 61 147 147 147c92 0 151 -67 151 -155v-209c0 -89 -60 -155 -152 -155zM192 46c60 0 95 41 95 100v89h-97
c-59 0 -95 -40 -95 -89c0 -59 36 -100 97 -100z" />
    <glyph glyph-name="aacute" unicode="&#xe1;" horiz-adv-x="389" 
d="M266 672c8 0 11 -6 6 -12l-69 -95c-3 -5 -8 -6 -13 -6h-33c-8 0 -11 5 -7 12l59 94c3 4 7 7 12 7h45zM192 -9c-93 0 -154 66 -154 155c0 79 61 144 152 144h97v65c0 58 -35 100 -94 100c-53 0 -86 -37 -90 -92c-1 -7 -4 -10 -10 -10h-37c-6 0 -10 4 -10 10
c5 85 61 147 147 147c92 0 151 -67 151 -155v-209c0 -89 -60 -155 -152 -155zM192 46c60 0 95 41 95 100v89h-97c-59 0 -95 -40 -95 -89c0 -59 36 -100 97 -100z" />
    <glyph glyph-name="abreve" unicode="&#x103;" horiz-adv-x="389" 
d="M194 562c-63 0 -106 38 -111 97c0 6 4 10 10 10h33c6 0 10 -3 11 -10c3 -29 24 -46 57 -46s54 17 57 46c1 7 5 10 11 10h33c6 0 10 -3 10 -10c-5 -58 -47 -97 -111 -97zM192 -9c-93 0 -154 66 -154 155c0 79 61 144 152 144h97v65c0 58 -35 100 -94 100
c-53 0 -86 -37 -90 -92c-1 -7 -4 -10 -10 -10h-37c-6 0 -10 4 -10 10c5 85 61 147 147 147c92 0 151 -67 151 -155v-209c0 -89 -60 -155 -152 -155zM192 46c60 0 95 41 95 100v89h-97c-59 0 -95 -40 -95 -89c0 -59 36 -100 97 -100z" />
    <glyph glyph-name="acircumflex" unicode="&#xe2;" horiz-adv-x="389" 
d="M96 559c-8 0 -11 6 -6 12l69 95c3 5 7 6 12 6h46c5 0 9 -1 12 -6l69 -95c5 -6 2 -12 -6 -12h-32c-5 0 -10 2 -13 6l-53 65l-53 -65c-3 -4 -8 -6 -13 -6h-32zM192 -9c-93 0 -154 66 -154 155c0 79 61 144 152 144h97v65c0 58 -35 100 -94 100c-53 0 -86 -37 -90 -92
c-1 -7 -4 -10 -10 -10h-37c-6 0 -10 4 -10 10c5 85 61 147 147 147c92 0 151 -67 151 -155v-209c0 -89 -60 -155 -152 -155zM192 46c60 0 95 41 95 100v89h-97c-59 0 -95 -40 -95 -89c0 -59 36 -100 97 -100z" />
    <glyph glyph-name="adieresis" unicode="&#xe4;" horiz-adv-x="389" 
d="M144 568c-22 0 -37 15 -37 37s15 37 37 37s37 -15 37 -37s-15 -37 -37 -37zM244 568c-22 0 -37 15 -37 37s15 37 37 37s37 -15 37 -37s-15 -37 -37 -37zM192 -9c-93 0 -154 66 -154 155c0 79 61 144 152 144h97v65c0 58 -35 100 -94 100c-53 0 -86 -37 -90 -92
c-1 -7 -4 -10 -10 -10h-37c-6 0 -10 4 -10 10c5 85 61 147 147 147c92 0 151 -67 151 -155v-209c0 -89 -60 -155 -152 -155zM192 46c60 0 95 41 95 100v89h-97c-59 0 -95 -40 -95 -89c0 -59 36 -100 97 -100z" />
    <glyph glyph-name="agrave" unicode="&#xe0;" horiz-adv-x="389" 
d="M112 672h45c5 0 9 -3 12 -7l59 -94c4 -7 1 -12 -7 -12h-33c-5 0 -10 1 -13 6l-69 95c-5 6 -2 12 6 12zM192 -9c-93 0 -154 66 -154 155c0 79 61 144 152 144h97v65c0 58 -35 100 -94 100c-53 0 -86 -37 -90 -92c-1 -7 -4 -10 -10 -10h-37c-6 0 -10 4 -10 10
c5 85 61 147 147 147c92 0 151 -67 151 -155v-209c0 -89 -60 -155 -152 -155zM192 46c60 0 95 41 95 100v89h-97c-59 0 -95 -40 -95 -89c0 -59 36 -100 97 -100z" />
    <glyph glyph-name="amacron" unicode="&#x101;" horiz-adv-x="389" 
d="M112 634c0 6 4 10 10 10h144c6 0 10 -4 10 -10v-32c0 -6 -4 -10 -10 -10h-144c-6 0 -10 4 -10 10v32zM192 -9c-93 0 -154 66 -154 155c0 79 61 144 152 144h97v65c0 58 -35 100 -94 100c-53 0 -86 -37 -90 -92c-1 -7 -4 -10 -10 -10h-37c-6 0 -10 4 -10 10
c5 85 61 147 147 147c92 0 151 -67 151 -155v-209c0 -89 -60 -155 -152 -155zM192 46c60 0 95 41 95 100v89h-97c-59 0 -95 -40 -95 -89c0 -59 36 -100 97 -100z" />
    <glyph glyph-name="aogonek" unicode="&#x105;" horiz-adv-x="389" 
d="M289 -201c-66 -7 -121 22 -121 80c0 40 25 78 52 114c-12 -3 -20 -3 -29 -3c-92 0 -153 66 -153 155c0 80 68 145 153 145h96v65c0 58 -40 100 -93 100c-49 0 -87 -37 -91 -92c0 -7 -4 -10 -10 -10h-37c-6 0 -10 4 -10 10c5 85 66 147 148 147c86 0 150 -67 150 -155
v-240c0 -39 -18 -65 -46 -92c-38 -37 -71 -102 -71 -135c0 -25 23 -34 60 -33c7 0 11 -4 11 -10v-36c0 -6 -3 -10 -9 -10zM192 45c59 0 95 29 95 70v120h-96c-54 0 -96 -40 -96 -90c0 -59 36 -100 97 -100z" />
    <glyph glyph-name="aring" unicode="&#xe5;" horiz-adv-x="389" 
d="M126 616c0 39 27 65 68 65s68 -26 68 -65c0 -40 -27 -67 -68 -67s-68 27 -68 67zM165 615c0 -18 11 -29 29 -29c17 0 29 11 29 29c0 17 -12 29 -29 29c-18 0 -29 -12 -29 -29zM192 -9c-93 0 -154 66 -154 155c0 79 61 144 152 144h97v65c0 58 -35 100 -94 100
c-53 0 -86 -37 -90 -92c-1 -7 -4 -10 -10 -10h-37c-6 0 -10 4 -10 10c5 85 61 147 147 147c92 0 151 -67 151 -155v-209c0 -89 -60 -155 -152 -155zM192 46c60 0 95 41 95 100v89h-97c-59 0 -95 -40 -95 -89c0 -59 36 -100 97 -100z" />
    <glyph glyph-name="atilde" unicode="&#xe3;" horiz-adv-x="389" 
d="M155 608c-11 0 -17 -7 -19 -21c-1 -7 -5 -10 -11 -10h-31c-6 0 -10 4 -10 10c4 43 30 70 66 70c39 0 57 -32 78 -32c11 0 17 7 19 21c1 7 5 10 11 10h31c6 0 10 -4 10 -10c-4 -43 -31 -70 -66 -70c-38 0 -56 32 -78 32zM192 -9c-93 0 -154 66 -154 155
c0 79 61 144 152 144h97v65c0 58 -35 100 -94 100c-53 0 -86 -37 -90 -92c-1 -7 -4 -10 -10 -10h-37c-6 0 -10 4 -10 10c5 85 61 147 147 147c92 0 151 -67 151 -155v-209c0 -89 -60 -155 -152 -155zM192 46c60 0 95 41 95 100v89h-97c-59 0 -95 -40 -95 -89
c0 -59 36 -100 97 -100z" />
    <glyph glyph-name="ae" unicode="&#xe6;" horiz-adv-x="607" 
d="M183 -10c-87 0 -145 62 -145 146c0 80 67 145 154 145h83v74c0 58 -39 100 -88 100c-46 0 -82 -37 -86 -92c0 -7 -4 -10 -10 -10h-37c-6 0 -10 4 -10 10c5 85 64 147 143 147c52 0 91 -32 116 -74c27 43 64 74 120 74c90 0 146 -60 146 -143c0 -79 -59 -141 -155 -141
h-82v-79c0 -60 35 -102 92 -102c56 0 85 38 88 105c0 6 4 10 10 10h37c6 0 10 -4 10 -10c-4 -97 -57 -160 -145 -160c-57 0 -96 31 -120 73c-24 -42 -65 -73 -121 -73zM332 281h82c67 0 98 37 98 86c0 53 -31 88 -89 88c-55 0 -91 -42 -91 -100v-74zM183 45
c57 0 92 41 92 102v79h-83c-58 0 -97 -40 -97 -90c0 -54 33 -91 88 -91z" />
    <glyph glyph-name="b" unicode="b" horiz-adv-x="406" 
d="M208 510c92 0 153 -67 153 -157v-206c0 -90 -61 -157 -153 -157s-153 67 -153 157v543c0 6 4 10 10 10h37c6 0 10 -4 10 -10v-230c24 30 57 50 96 50zM304 147v206c0 60 -36 102 -96 102s-96 -42 -96 -102v-206c0 -60 36 -102 96 -102s96 42 96 102z" />
    <glyph glyph-name="c" unicode="c" horiz-adv-x="384" 
d="M197 -10c-91 0 -152 67 -152 157v206c0 90 60 157 150 157c87 0 145 -62 150 -147c0 -6 -4 -10 -10 -10h-37c-6 0 -10 3 -10 10c-4 55 -38 92 -93 92c-58 0 -93 -42 -93 -102v-206c0 -60 36 -102 95 -102c56 0 91 41 95 102c0 7 4 10 10 10h37c6 0 10 -4 10 -10
c-5 -91 -64 -157 -152 -157z" />
    <glyph glyph-name="cacute" unicode="&#x107;" horiz-adv-x="384" 
d="M265 672c8 0 11 -6 6 -12l-69 -95c-3 -5 -8 -6 -13 -6h-33c-8 0 -11 5 -7 12l59 94c3 4 7 7 12 7h45zM197 -10c-91 0 -152 67 -152 157v206c0 90 60 157 150 157c87 0 145 -62 150 -147c0 -6 -4 -10 -10 -10h-37c-6 0 -10 3 -10 10c-4 55 -38 92 -93 92
c-58 0 -93 -42 -93 -102v-206c0 -60 36 -102 95 -102c56 0 91 41 95 102c0 7 4 10 10 10h37c6 0 10 -4 10 -10c-5 -91 -64 -157 -152 -157z" />
    <glyph glyph-name="ccaron" unicode="&#x10d;" horiz-adv-x="384" 
d="M95 672h32c5 0 10 -2 13 -6l53 -65l53 65c3 4 8 6 13 6h32c8 0 11 -6 6 -12l-69 -95c-3 -5 -7 -6 -12 -6h-46c-5 0 -9 1 -12 6l-69 95c-5 6 -2 12 6 12zM197 -10c-91 0 -152 67 -152 157v206c0 90 60 157 150 157c87 0 145 -62 150 -147c0 -6 -4 -10 -10 -10h-37
c-6 0 -10 3 -10 10c-4 55 -38 92 -93 92c-58 0 -93 -42 -93 -102v-206c0 -60 36 -102 95 -102c56 0 91 41 95 102c0 7 4 10 10 10h37c6 0 10 -4 10 -10c-5 -91 -64 -157 -152 -157z" />
    <glyph glyph-name="ccedilla" unicode="&#xe7;" horiz-adv-x="384" 
d="M349 147c-5 -84 -55 -147 -133 -156l-6 -35h6c42 -3 76 -33 76 -75c0 -51 -38 -81 -89 -81c-47 0 -84 26 -88 71c-1 6 3 10 9 10h28c6 0 9 -3 10 -9c4 -19 20 -29 41 -29c24 0 42 14 42 38c0 20 -17 34 -40 34c-13 0 -25 -2 -35 -5c-3 -1 -6 0 -8 2l-2 2c-2 2 -4 4 -3 8
l13 70c-76 12 -125 74 -125 155v206c0 90 60 157 150 157c87 0 145 -62 150 -147c0 -6 -4 -10 -10 -10h-37c-6 0 -10 3 -10 10c-4 55 -38 92 -93 92c-58 0 -93 -42 -93 -102v-206c0 -60 36 -102 95 -102c56 0 91 41 95 102c0 7 4 10 10 10h37c6 0 10 -4 10 -10z" />
    <glyph glyph-name="cdotaccent" unicode="&#x10b;" horiz-adv-x="384" 
d="M193 565c-23 0 -39 17 -39 39c0 23 16 39 39 39c22 0 39 -16 39 -39c0 -21 -17 -39 -39 -39zM197 -10c-91 0 -152 67 -152 157v206c0 90 60 157 150 157c87 0 145 -62 150 -147c0 -6 -4 -10 -10 -10h-37c-6 0 -10 3 -10 10c-4 55 -38 92 -93 92c-58 0 -93 -42 -93 -102
v-206c0 -60 36 -102 95 -102c56 0 91 41 95 102c0 7 4 10 10 10h37c6 0 10 -4 10 -10c-5 -91 -64 -157 -152 -157z" />
    <glyph glyph-name="d" unicode="d" horiz-adv-x="406" 
d="M341 700c6 0 10 -4 10 -10v-543c0 -90 -61 -157 -153 -157s-153 67 -153 157v206c0 90 61 157 153 157c39 0 72 -20 96 -50v230c0 6 4 10 10 10h37zM294 147v206c0 60 -36 102 -96 102s-96 -42 -96 -102v-206c0 -60 36 -102 96 -102s96 42 96 102z" />
    <glyph glyph-name="eth" unicode="&#xf0;" horiz-adv-x="416" 
d="M308 630c28 -36 43 -83 43 -135v-345c0 -93 -60 -160 -153 -160s-153 67 -153 160v203c0 90 61 157 153 157c39 0 72 -20 96 -50v35c0 40 -12 77 -35 105l-86 -54c-7 -4 -12 -1 -12 7v25c0 5 3 9 7 12l61 38c-24 16 -55 26 -90 26h-20c-6 0 -10 4 -10 10v35
c0 6 4 10 10 10h20c58 0 106 -18 141 -49l58 36c7 4 12 1 12 -7v-25c0 -5 -3 -9 -7 -12zM294 150v203c0 60 -36 102 -96 102s-96 -42 -96 -102v-203c0 -63 35 -105 96 -105s96 42 96 105z" />
    <glyph glyph-name="dcaron" unicode="&#x10f;" horiz-adv-x="474" 
d="M341 700c6 0 10 -4 10 -10v-543c0 -90 -61 -157 -153 -157s-153 67 -153 157v206c0 90 61 157 153 157c39 0 72 -20 96 -50v230c0 6 4 10 10 10h37zM454 700c7 0 10 -5 9 -11l-28 -154c-1 -6 -5 -9 -11 -9h-24c-6 0 -9 4 -9 10l9 154c0 7 5 10 11 10h43zM294 147v206
c0 60 -36 102 -96 102s-96 -42 -96 -102v-206c0 -60 36 -102 96 -102s96 42 96 102z" />
    <glyph glyph-name="dcroat" unicode="&#x111;" horiz-adv-x="410" 
d="M393 635c6 0 10 -4 10 -10v-26c0 -6 -4 -10 -10 -10h-42v-442c0 -90 -61 -157 -153 -157s-153 67 -153 157v206c0 90 61 157 153 157c39 0 72 -20 96 -50v129h-84c-6 0 -10 4 -10 10v26c0 6 4 10 10 10h84v55c0 6 4 10 10 10h37c6 0 10 -4 10 -10v-55h42zM294 147v206
c0 60 -36 102 -96 102s-96 -42 -96 -102v-206c0 -60 36 -102 96 -102s96 42 96 102z" />
    <glyph glyph-name="e" unicode="e" horiz-adv-x="389" 
d="M198 -9c-92 0 -153 63 -153 157v203c0 92 59 158 153 158c92 0 153 -66 153 -154c0 -83 -61 -146 -153 -146h-96v-61c0 -60 36 -102 96 -102c56 0 93 41 95 102c0 7 4 10 10 10h37c6 0 10 -4 10 -10c-3 -94 -64 -157 -152 -157zM102 264h96c60 0 96 38 96 91
c0 58 -36 99 -96 99c-62 0 -96 -41 -96 -103v-87z" />
    <glyph glyph-name="eacute" unicode="&#xe9;" horiz-adv-x="389" 
d="M268 672c8 0 11 -6 6 -12l-69 -95c-3 -5 -8 -6 -13 -6h-33c-8 0 -11 5 -7 12l59 94c3 4 7 7 12 7h45zM198 -9c-92 0 -153 63 -153 157v203c0 92 59 158 153 158c92 0 153 -66 153 -154c0 -83 -61 -146 -153 -146h-96v-61c0 -60 36 -102 96 -102c56 0 93 41 95 102
c0 7 4 10 10 10h37c6 0 10 -4 10 -10c-3 -94 -64 -157 -152 -157zM102 264h96c60 0 96 38 96 91c0 58 -36 99 -96 99c-62 0 -96 -41 -96 -103v-87z" />
    <glyph glyph-name="ecaron" unicode="&#x11b;" horiz-adv-x="389" 
d="M98 672h32c5 0 10 -2 13 -6l53 -65l53 65c3 4 8 6 13 6h32c8 0 11 -6 6 -12l-69 -95c-3 -5 -7 -6 -12 -6h-46c-5 0 -9 1 -12 6l-69 95c-5 6 -2 12 6 12zM198 -9c-92 0 -153 63 -153 157v203c0 92 59 158 153 158c92 0 153 -66 153 -154c0 -83 -61 -146 -153 -146h-96v-61
c0 -60 36 -102 96 -102c56 0 93 41 95 102c0 7 4 10 10 10h37c6 0 10 -4 10 -10c-3 -94 -64 -157 -152 -157zM102 264h96c60 0 96 38 96 91c0 58 -36 99 -96 99c-62 0 -96 -41 -96 -103v-87z" />
    <glyph glyph-name="ecircumflex" unicode="&#xea;" horiz-adv-x="389" 
d="M98 559c-8 0 -11 6 -6 12l69 95c3 5 7 6 12 6h46c5 0 9 -1 12 -6l69 -95c5 -6 2 -12 -6 -12h-32c-5 0 -10 2 -13 6l-53 65l-53 -65c-3 -4 -8 -6 -13 -6h-32zM198 -9c-92 0 -153 63 -153 157v203c0 92 59 158 153 158c92 0 153 -66 153 -154c0 -83 -61 -146 -153 -146h-96
v-61c0 -60 36 -102 96 -102c56 0 93 41 95 102c0 7 4 10 10 10h37c6 0 10 -4 10 -10c-3 -94 -64 -157 -152 -157zM102 264h96c60 0 96 38 96 91c0 58 -36 99 -96 99c-62 0 -96 -41 -96 -103v-87z" />
    <glyph glyph-name="edieresis" unicode="&#xeb;" horiz-adv-x="389" 
d="M146 568c-22 0 -37 15 -37 37s15 37 37 37s37 -15 37 -37s-15 -37 -37 -37zM246 568c-22 0 -37 15 -37 37s15 37 37 37s37 -15 37 -37s-15 -37 -37 -37zM198 -9c-92 0 -153 63 -153 157v203c0 92 59 158 153 158c92 0 153 -66 153 -154c0 -83 -61 -146 -153 -146h-96v-61
c0 -60 36 -102 96 -102c56 0 93 41 95 102c0 7 4 10 10 10h37c6 0 10 -4 10 -10c-3 -94 -64 -157 -152 -157zM102 264h96c60 0 96 38 96 91c0 58 -36 99 -96 99c-62 0 -96 -41 -96 -103v-87z" />
    <glyph glyph-name="edotaccent" unicode="&#x117;" horiz-adv-x="389" 
d="M196 565c-23 0 -39 17 -39 39c0 23 16 39 39 39c22 0 39 -16 39 -39c0 -21 -17 -39 -39 -39zM198 -9c-92 0 -153 63 -153 157v203c0 92 59 158 153 158c92 0 153 -66 153 -154c0 -83 -61 -146 -153 -146h-96v-61c0 -60 36 -102 96 -102c56 0 93 41 95 102c0 7 4 10 10 10
h37c6 0 10 -4 10 -10c-3 -94 -64 -157 -152 -157zM102 264h96c60 0 96 38 96 91c0 58 -36 99 -96 99c-62 0 -96 -41 -96 -103v-87z" />
    <glyph glyph-name="egrave" unicode="&#xe8;" horiz-adv-x="389" 
d="M114 672h45c5 0 9 -3 12 -7l59 -94c4 -7 1 -12 -7 -12h-33c-5 0 -10 1 -13 6l-69 95c-5 6 -2 12 6 12zM198 -9c-92 0 -153 63 -153 157v203c0 92 59 158 153 158c92 0 153 -66 153 -154c0 -83 -61 -146 -153 -146h-96v-61c0 -60 36 -102 96 -102c56 0 93 41 95 102
c0 7 4 10 10 10h37c6 0 10 -4 10 -10c-3 -94 -64 -157 -152 -157zM102 264h96c60 0 96 38 96 91c0 58 -36 99 -96 99c-62 0 -96 -41 -96 -103v-87z" />
    <glyph glyph-name="emacron" unicode="&#x113;" horiz-adv-x="389" 
d="M114 634c0 6 4 10 10 10h144c6 0 10 -4 10 -10v-32c0 -6 -4 -10 -10 -10h-144c-6 0 -10 4 -10 10v32zM198 -9c-92 0 -153 63 -153 157v203c0 92 59 158 153 158c92 0 153 -66 153 -154c0 -83 -61 -146 -153 -146h-96v-61c0 -60 36 -102 96 -102c56 0 93 41 95 102
c0 7 4 10 10 10h37c6 0 10 -4 10 -10c-3 -94 -64 -157 -152 -157zM102 264h96c60 0 96 38 96 91c0 58 -36 99 -96 99c-62 0 -96 -41 -96 -103v-87z" />
    <glyph glyph-name="eogonek" unicode="&#x119;" horiz-adv-x="389" 
d="M295 -201c-59 -12 -121 22 -121 80c0 38 19 82 48 113c-9 -2 -19 -2 -24 -2c-92 0 -153 67 -153 157v207c0 90 60 156 149 156c92 0 151 -63 151 -152c0 -87 -66 -148 -154 -148h-89v-63c0 -60 36 -102 96 -102s96 42 96 105c0 8 4 10 10 10h37c6 0 10 -4 10 -10
c0 -52 -19 -94 -49 -123c-44 -42 -69 -99 -69 -130c0 -34 22 -44 60 -42c7 0 11 -4 11 -10v-36c0 -6 -4 -9 -9 -10zM102 265h89c57 0 97 36 97 93c0 59 -34 97 -94 97c-57 0 -92 -41 -92 -101v-89z" />
    <glyph glyph-name="f" unicode="f" horiz-adv-x="292" 
d="M259 500c6 0 10 -4 10 -10v-34c0 -6 -4 -10 -10 -10h-115v-436c0 -6 -4 -10 -10 -10h-37c-6 0 -10 4 -10 10v436h-62c-6 0 -10 4 -10 10v34c0 6 4 10 10 10h62v32c0 107 68 171 159 171c6 0 10 -4 10 -10v-34c0 -6 -4 -10 -10 -10c-61 0 -102 -37 -102 -117v-32h115z" />
    <glyph glyph-name="g" unicode="g" horiz-adv-x="406" 
d="M198 510c92 0 153 -67 153 -157v-406c0 -94 -61 -157 -153 -157c-89 0 -150 63 -153 157c0 6 4 10 10 10h37c6 0 10 -3 10 -10c3 -64 39 -102 96 -102c60 0 96 38 96 102v113c-24 -30 -57 -50 -96 -50c-92 0 -153 67 -153 157v186c0 90 61 157 153 157zM198 65
c60 0 96 42 96 102v186c0 60 -36 102 -96 102s-96 -42 -96 -102v-186c0 -60 36 -102 96 -102z" />
    <glyph glyph-name="gbreve" unicode="&#x11f;" horiz-adv-x="406" 
d="M203 562c-63 0 -106 38 -111 97c0 6 4 10 10 10h33c6 0 10 -3 11 -10c3 -29 24 -46 57 -46s54 17 57 46c1 7 5 10 11 10h33c6 0 10 -3 10 -10c-5 -58 -47 -97 -111 -97zM198 510c92 0 153 -67 153 -157v-406c0 -94 -61 -157 -153 -157c-89 0 -150 63 -153 157
c0 6 4 10 10 10h37c6 0 10 -3 10 -10c3 -64 39 -102 96 -102c60 0 96 38 96 102v113c-24 -30 -57 -50 -96 -50c-92 0 -153 67 -153 157v186c0 90 61 157 153 157zM198 65c60 0 96 42 96 102v186c0 60 -36 102 -96 102s-96 -42 -96 -102v-186c0 -60 36 -102 96 -102z" />
    <glyph glyph-name="gcommaaccent" unicode="&#x123;" horiz-adv-x="409" 
d="M178 563c-6 0 -11 3 -11 10l-9 134c0 6 3 10 9 10h24c6 0 10 -3 11 -9l26 -134c1 -6 -2 -11 -9 -11h-41zM198 510c92 0 153 -67 153 -157v-406c0 -94 -61 -157 -153 -157c-89 0 -150 63 -153 157c0 6 4 10 10 10h37c6 0 10 -3 10 -10c3 -64 39 -102 96 -102
c60 0 96 38 96 102v113c-24 -30 -57 -50 -96 -50c-92 0 -153 67 -153 157v186c0 90 61 157 153 157zM198 65c60 0 96 42 96 102v186c0 60 -36 102 -96 102s-96 -42 -96 -102v-186c0 -60 36 -102 96 -102z" />
    <glyph glyph-name="gdotaccent" unicode="&#x121;" horiz-adv-x="406" 
d="M203 565c-23 0 -39 17 -39 39c0 23 16 39 39 39c22 0 39 -16 39 -39c0 -21 -17 -39 -39 -39zM198 510c92 0 153 -67 153 -157v-406c0 -94 -61 -157 -153 -157c-89 0 -150 63 -153 157c0 6 4 10 10 10h37c6 0 10 -3 10 -10c3 -64 39 -102 96 -102c60 0 96 38 96 102v113
c-24 -30 -57 -50 -96 -50c-92 0 -153 67 -153 157v186c0 90 61 157 153 157zM198 65c60 0 96 42 96 102v186c0 60 -36 102 -96 102s-96 -42 -96 -102v-186c0 -60 36 -102 96 -102z" />
    <glyph glyph-name="h" unicode="h" horiz-adv-x="424" 
d="M75 0c-6 0 -10 4 -10 10v680c0 6 4 10 10 10h37c6 0 10 -4 10 -10v-228c22 29 55 48 99 48c91 0 148 -67 148 -160v-340c0 -6 -4 -10 -10 -10h-37c-6 0 -10 4 -10 10v340c0 63 -35 105 -96 105c-56 0 -94 -42 -94 -105v-340c0 -6 -4 -10 -10 -10h-37z" />
    <glyph glyph-name="hbar" unicode="&#x127;" horiz-adv-x="464" 
d="M115 0c-6 0 -10 4 -10 10v578h-80c-6 0 -10 4 -10 10v25c0 6 4 10 10 10h80v57c0 6 4 10 10 10h37c6 0 10 -4 10 -10v-57h143c6 0 10 -4 10 -10v-25c0 -6 -4 -10 -10 -10h-143v-125c22 28 55 47 99 47c91 0 148 -67 148 -160v-340c0 -6 -4 -10 -10 -10h-37
c-6 0 -10 4 -10 10v340c0 63 -35 105 -96 105c-56 0 -94 -42 -94 -105v-340c0 -6 -4 -10 -10 -10h-37z" />
    <glyph glyph-name="i" unicode="i" horiz-adv-x="187" 
d="M93 565c-23 0 -39 17 -39 39c0 23 16 39 39 39c22 0 39 -16 39 -39c0 -21 -17 -39 -39 -39zM75 0c-6 0 -10 4 -10 10v480c0 6 4 10 10 10h37c6 0 10 -4 10 -10v-480c0 -6 -4 -10 -10 -10h-37z" />
    <glyph glyph-name="dotlessi" unicode="&#x131;" horiz-adv-x="187" 
d="M75 0c-6 0 -10 4 -10 10v480c0 6 4 10 10 10h37c6 0 10 -4 10 -10v-480c0 -6 -4 -10 -10 -10h-37z" />
    <glyph glyph-name="iacute" unicode="&#xed;" horiz-adv-x="187" 
d="M165 672c8 0 11 -6 6 -12l-69 -95c-3 -5 -8 -6 -13 -6h-33c-8 0 -11 5 -7 12l59 94c3 4 7 7 12 7h45zM75 0c-6 0 -10 4 -10 10v480c0 6 4 10 10 10h37c6 0 10 -4 10 -10v-480c0 -6 -4 -10 -10 -10h-37z" />
    <glyph glyph-name="icircumflex" unicode="&#xee;" horiz-adv-x="212" 
d="M23 559c-8 0 -11 6 -6 12l69 95c3 5 7 6 12 6h46c5 0 9 -1 12 -6l69 -95c5 -6 2 -12 -6 -12h-32c-5 0 -10 2 -13 6l-53 65l-53 -65c-3 -4 -8 -6 -13 -6h-32zM103 0c-6 0 -10 4 -10 10v480c0 6 4 10 10 10h37c6 0 10 -4 10 -10v-480c0 -6 -4 -10 -10 -10h-37z" />
    <glyph glyph-name="idieresis" unicode="&#xef;" horiz-adv-x="176" 
d="M44 570c-19 0 -33 14 -33 34s14 33 33 33c20 0 35 -13 35 -33s-15 -34 -35 -34zM134 570c-20 0 -35 14 -35 34s15 33 35 33c18 0 33 -13 33 -33s-15 -34 -33 -34zM69 0c-6 0 -10 4 -10 10v480c0 6 4 10 10 10h37c6 0 10 -4 10 -10v-480c0 -6 -4 -10 -10 -10h-37z" />
    <glyph glyph-name="i.loclTRK" horiz-adv-x="187" 
d="M93 565c-23 0 -39 17 -39 39c0 23 16 39 39 39c22 0 39 -16 39 -39c0 -21 -17 -39 -39 -39zM75 0c-6 0 -10 4 -10 10v480c0 6 4 10 10 10h37c6 0 10 -4 10 -10v-480c0 -6 -4 -10 -10 -10h-37z" />
    <glyph glyph-name="igrave" unicode="&#xec;" horiz-adv-x="187" 
d="M11 672h45c5 0 9 -3 12 -7l59 -94c4 -7 1 -12 -7 -12h-33c-5 0 -10 1 -13 6l-69 95c-5 6 -2 12 6 12zM75 0c-6 0 -10 4 -10 10v480c0 6 4 10 10 10h37c6 0 10 -4 10 -10v-480c0 -6 -4 -10 -10 -10h-37z" />
    <glyph glyph-name="imacron" unicode="&#x12b;" horiz-adv-x="154" 
d="M5 634c0 6 4 10 10 10h124c6 0 10 -4 10 -10v-32c0 -6 -4 -10 -10 -10h-124c-6 0 -10 4 -10 10v32zM58 0c-6 0 -10 4 -10 10v480c0 6 4 10 10 10h37c6 0 10 -4 10 -10v-480c0 -6 -4 -10 -10 -10h-37z" />
    <glyph glyph-name="iogonek" unicode="&#x12f;" horiz-adv-x="206" 
d="M106 565c-23 0 -39 17 -39 39c0 23 16 39 39 39c22 0 39 -16 39 -39c0 -21 -17 -39 -39 -39zM127 -201c-55 0 -97 30 -97 85c0 33 20 79 48 116v490c0 6 4 10 10 10h37c6 0 10 -4 10 -10v-483c0 -5 -2 -10 -8 -17c-32 -37 -46 -75 -46 -101c0 -28 21 -39 56 -39h4
c6 0 10 -4 10 -10v-30c0 -7 -6 -11 -24 -11z" />
    <glyph glyph-name="j" unicode="j" horiz-adv-x="242" 
d="M138 565c-23 0 -39 17 -39 39c0 23 16 39 39 39c22 0 39 -16 39 -39c0 -21 -17 -39 -39 -39zM10 -205c-6 0 -10 4 -10 10v35c0 6 3 10 10 10h1c70 2 99 40 99 105v535c0 6 4 10 10 10h37c6 0 10 -4 10 -10v-535c0 -95 -53 -159 -156 -160h-1z" />
    <glyph glyph-name="k" unicode="k" horiz-adv-x="400" 
d="M249 280c64 -18 108 -72 108 -143v-127c0 -6 -4 -10 -10 -10h-37c-6 0 -10 4 -10 10v127c0 58 -41 95 -100 95h-78v-222c0 -6 -4 -10 -10 -10h-37c-6 0 -10 4 -10 10v680c0 6 4 10 10 10h37c6 0 10 -4 10 -10v-403h68l112 206c3 5 7 7 12 7h42c7 0 12 -5 8 -12z" />
    <glyph glyph-name="kcommaaccent" unicode="&#x137;" horiz-adv-x="400" 
d="M249 280c64 -18 108 -72 108 -143v-127c0 -6 -4 -10 -10 -10h-37c-6 0 -10 4 -10 10v127c0 58 -41 95 -100 95h-78v-222c0 -6 -4 -10 -10 -10h-37c-6 0 -10 4 -10 10v680c0 6 4 10 10 10h37c6 0 10 -4 10 -10v-403h68l112 206c3 5 7 7 12 7h42c7 0 12 -5 8 -12zM194 -69
c0 7 5 10 11 10h43c7 0 10 -5 9 -11l-28 -154c-1 -6 -5 -9 -11 -9h-24c-6 0 -9 4 -9 10z" />
    <glyph glyph-name="l" unicode="l" horiz-adv-x="187" 
d="M75 0c-6 0 -10 4 -10 10v680c0 6 4 10 10 10h37c6 0 10 -4 10 -10v-680c0 -6 -4 -10 -10 -10h-37z" />
    <glyph glyph-name="lacute" unicode="&#x13a;" horiz-adv-x="211" 
d="M75 769c-8 0 -11 6 -6 12l69 91c3 5 8 6 13 6h46c8 0 11 -6 5 -12l-81 -91c-3 -4 -7 -6 -12 -6h-34zM75 0c-6 0 -10 4 -10 10v680c0 6 4 10 10 10h37c6 0 10 -4 10 -10v-680c0 -6 -4 -10 -10 -10h-37z" />
    <glyph glyph-name="lcaron" unicode="&#x13e;" horiz-adv-x="258" 
d="M187 547c-6 0 -9 4 -9 10l8 136c0 7 5 10 11 10h43c7 0 10 -5 9 -11l-25 -136c-1 -6 -5 -9 -11 -9h-26zM75 0c-6 0 -10 4 -10 10v680c0 6 4 10 10 10h37c6 0 10 -4 10 -10v-680c0 -6 -4 -10 -10 -10h-37z" />
    <glyph glyph-name="lcommaaccent" unicode="&#x13c;" horiz-adv-x="202" 
d="M83 0c-6 0 -10 4 -10 10v680c0 6 4 10 10 10h37c6 0 10 -4 10 -10v-680c0 -6 -4 -10 -10 -10h-37zM74 -69c0 7 5 10 11 10h43c7 0 10 -5 9 -11l-28 -154c-1 -6 -5 -9 -11 -9h-24c-6 0 -9 4 -9 10z" />
    <glyph glyph-name="lslash" unicode="&#x142;" horiz-adv-x="202" 
d="M180 463c7 3 12 0 12 -7v-36c0 -5 -3 -9 -8 -11l-53 -21v-378c0 -6 -4 -10 -10 -10h-37c-6 0 -10 4 -10 10v356l-52 -21c-7 -3 -12 0 -12 7v36c0 5 3 9 8 11l56 22v269c0 6 4 10 10 10h37c6 0 10 -4 10 -10v-246z" />
    <glyph glyph-name="m" unicode="m" horiz-adv-x="625" 
d="M427 510c87 0 143 -67 143 -157v-343c0 -6 -4 -10 -10 -10h-37c-6 0 -10 4 -10 10v343c0 60 -31 102 -86 102s-86 -42 -86 -102v-343c0 -6 -4 -10 -10 -10h-37c-6 0 -10 4 -10 10v343c0 60 -31 102 -86 102s-86 -42 -86 -102v-343c0 -6 -4 -10 -10 -10h-37
c-6 0 -10 4 -10 10v343c0 90 56 157 143 157c52 0 93 -31 115 -75c21 44 62 75 114 75z" />
    <glyph glyph-name="n" unicode="n" horiz-adv-x="408" 
d="M65 0c-6 0 -10 4 -10 10v343c0 90 60 157 149 157s149 -67 149 -157v-343c0 -6 -4 -10 -10 -10h-37c-6 0 -10 4 -10 10v343c0 61 -35 103 -92 103s-92 -42 -92 -103v-343c0 -6 -4 -10 -10 -10h-37z" />
    <glyph glyph-name="nacute" unicode="&#x144;" horiz-adv-x="408" 
d="M276 672c8 0 11 -6 6 -12l-69 -95c-3 -5 -8 -6 -13 -6h-33c-8 0 -11 5 -7 12l59 94c3 4 7 7 12 7h45zM65 0c-6 0 -10 4 -10 10v343c0 90 60 157 149 157s149 -67 149 -157v-343c0 -6 -4 -10 -10 -10h-37c-6 0 -10 4 -10 10v343c0 61 -35 103 -92 103s-92 -42 -92 -103
v-343c0 -6 -4 -10 -10 -10h-37z" />
    <glyph glyph-name="ncaron" unicode="&#x148;" horiz-adv-x="408" 
d="M106 672h32c5 0 10 -2 13 -6l53 -65l53 65c3 4 8 6 13 6h32c8 0 11 -6 6 -12l-69 -95c-3 -5 -7 -6 -12 -6h-46c-5 0 -9 1 -12 6l-69 95c-5 6 -2 12 6 12zM65 0c-6 0 -10 4 -10 10v343c0 90 60 157 149 157s149 -67 149 -157v-343c0 -6 -4 -10 -10 -10h-37
c-6 0 -10 4 -10 10v343c0 61 -35 103 -92 103s-92 -42 -92 -103v-343c0 -6 -4 -10 -10 -10h-37z" />
    <glyph glyph-name="ncommaaccent" unicode="&#x146;" horiz-adv-x="408" 
d="M65 0c-6 0 -10 4 -10 10v343c0 90 60 157 149 157s149 -67 149 -157v-343c0 -6 -4 -10 -10 -10h-37c-6 0 -10 4 -10 10v343c0 61 -35 103 -92 103s-92 -42 -92 -103v-343c0 -6 -4 -10 -10 -10h-37zM178 -69c0 7 5 10 11 10h43c7 0 10 -5 9 -11l-28 -154
c-1 -6 -5 -9 -11 -9h-24c-6 0 -9 4 -9 10z" />
    <glyph glyph-name="eng" unicode="&#x14b;" horiz-adv-x="408" 
d="M207 -209c-6 0 -11 5 -11 11v34c0 5 4 10 10 10c54 2 90 45 90 105v402c0 61 -35 103 -92 103s-92 -42 -92 -103v-343c0 -6 -4 -10 -10 -10h-37c-6 0 -10 4 -10 10v343c0 90 60 157 149 157s149 -67 149 -157v-402c0 -90 -59 -158 -146 -160z" />
    <glyph glyph-name="ntilde" unicode="&#xf1;" horiz-adv-x="408" 
d="M165 608c-11 0 -17 -7 -19 -21c-1 -7 -5 -10 -11 -10h-31c-6 0 -10 4 -10 10c4 43 30 70 66 70c39 0 57 -32 78 -32c11 0 17 7 19 21c1 7 5 10 11 10h31c6 0 10 -4 10 -10c-4 -43 -31 -70 -66 -70c-38 0 -56 32 -78 32zM65 0c-6 0 -10 4 -10 10v343c0 90 60 157 149 157
s149 -67 149 -157v-343c0 -6 -4 -10 -10 -10h-37c-6 0 -10 4 -10 10v343c0 61 -35 103 -92 103s-92 -42 -92 -103v-343c0 -6 -4 -10 -10 -10h-37z" />
    <glyph glyph-name="o" unicode="o" horiz-adv-x="398" 
d="M199 -10c-93 0 -154 67 -154 157v206c0 90 61 157 154 157s154 -67 154 -157v-206c0 -90 -61 -157 -154 -157zM199 44c60 0 96 42 96 103v206c0 61 -36 103 -96 103s-96 -42 -96 -103v-206c0 -61 36 -103 96 -103z" />
    <glyph glyph-name="oacute" unicode="&#xf3;" horiz-adv-x="398" 
d="M271 672c8 0 11 -6 6 -12l-69 -95c-3 -5 -8 -6 -13 -6h-33c-8 0 -11 5 -7 12l59 94c3 4 7 7 12 7h45zM199 -10c-93 0 -154 67 -154 157v206c0 90 61 157 154 157s154 -67 154 -157v-206c0 -90 -61 -157 -154 -157zM199 44c60 0 96 42 96 103v206c0 61 -36 103 -96 103
s-96 -42 -96 -103v-206c0 -61 36 -103 96 -103z" />
    <glyph glyph-name="ocircumflex" unicode="&#xf4;" horiz-adv-x="398" 
d="M101 559c-8 0 -11 6 -6 12l69 95c3 5 7 6 12 6h46c5 0 9 -1 12 -6l69 -95c5 -6 2 -12 -6 -12h-32c-5 0 -10 2 -13 6l-53 65l-53 -65c-3 -4 -8 -6 -13 -6h-32zM199 -10c-93 0 -154 67 -154 157v206c0 90 61 157 154 157s154 -67 154 -157v-206c0 -90 -61 -157 -154 -157z
M199 44c60 0 96 42 96 103v206c0 61 -36 103 -96 103s-96 -42 -96 -103v-206c0 -61 36 -103 96 -103z" />
    <glyph glyph-name="odieresis" unicode="&#xf6;" horiz-adv-x="398" 
d="M149 568c-22 0 -37 15 -37 37s15 37 37 37s37 -15 37 -37s-15 -37 -37 -37zM249 568c-22 0 -37 15 -37 37s15 37 37 37s37 -15 37 -37s-15 -37 -37 -37zM199 -10c-93 0 -154 67 -154 157v206c0 90 61 157 154 157s154 -67 154 -157v-206c0 -90 -61 -157 -154 -157z
M199 44c60 0 96 42 96 103v206c0 61 -36 103 -96 103s-96 -42 -96 -103v-206c0 -61 36 -103 96 -103z" />
    <glyph glyph-name="ograve" unicode="&#xf2;" horiz-adv-x="398" 
d="M117 672h45c5 0 9 -3 12 -7l59 -94c4 -7 1 -12 -7 -12h-33c-5 0 -10 1 -13 6l-69 95c-5 6 -2 12 6 12zM199 -10c-93 0 -154 67 -154 157v206c0 90 61 157 154 157s154 -67 154 -157v-206c0 -90 -61 -157 -154 -157zM199 44c60 0 96 42 96 103v206c0 61 -36 103 -96 103
s-96 -42 -96 -103v-206c0 -61 36 -103 96 -103z" />
    <glyph glyph-name="ohungarumlaut" unicode="&#x151;" horiz-adv-x="398" 
d="M234 672c8 0 11 -6 6 -12l-69 -95c-3 -5 -8 -6 -13 -6h-28c-8 0 -11 5 -7 12l59 94c3 4 7 7 12 7h40zM329 672c8 0 11 -6 6 -12l-69 -95c-3 -5 -8 -6 -13 -6h-28c-8 0 -11 5 -7 12l59 94c3 4 7 7 12 7h40zM199 -10c-93 0 -154 67 -154 157v206c0 90 61 157 154 157
s154 -67 154 -157v-206c0 -90 -61 -157 -154 -157zM199 44c60 0 96 42 96 103v206c0 61 -36 103 -96 103s-96 -42 -96 -103v-206c0 -61 36 -103 96 -103z" />
    <glyph glyph-name="omacron" unicode="&#x14d;" horiz-adv-x="398" 
d="M117 634c0 6 4 10 10 10h144c6 0 10 -4 10 -10v-32c0 -6 -4 -10 -10 -10h-144c-6 0 -10 4 -10 10v32zM199 -10c-93 0 -154 67 -154 157v206c0 90 61 157 154 157s154 -67 154 -157v-206c0 -90 -61 -157 -154 -157zM199 44c60 0 96 42 96 103v206c0 61 -36 103 -96 103
s-96 -42 -96 -103v-206c0 -61 36 -103 96 -103z" />
    <glyph glyph-name="oslash" unicode="&#xf8;" horiz-adv-x="398" 
d="M285 487c43 -28 68 -76 68 -134v-206c0 -90 -61 -157 -154 -157c-18 0 -35 3 -50 7l-10 -34c-1 -5 -5 -8 -11 -8h-33c-7 0 -11 4 -9 11l16 56c-36 28 -57 73 -57 125v206c0 90 61 157 154 157c13 0 26 -1 37 -4l9 31c1 5 5 8 11 8h33c7 0 11 -4 9 -11zM103 147
c0 -24 6 -45 16 -62l103 369c-7 1 -15 2 -23 2c-60 0 -96 -42 -96 -103v-206zM295 147v206c0 31 -9 57 -26 75l-106 -378c11 -4 23 -6 36 -6c60 0 96 42 96 103z" />
    <glyph glyph-name="otilde" unicode="&#xf5;" horiz-adv-x="398" 
d="M160 608c-11 0 -17 -7 -19 -21c-1 -7 -5 -10 -11 -10h-31c-6 0 -10 4 -10 10c4 43 30 70 66 70c39 0 57 -32 78 -32c11 0 17 7 19 21c1 7 5 10 11 10h31c6 0 10 -4 10 -10c-4 -43 -31 -70 -66 -70c-38 0 -56 32 -78 32zM199 -10c-93 0 -154 67 -154 157v206
c0 90 61 157 154 157s154 -67 154 -157v-206c0 -90 -61 -157 -154 -157zM199 44c60 0 96 42 96 103v206c0 61 -36 103 -96 103s-96 -42 -96 -103v-206c0 -61 36 -103 96 -103z" />
    <glyph glyph-name="oe" unicode="&#x153;" horiz-adv-x="614" 
d="M192 -10c-88 0 -147 67 -147 157v206c0 90 59 157 147 157c58 0 95 -27 118 -69c24 42 59 69 116 69c86 0 144 -63 144 -152c0 -87 -65 -148 -147 -148h-84v-63c0 -60 34 -102 90 -102c53 0 86 37 90 92c0 7 4 10 10 10h37c6 0 10 -4 10 -10c-5 -85 -62 -147 -147 -147
c-57 0 -94 34 -118 77c-25 -43 -62 -77 -119 -77zM192 45c56 0 90 42 90 102v206c0 60 -34 102 -90 102s-90 -42 -90 -102v-206c0 -60 34 -102 90 -102zM339 265h84c51 0 90 36 90 93c0 59 -33 97 -87 97s-87 -41 -87 -101v-89z" />
    <glyph glyph-name="p" unicode="p" horiz-adv-x="406" 
d="M208 510c92 0 153 -67 153 -157v-206c0 -90 -61 -157 -144 -157c-48 0 -81 20 -105 50v-230c0 -6 -4 -10 -10 -10h-37c-6 0 -10 4 -10 10v543c0 90 61 157 153 157zM304 147v206c0 60 -36 102 -96 102s-96 -42 -96 -102v-206c0 -60 36 -102 96 -102s96 42 96 102z" />
    <glyph glyph-name="thorn" unicode="&#xfe;" horiz-adv-x="410" 
d="M75 -200c-6 0 -10 4 -10 10v880c0 6 4 10 10 10h37c6 0 10 -4 10 -10v-229c23 30 56 49 93 49c90 0 150 -67 150 -157v-206c0 -90 -60 -157 -150 -157c-37 0 -70 19 -93 49v-229c0 -6 -4 -10 -10 -10h-37zM215 45c58 0 93 42 93 102v206c0 60 -35 102 -93 102
s-93 -42 -93 -102v-206c0 -60 35 -102 93 -102z" />
    <glyph glyph-name="q" unicode="q" horiz-adv-x="406" 
d="M198 510c92 0 153 -67 153 -157v-543c0 -6 -4 -10 -10 -10h-37c-6 0 -10 4 -10 10v230c-24 -30 -57 -50 -105 -50c-83 0 -144 67 -144 157v206c0 90 61 157 153 157zM198 45c60 0 96 42 96 102v206c0 60 -36 102 -96 102s-96 -42 -96 -102v-206c0 -60 36 -102 96 -102z
" />
    <glyph glyph-name="r" unicode="r" horiz-adv-x="281" 
d="M65 0c-6 0 -10 4 -10 10v339c0 92 67 154 157 154h44c6 0 10 -4 10 -10v-35c0 -6 -4 -10 -10 -10h-44c-59 0 -100 -37 -100 -99v-339c0 -6 -4 -10 -10 -10h-37z" />
    <glyph glyph-name="racute" unicode="&#x155;" horiz-adv-x="281" 
d="M248 672c8 0 11 -6 6 -12l-69 -95c-3 -5 -8 -6 -13 -6h-33c-8 0 -11 5 -7 12l59 94c3 4 7 7 12 7h45zM65 0c-6 0 -10 4 -10 10v339c0 92 67 154 157 154h44c6 0 10 -4 10 -10v-35c0 -6 -4 -10 -10 -10h-44c-59 0 -100 -37 -100 -99v-339c0 -6 -4 -10 -10 -10h-37z" />
    <glyph glyph-name="rcaron" unicode="&#x159;" horiz-adv-x="281" 
d="M78 672h32c5 0 10 -2 13 -6l53 -65l53 65c3 4 8 6 13 6h32c8 0 11 -6 6 -12l-69 -95c-3 -5 -7 -6 -12 -6h-46c-5 0 -9 1 -12 6l-69 95c-5 6 -2 12 6 12zM65 0c-6 0 -10 4 -10 10v339c0 92 67 154 157 154h44c6 0 10 -4 10 -10v-35c0 -6 -4 -10 -10 -10h-44
c-59 0 -100 -37 -100 -99v-339c0 -6 -4 -10 -10 -10h-37z" />
    <glyph glyph-name="rcommaaccent" unicode="&#x157;" horiz-adv-x="281" 
d="M65 0c-6 0 -10 4 -10 10v339c0 92 67 154 157 154h44c6 0 10 -4 10 -10v-35c0 -6 -4 -10 -10 -10h-44c-59 0 -100 -37 -100 -99v-339c0 -6 -4 -10 -10 -10h-37zM60 -69c0 7 5 10 11 10h43c7 0 10 -5 9 -11l-28 -154c-1 -6 -5 -9 -11 -9h-24c-6 0 -9 4 -9 10z" />
    <glyph glyph-name="s" unicode="s" horiz-adv-x="383" 
d="M198 -10c-96 0 -156 62 -160 157c0 6 4 10 10 10h37c6 0 10 -3 10 -10c3 -68 37 -102 103 -102c60 0 90 33 90 80c0 121 -245 83 -245 250c0 73 57 135 144 135c98 0 147 -58 151 -147c0 -6 -4 -10 -10 -10h-37c-6 0 -10 3 -10 10c-3 53 -33 92 -91 92
c-54 0 -90 -33 -90 -80c0 -116 245 -78 245 -250c0 -73 -58 -135 -147 -135z" />
    <glyph glyph-name="sacute" unicode="&#x15b;" horiz-adv-x="383" 
d="M265 672c8 0 11 -6 6 -12l-69 -95c-3 -5 -8 -6 -13 -6h-33c-8 0 -11 5 -7 12l59 94c3 4 7 7 12 7h45zM198 -10c-96 0 -156 62 -160 157c0 6 4 10 10 10h37c6 0 10 -3 10 -10c3 -68 37 -102 103 -102c60 0 90 33 90 80c0 121 -245 83 -245 250c0 73 57 135 144 135
c98 0 147 -58 151 -147c0 -6 -4 -10 -10 -10h-37c-6 0 -10 3 -10 10c-3 53 -33 92 -91 92c-54 0 -90 -33 -90 -80c0 -116 245 -78 245 -250c0 -73 -58 -135 -147 -135z" />
    <glyph glyph-name="scaron" unicode="&#x161;" horiz-adv-x="383" 
d="M95 672h32c5 0 10 -2 13 -6l53 -65l53 65c3 4 8 6 13 6h32c8 0 11 -6 6 -12l-69 -95c-3 -5 -7 -6 -12 -6h-46c-5 0 -9 1 -12 6l-69 95c-5 6 -2 12 6 12zM198 -10c-96 0 -156 62 -160 157c0 6 4 10 10 10h37c6 0 10 -3 10 -10c3 -68 37 -102 103 -102c60 0 90 33 90 80
c0 121 -245 83 -245 250c0 73 57 135 144 135c98 0 147 -58 151 -147c0 -6 -4 -10 -10 -10h-37c-6 0 -10 3 -10 10c-3 53 -33 92 -91 92c-54 0 -90 -33 -90 -80c0 -116 245 -78 245 -250c0 -73 -58 -135 -147 -135z" />
    <glyph glyph-name="scedilla" unicode="&#x15f;" horiz-adv-x="383" 
d="M345 125c0 -68 -50 -126 -129 -134l-6 -35h6c42 -3 76 -33 76 -75c0 -51 -38 -81 -89 -81c-47 0 -84 26 -88 71c-1 6 3 10 9 10h28c6 0 9 -3 10 -9c4 -19 20 -29 41 -29c24 0 42 14 42 38c0 20 -17 34 -40 34c-13 0 -25 -2 -35 -5c-3 -1 -6 0 -8 2l-2 2c-2 2 -4 4 -3 8
l13 70c-79 11 -128 69 -132 155c0 6 4 10 10 10h37c6 0 10 -3 10 -10c3 -68 37 -102 103 -102c60 0 90 33 90 80c0 121 -245 83 -245 250c0 73 57 135 144 135c98 0 147 -58 151 -147c0 -6 -4 -10 -10 -10h-37c-6 0 -10 3 -10 10c-3 53 -33 92 -91 92c-54 0 -90 -33 -90 -80
c0 -116 245 -78 245 -250z" />
    <glyph glyph-name="scommaaccent" unicode="&#x219;" horiz-adv-x="383" 
d="M198 -10c-96 0 -156 62 -160 157c0 6 4 10 10 10h37c6 0 10 -3 10 -10c3 -68 37 -102 103 -102c60 0 90 33 90 80c0 121 -245 83 -245 250c0 73 57 135 144 135c98 0 147 -58 151 -147c0 -6 -4 -10 -10 -10h-37c-6 0 -10 3 -10 10c-3 53 -33 92 -91 92
c-54 0 -90 -33 -90 -80c0 -116 245 -78 245 -250c0 -73 -58 -135 -147 -135zM178 -69c0 7 5 10 11 10h43c7 0 10 -5 9 -11l-28 -154c-1 -6 -5 -9 -11 -9h-24c-6 0 -9 4 -9 10z" />
    <glyph glyph-name="germandbls" unicode="&#xdf;" horiz-adv-x="406" 
d="M72 0c-6 0 -10 4 -10 10l1 551c0 86 62 149 140 149s143 -63 143 -149l-1 -81c0 -43 -30 -78 -65 -104c48 -25 89 -73 89 -131v-90c0 -85 -68 -155 -153 -155h-53c-6 0 -10 4 -10 10v35c0 6 4 10 10 10h53c52 0 95 44 95 100v90c0 55 -43 98 -95 98h-53
c-6 0 -10 4 -10 10v35c0 6 4 10 10 10h37c49 0 88 37 88 82l1 81c0 56 -39 94 -86 94c-46 0 -83 -38 -83 -94l-1 -551c0 -7 -4 -10 -10 -10h-37z" />
    <glyph glyph-name="t" unicode="t" horiz-adv-x="274" 
d="M241 53c7 0 10 -4 10 -10v-35c0 -6 -4 -10 -10 -10h-13c-89 0 -141 62 -141 168v280h-62c-6 0 -10 4 -10 10v34c0 6 4 10 10 10h62v130c0 6 4 10 10 10h37c6 0 10 -4 10 -10v-130h85c6 0 10 -4 10 -10v-34c0 -6 -4 -10 -10 -10h-85v-280c0 -74 29 -113 84 -113h13z" />
    <glyph glyph-name="tbar" unicode="&#x167;" horiz-adv-x="274" 
d="M241 50c7 0 10 -4 10 -10v-35c0 -6 -4 -10 -10 -10h-9c-88 0 -145 62 -145 168v117h-52c-6 0 -10 4 -10 10v25c0 6 4 10 10 10h52v121h-62c-6 0 -10 4 -10 10v34c0 6 4 10 10 10h62v130c0 6 4 10 10 10h37c6 0 10 -4 10 -10v-130h85c6 0 10 -4 10 -10v-34
c0 -6 -4 -10 -10 -10h-85v-121h75c6 0 10 -4 10 -10v-25c0 -6 -4 -10 -10 -10h-75v-117c0 -75 32 -113 88 -113h9z" />
    <glyph glyph-name="tcaron" unicode="&#x165;" horiz-adv-x="274" 
d="M183 536c-6 0 -9 4 -9 10l9 136c0 7 5 10 11 10h39c7 0 10 -5 9 -11l-26 -136c-1 -6 -5 -9 -11 -9h-22zM241 53c7 0 10 -4 10 -10v-35c0 -6 -4 -10 -10 -10h-13c-89 0 -141 62 -141 168v280h-62c-6 0 -10 4 -10 10v34c0 6 4 10 10 10h62v130c0 6 4 10 10 10h37
c6 0 10 -4 10 -10v-130h85c6 0 10 -4 10 -10v-34c0 -6 -4 -10 -10 -10h-85v-280c0 -74 29 -113 84 -113h13z" />
    <glyph glyph-name="uni0163" unicode="&#x163;" horiz-adv-x="274" 
d="M241 53c7 0 10 -4 10 -10v-35c0 -6 -4 -10 -10 -10h-13c-89 0 -141 62 -141 168v280h-62c-6 0 -10 4 -10 10v34c0 6 4 10 10 10h62v130c0 6 4 10 10 10h37c6 0 10 -4 10 -10v-130h85c6 0 10 -4 10 -10v-34c0 -6 -4 -10 -10 -10h-85v-280c0 -74 29 -113 84 -113h13z
M177 -59c7 0 10 -5 9 -11l-28 -154c-1 -6 -5 -9 -11 -9h-24c-6 0 -9 4 -9 10l9 154c0 7 5 10 11 10h43z" />
    <glyph glyph-name="uni021B" unicode="&#x21b;" horiz-adv-x="274" 
d="M241 53c7 0 10 -4 10 -10v-35c0 -6 -4 -10 -10 -10h-13c-89 0 -141 62 -141 168v280h-62c-6 0 -10 4 -10 10v34c0 6 4 10 10 10h62v130c0 6 4 10 10 10h37c6 0 10 -4 10 -10v-130h85c6 0 10 -4 10 -10v-34c0 -6 -4 -10 -10 -10h-85v-280c0 -74 29 -113 84 -113h13z
M177 -59c7 0 10 -5 9 -11l-28 -154c-1 -6 -5 -9 -11 -9h-24c-6 0 -9 4 -9 10l9 154c0 7 5 10 11 10h43z" />
    <glyph glyph-name="u" unicode="u" horiz-adv-x="408" 
d="M65 500h37c6 0 10 -4 10 -10v-343c0 -61 35 -103 92 -103s92 42 92 103v343c0 6 4 10 10 10h37c6 0 10 -4 10 -10v-343c0 -90 -60 -157 -149 -157s-149 67 -149 157v343c0 6 4 10 10 10z" />
    <glyph glyph-name="uacute" unicode="&#xfa;" horiz-adv-x="408" 
d="M274 672c8 0 11 -6 6 -12l-69 -95c-3 -5 -8 -6 -13 -6h-33c-8 0 -11 5 -7 12l59 94c3 4 7 7 12 7h45zM65 500h37c6 0 10 -4 10 -10v-343c0 -61 35 -103 92 -103s92 42 92 103v343c0 6 4 10 10 10h37c6 0 10 -4 10 -10v-343c0 -90 -60 -157 -149 -157s-149 67 -149 157
v343c0 6 4 10 10 10z" />
    <glyph glyph-name="ucircumflex" unicode="&#xfb;" horiz-adv-x="408" 
d="M104 559c-8 0 -11 6 -6 12l69 95c3 5 7 6 12 6h46c5 0 9 -1 12 -6l69 -95c5 -6 2 -12 -6 -12h-32c-5 0 -10 2 -13 6l-53 65l-53 -65c-3 -4 -8 -6 -13 -6h-32zM65 500h37c6 0 10 -4 10 -10v-343c0 -61 35 -103 92 -103s92 42 92 103v343c0 6 4 10 10 10h37
c6 0 10 -4 10 -10v-343c0 -90 -60 -157 -149 -157s-149 67 -149 157v343c0 6 4 10 10 10z" />
    <glyph glyph-name="udieresis" unicode="&#xfc;" horiz-adv-x="408" 
d="M152 568c-22 0 -37 15 -37 37s15 37 37 37s37 -15 37 -37s-15 -37 -37 -37zM252 568c-22 0 -37 15 -37 37s15 37 37 37s37 -15 37 -37s-15 -37 -37 -37zM65 500h37c6 0 10 -4 10 -10v-343c0 -61 35 -103 92 -103s92 42 92 103v343c0 6 4 10 10 10h37c6 0 10 -4 10 -10
v-343c0 -90 -60 -157 -149 -157s-149 67 -149 157v343c0 6 4 10 10 10z" />
    <glyph glyph-name="ugrave" unicode="&#xf9;" horiz-adv-x="408" 
d="M120 672h45c5 0 9 -3 12 -7l59 -94c4 -7 1 -12 -7 -12h-33c-5 0 -10 1 -13 6l-69 95c-5 6 -2 12 6 12zM65 500h37c6 0 10 -4 10 -10v-343c0 -61 35 -103 92 -103s92 42 92 103v343c0 6 4 10 10 10h37c6 0 10 -4 10 -10v-343c0 -90 -60 -157 -149 -157s-149 67 -149 157
v343c0 6 4 10 10 10z" />
    <glyph glyph-name="uhungarumlaut" unicode="&#x171;" horiz-adv-x="408" 
d="M237 672c8 0 11 -6 6 -12l-69 -95c-3 -5 -8 -6 -13 -6h-28c-8 0 -11 5 -7 12l59 94c3 4 7 7 12 7h40zM332 672c8 0 11 -6 6 -12l-69 -95c-3 -5 -8 -6 -13 -6h-28c-8 0 -11 5 -7 12l59 94c3 4 7 7 12 7h40zM65 500h37c6 0 10 -4 10 -10v-343c0 -61 35 -103 92 -103
s92 42 92 103v343c0 6 4 10 10 10h37c6 0 10 -4 10 -10v-343c0 -90 -60 -157 -149 -157s-149 67 -149 157v343c0 6 4 10 10 10z" />
    <glyph glyph-name="umacron" unicode="&#x16b;" horiz-adv-x="408" 
d="M120 634c0 6 4 10 10 10h144c6 0 10 -4 10 -10v-32c0 -6 -4 -10 -10 -10h-144c-6 0 -10 4 -10 10v32zM65 500h37c6 0 10 -4 10 -10v-343c0 -61 35 -103 92 -103s92 42 92 103v343c0 6 4 10 10 10h37c6 0 10 -4 10 -10v-343c0 -90 -60 -157 -149 -157s-149 67 -149 157
v343c0 6 4 10 10 10z" />
    <glyph glyph-name="uogonek" unicode="&#x173;" horiz-adv-x="410" 
d="M345 500c6 0 10 -4 10 -10v-350c0 -37 -15 -76 -35 -97c-45 -47 -80 -109 -80 -146c0 -31 23 -44 60 -43c7 1 11 -3 11 -9v-36c0 -6 -3 -10 -9 -10c-66 -7 -121 22 -121 80c0 32 24 77 51 113c-1 0 -18 -2 -27 -2c-83 0 -150 67 -150 150v350c0 6 4 10 10 10h37
c6 0 10 -4 10 -10v-350c0 -53 41 -95 93 -95s93 42 93 95v350c0 6 4 10 10 10h37z" />
    <glyph glyph-name="uring" unicode="&#x16f;" horiz-adv-x="408" 
d="M134 616c0 39 27 65 68 65s68 -26 68 -65c0 -40 -27 -67 -68 -67s-68 27 -68 67zM173 615c0 -18 11 -29 29 -29c17 0 29 11 29 29c0 17 -12 29 -29 29c-18 0 -29 -12 -29 -29zM65 500h37c6 0 10 -4 10 -10v-343c0 -61 35 -103 92 -103s92 42 92 103v343c0 6 4 10 10 10
h37c6 0 10 -4 10 -10v-343c0 -90 -60 -157 -149 -157s-149 67 -149 157v343c0 6 4 10 10 10z" />
    <glyph glyph-name="v" unicode="v" horiz-adv-x="360" 
d="M289 491c1 6 5 9 11 9h39c7 0 10 -4 8 -11l-120 -466c-4 -17 -16 -26 -34 -26h-26c-18 0 -30 9 -34 26l-120 466c-2 7 1 11 8 11h39c6 0 10 -3 11 -9l109 -441z" />
    <glyph glyph-name="w" unicode="w" horiz-adv-x="625" 
d="M427 -10c-52 0 -93 31 -114 75c-22 -44 -63 -75 -115 -75c-87 0 -143 67 -143 157v343c0 6 4 10 10 10h37c6 0 10 -4 10 -10v-343c0 -60 31 -102 86 -102s86 42 86 102v343c0 6 4 10 10 10h37c6 0 10 -4 10 -10v-343c0 -60 31 -102 86 -102s86 42 86 102v343
c0 6 4 10 10 10h37c6 0 10 -4 10 -10v-343c0 -90 -56 -157 -143 -157z" />
    <glyph glyph-name="wacute" unicode="&#x1e83;" horiz-adv-x="625" 
d="M377 672c8 0 11 -6 6 -12l-69 -95c-3 -5 -8 -6 -13 -6h-33c-8 0 -11 5 -7 12l59 94c3 4 7 7 12 7h45zM427 -10c-52 0 -93 31 -114 75c-22 -44 -63 -75 -115 -75c-87 0 -143 67 -143 157v343c0 6 4 10 10 10h37c6 0 10 -4 10 -10v-343c0 -60 31 -102 86 -102s86 42 86 102
v343c0 6 4 10 10 10h37c6 0 10 -4 10 -10v-343c0 -60 31 -102 86 -102s86 42 86 102v343c0 6 4 10 10 10h37c6 0 10 -4 10 -10v-343c0 -90 -56 -157 -143 -157z" />
    <glyph glyph-name="wcircumflex" unicode="&#x175;" horiz-adv-x="625" 
d="M207 559c-8 0 -11 6 -6 12l69 95c3 5 7 6 12 6h46c5 0 9 -1 12 -6l69 -95c5 -6 2 -12 -6 -12h-32c-5 0 -10 2 -13 6l-53 65l-53 -65c-3 -4 -8 -6 -13 -6h-32zM427 -10c-52 0 -93 31 -114 75c-22 -44 -63 -75 -115 -75c-87 0 -143 67 -143 157v343c0 6 4 10 10 10h37
c6 0 10 -4 10 -10v-343c0 -60 31 -102 86 -102s86 42 86 102v343c0 6 4 10 10 10h37c6 0 10 -4 10 -10v-343c0 -60 31 -102 86 -102s86 42 86 102v343c0 6 4 10 10 10h37c6 0 10 -4 10 -10v-343c0 -90 -56 -157 -143 -157z" />
    <glyph glyph-name="wdieresis" unicode="&#x1e85;" horiz-adv-x="625" 
d="M255 568c-22 0 -37 15 -37 37s15 37 37 37s37 -15 37 -37s-15 -37 -37 -37zM355 568c-22 0 -37 15 -37 37s15 37 37 37s37 -15 37 -37s-15 -37 -37 -37zM427 -10c-52 0 -93 31 -114 75c-22 -44 -63 -75 -115 -75c-87 0 -143 67 -143 157v343c0 6 4 10 10 10h37
c6 0 10 -4 10 -10v-343c0 -60 31 -102 86 -102s86 42 86 102v343c0 6 4 10 10 10h37c6 0 10 -4 10 -10v-343c0 -60 31 -102 86 -102s86 42 86 102v343c0 6 4 10 10 10h37c6 0 10 -4 10 -10v-343c0 -90 -56 -157 -143 -157z" />
    <glyph glyph-name="wgrave" unicode="&#x1e81;" horiz-adv-x="625" 
d="M223 672h45c5 0 9 -3 12 -7l59 -94c4 -7 1 -12 -7 -12h-33c-5 0 -10 1 -13 6l-69 95c-5 6 -2 12 6 12zM427 -10c-52 0 -93 31 -114 75c-22 -44 -63 -75 -115 -75c-87 0 -143 67 -143 157v343c0 6 4 10 10 10h37c6 0 10 -4 10 -10v-343c0 -60 31 -102 86 -102
s86 42 86 102v343c0 6 4 10 10 10h37c6 0 10 -4 10 -10v-343c0 -60 31 -102 86 -102s86 42 86 102v343c0 6 4 10 10 10h37c6 0 10 -4 10 -10v-343c0 -90 -56 -157 -143 -157z" />
    <glyph glyph-name="x" unicode="x" horiz-adv-x="388" 
d="M55 0c-6 0 -10 4 -10 10v111c0 57 28 103 74 130c-46 26 -74 72 -74 129v110c0 6 4 10 10 10h37c6 0 10 -4 10 -10v-110c0 -60 35 -102 92 -102s92 42 92 102v110c0 6 4 10 10 10h37c6 0 10 -4 10 -10v-110c0 -57 -28 -103 -74 -129c46 -27 74 -73 74 -130v-111
c0 -6 -4 -10 -10 -10h-37c-6 0 -10 4 -10 10v111c0 60 -35 102 -92 102s-92 -42 -92 -102v-111c0 -6 -4 -10 -10 -10h-37z" />
    <glyph glyph-name="y" unicode="y" horiz-adv-x="424" 
d="M349 500c6 0 10 -4 10 -10v-543c0 -94 -61 -157 -152 -157c-87 0 -148 63 -152 157c0 6 4 10 10 10h37c6 0 10 -3 10 -10c2 -64 37 -102 95 -102c60 0 95 38 95 102v114c-24 -31 -57 -51 -95 -51c-91 0 -152 67 -152 157v323c0 6 4 10 10 10h37c6 0 10 -4 10 -10v-323
c0 -60 36 -102 95 -102s95 42 95 102v323c0 6 4 10 10 10h37z" />
    <glyph glyph-name="yacute" unicode="&#xfd;" horiz-adv-x="424" 
d="M173 559c-8 0 -11 5 -7 12l59 94c3 4 7 7 12 7h45c8 0 11 -6 6 -12l-69 -95c-3 -5 -8 -6 -13 -6h-33zM349 500c6 0 10 -4 10 -10v-543c0 -94 -61 -157 -152 -157c-87 0 -148 63 -152 157c0 6 4 10 10 10h37c6 0 10 -3 10 -10c2 -64 37 -102 95 -102c60 0 95 38 95 102
v114c-24 -31 -57 -51 -95 -51c-91 0 -152 67 -152 157v323c0 6 4 10 10 10h37c6 0 10 -4 10 -10v-323c0 -60 36 -102 95 -102s95 42 95 102v323c0 6 4 10 10 10h37z" />
    <glyph glyph-name="ycircumflex" unicode="&#x177;" horiz-adv-x="424" 
d="M112 559c-8 0 -11 6 -6 12l69 95c3 5 7 6 12 6h46c5 0 9 -1 12 -6l69 -95c5 -6 2 -12 -6 -12h-32c-5 0 -10 2 -13 6l-53 65l-53 -65c-3 -4 -8 -6 -13 -6h-32zM349 500c6 0 10 -4 10 -10v-543c0 -94 -61 -157 -152 -157c-87 0 -148 63 -152 157c0 6 4 10 10 10h37
c6 0 10 -3 10 -10c2 -64 37 -102 95 -102c60 0 95 38 95 102v114c-24 -31 -57 -51 -95 -51c-91 0 -152 67 -152 157v323c0 6 4 10 10 10h37c6 0 10 -4 10 -10v-323c0 -60 36 -102 95 -102s95 42 95 102v323c0 6 4 10 10 10h37z" />
    <glyph glyph-name="ydieresis" unicode="&#xff;" horiz-adv-x="424" 
d="M160 568c-22 0 -37 15 -37 37s15 37 37 37s37 -15 37 -37s-15 -37 -37 -37zM260 568c-22 0 -37 15 -37 37s15 37 37 37s37 -15 37 -37s-15 -37 -37 -37zM349 500c6 0 10 -4 10 -10v-543c0 -94 -61 -157 -152 -157c-87 0 -148 63 -152 157c0 6 4 10 10 10h37
c6 0 10 -3 10 -10c2 -64 37 -102 95 -102c60 0 95 38 95 102v114c-24 -31 -57 -51 -95 -51c-91 0 -152 67 -152 157v323c0 6 4 10 10 10h37c6 0 10 -4 10 -10v-323c0 -60 36 -102 95 -102s95 42 95 102v323c0 6 4 10 10 10h37z" />
    <glyph glyph-name="ygrave" unicode="&#x1ef3;" horiz-adv-x="424" 
d="M191 565l-69 95c-5 6 -2 12 6 12h45c5 0 9 -3 12 -7l59 -94c4 -7 1 -12 -7 -12h-33c-5 0 -10 1 -13 6zM349 500c6 0 10 -4 10 -10v-543c0 -94 -61 -157 -152 -157c-87 0 -148 63 -152 157c0 6 4 10 10 10h37c6 0 10 -3 10 -10c2 -64 37 -102 95 -102c60 0 95 38 95 102
v114c-24 -31 -57 -51 -95 -51c-91 0 -152 67 -152 157v323c0 6 4 10 10 10h37c6 0 10 -4 10 -10v-323c0 -60 36 -102 95 -102s95 42 95 102v323c0 6 4 10 10 10h37z" />
    <glyph glyph-name="z" unicode="z" horiz-adv-x="353" 
d="M98 55h209c6 0 10 -4 10 -10v-35c0 -6 -4 -10 -10 -10h-247c-15 0 -24 9 -24 24v18c0 11 1 19 7 30l215 373h-204c-6 0 -10 4 -10 10v35c0 6 4 10 10 10h239c15 0 24 -9 24 -24v-23c0 -11 -1 -19 -7 -30z" />
    <glyph glyph-name="zacute" unicode="&#x17a;" horiz-adv-x="353" 
d="M243 672c8 0 11 -6 6 -12l-69 -95c-3 -5 -8 -6 -13 -6h-33c-8 0 -11 5 -7 12l59 94c3 4 7 7 12 7h45zM98 55h209c6 0 10 -4 10 -10v-35c0 -6 -4 -10 -10 -10h-247c-15 0 -24 9 -24 24v18c0 11 1 19 7 30l215 373h-204c-6 0 -10 4 -10 10v35c0 6 4 10 10 10h239
c15 0 24 -9 24 -24v-23c0 -11 -1 -19 -7 -30z" />
    <glyph glyph-name="zcaron" unicode="&#x17e;" horiz-adv-x="353" 
d="M73 672h32c5 0 10 -2 13 -6l53 -65l53 65c3 4 8 6 13 6h32c8 0 11 -6 6 -12l-69 -95c-3 -5 -7 -6 -12 -6h-46c-5 0 -9 1 -12 6l-69 95c-5 6 -2 12 6 12zM98 55h209c6 0 10 -4 10 -10v-35c0 -6 -4 -10 -10 -10h-247c-15 0 -24 9 -24 24v18c0 11 1 19 7 30l215 373h-204
c-6 0 -10 4 -10 10v35c0 6 4 10 10 10h239c15 0 24 -9 24 -24v-23c0 -11 -1 -19 -7 -30z" />
    <glyph glyph-name="zdotaccent" unicode="&#x17c;" horiz-adv-x="353" 
d="M171 565c-23 0 -39 17 -39 39c0 23 16 39 39 39c22 0 39 -16 39 -39c0 -21 -17 -39 -39 -39zM98 55h209c6 0 10 -4 10 -10v-35c0 -6 -4 -10 -10 -10h-247c-15 0 -24 9 -24 24v18c0 11 1 19 7 30l215 373h-204c-6 0 -10 4 -10 10v35c0 6 4 10 10 10h239c15 0 24 -9 24 -24
v-23c0 -11 -1 -19 -7 -30z" />
    <glyph glyph-name="uni0163.ss01" horiz-adv-x="282" 
d="M183 -44c42 -3 76 -33 76 -75c0 -51 -38 -81 -89 -81c-47 0 -84 26 -88 71c-1 6 3 10 9 10h28c6 0 9 -3 10 -9c4 -19 20 -29 41 -29c24 0 42 14 42 38c0 20 -17 34 -40 34c-13 0 -25 -2 -35 -5c-3 -1 -6 0 -8 2l-2 2c-2 2 -4 4 -3 8l19 99c-36 28 -56 76 -56 142v283h-62
c-6 0 -10 4 -10 10v34c0 6 4 10 10 10h62v130c0 6 4 10 10 10h37c6 0 10 -4 10 -10v-130h85c6 0 10 -4 10 -10v-34c0 -6 -4 -10 -10 -10h-85v-283c0 -74 29 -113 84 -113h13c7 0 10 -4 10 -10v-35c0 -6 -4 -10 -10 -10h-13c-15 0 -30 2 -43 5l-8 -44h6z" />
    <glyph glyph-name="uni0410" unicode="&#x410;" horiz-adv-x="454" 
d="M72 0c-6 0 -10 4 -10 10v519c0 108 66 180 165 180s165 -72 165 -180v-519c0 -6 -4 -10 -10 -10h-40c-6 0 -10 4 -10 10v244h-210v-244c0 -6 -4 -10 -10 -10h-40zM122 310h210v219c0 78 -38 124 -105 124s-105 -46 -105 -124v-219z" />
    <glyph glyph-name="uni0411" unicode="&#x411;" horiz-adv-x="417" 
d="M93 -2c-17 0 -31 14 -31 31v501c0 97 67 172 163 172h119c6 0 10 -4 10 -10v-36c0 -6 -4 -10 -10 -10h-119c-61 0 -103 -50 -103 -116v-132h103c99 0 163 -75 163 -173v-54c0 -98 -64 -173 -163 -173h-132zM122 54h103c63 0 103 50 103 117v54c0 67 -40 117 -103 117
h-103v-288z" />
    <glyph glyph-name="uni0412" unicode="&#x412;" horiz-adv-x="429" 
d="M292 360c61 -19 100 -75 100 -145v-49c0 -101 -65 -168 -163 -168h-137c-18 0 -30 12 -30 30v514c0 100 62 167 154 167c96 0 159 -67 159 -167v-48c0 -67 -32 -119 -83 -134zM122 542v-159h93c63 0 100 41 100 111v48c0 70 -36 111 -99 111c-59 0 -94 -41 -94 -111z
M332 166v49c0 70 -38 112 -103 112h-107v-273h107c65 0 103 42 103 112z" />
    <glyph glyph-name="uni0413" unicode="&#x413;" horiz-adv-x="353" 
d="M72 0c-6 0 -10 4 -10 10v522c0 103 63 170 163 170h103c6 0 10 -4 10 -10v-36c0 -6 -4 -10 -10 -10h-103c-66 0 -103 -42 -103 -114v-522c0 -6 -4 -10 -10 -10h-40z" />
    <glyph glyph-name="uni0403" unicode="&#x403;" horiz-adv-x="353" 
d="M192 769c-8 0 -11 6 -6 12l69 91c3 5 8 6 13 6h46c8 0 11 -6 5 -12l-81 -91c-3 -4 -7 -6 -12 -6h-34zM72 0c-6 0 -10 4 -10 10v522c0 103 63 170 163 170h103c6 0 10 -4 10 -10v-36c0 -6 -4 -10 -10 -10h-103c-66 0 -103 -42 -103 -114v-522c0 -6 -4 -10 -10 -10h-40z
" />
    <glyph glyph-name="uni0490" unicode="&#x490;" horiz-adv-x="348" 
d="M323 785c6 0 10 -4 10 -10v-118c0 -6 -4 -10 -10 -10h-98c-66 0 -103 -42 -103 -114v-523c0 -6 -4 -10 -10 -10h-40c-6 0 -10 4 -10 10v523c0 103 62 170 163 170h51v72c0 6 4 10 10 10h37z" />
    <glyph glyph-name="uni0414" unicode="&#x414;" horiz-adv-x="486" 
d="M22 -109c-6 0 -10 4 -10 10v131c0 15 8 23 23 27c53 14 73 63 73 147v327c0 95 65 170 160 170h95c32 0 50 -18 50 -50v-597h8c32 0 50 -18 50 -50v-105c0 -6 -4 -10 -10 -10h-38c-6 0 -10 4 -10 10v99h-343v-99c0 -6 -4 -10 -10 -10h-38zM118 56h235v591h-85
c-60 0 -100 -50 -100 -114v-327c0 -79 -15 -123 -50 -150z" />
    <glyph glyph-name="uni0415" unicode="&#x415;" horiz-adv-x="360" 
d="M212 -2c-96 0 -163 75 -163 172v360c0 97 67 172 163 172h104c6 0 10 -4 10 -10v-36c0 -6 -4 -10 -10 -10h-104c-61 0 -103 -50 -103 -116v-147h183c6 0 10 -4 10 -10v-36c0 -6 -4 -10 -10 -10h-183v-157c0 -66 42 -116 103 -116h104c6 0 10 -4 10 -10v-36
c0 -6 -4 -10 -10 -10h-104z" />
    <glyph glyph-name="uni0401" unicode="&#x401;" horiz-adv-x="360" 
d="M157 778c-22 0 -37 15 -37 37s15 37 37 37s37 -15 37 -37s-15 -37 -37 -37zM257 778c-22 0 -37 15 -37 37s15 37 37 37s37 -15 37 -37s-15 -37 -37 -37zM212 -2c-96 0 -163 75 -163 172v360c0 97 67 172 163 172h104c6 0 10 -4 10 -10v-36c0 -6 -4 -10 -10 -10h-104
c-61 0 -103 -50 -103 -116v-147h183c6 0 10 -4 10 -10v-36c0 -6 -4 -10 -10 -10h-183v-157c0 -66 42 -116 103 -116h104c6 0 10 -4 10 -10v-36c0 -6 -4 -10 -10 -10h-104z" />
    <glyph glyph-name="uni0416" unicode="&#x416;" horiz-adv-x="672" 
d="M66 0c-6 0 -10 4 -10 10v205c0 72 40 134 102 158l-108 316c-2 7 1 11 8 11h40c5 0 10 -3 12 -8l104 -309h92v307c0 6 4 10 10 10h40c6 0 10 -4 10 -10v-307h92l104 309c2 5 7 8 12 8h40c7 0 10 -4 8 -11l-108 -316c62 -24 102 -86 102 -158v-205c0 -6 -4 -10 -10 -10
h-40c-6 0 -10 4 -10 10v205c0 62 -41 112 -100 112h-90v-317c0 -6 -4 -10 -10 -10h-40c-6 0 -10 4 -10 10v317h-90c-59 0 -100 -50 -100 -112v-205c0 -6 -4 -10 -10 -10h-40z" />
    <glyph glyph-name="uni0417" unicode="&#x417;" horiz-adv-x="401" 
d="M196 -10c-93 0 -159 70 -163 170c0 6 4 10 10 10h40c6 0 10 -3 10 -10c4 -68 45 -114 103 -114c64 0 108 50 108 116v53c0 62 -43 112 -105 112h-71c-6 0 -10 4 -10 10v36c0 6 4 10 10 10h71c55 0 91 45 91 113v44c0 69 -34 114 -94 114c-59 0 -91 -41 -94 -114
c0 -6 -4 -10 -10 -10h-40c-6 0 -10 4 -10 10c4 104 62 170 154 170c93 0 154 -70 154 -170v-44c0 -64 -29 -114 -76 -140c55 -26 90 -80 90 -141v-53c0 -97 -69 -172 -168 -172z" />
    <glyph glyph-name="uni0418" unicode="&#x418;" horiz-adv-x="455" 
d="M325 690c0 6 4 10 10 10h40c6 0 10 -4 10 -10v-662c0 -19 -11 -30 -30 -30h-130c-99 0 -163 75 -163 177v515c0 6 4 10 10 10h40c6 0 10 -4 10 -10v-515c0 -71 40 -121 103 -121h100v636z" />
    <glyph glyph-name="uni0419" unicode="&#x419;" horiz-adv-x="455" 
d="M222 768c-63 0 -106 38 -111 97c0 6 4 10 10 10h33c6 0 10 -3 11 -10c3 -29 24 -46 57 -46s54 17 57 46c1 7 5 10 11 10h33c6 0 10 -3 10 -10c-5 -58 -47 -97 -111 -97zM325 690c0 6 4 10 10 10h40c6 0 10 -4 10 -10v-662c0 -19 -11 -30 -30 -30h-130
c-99 0 -163 75 -163 177v515c0 6 4 10 10 10h40c6 0 10 -4 10 -10v-515c0 -71 40 -121 103 -121h100v636z" />
    <glyph glyph-name="uni040D" unicode="&#x40d;" horiz-adv-x="455" 
d="M282 769h-34c-5 0 -9 2 -12 6l-81 91c-6 6 -3 12 5 12h46c5 0 10 -1 13 -6l69 -91c5 -6 2 -12 -6 -12zM325 690c0 6 4 10 10 10h40c6 0 10 -4 10 -10v-662c0 -19 -11 -30 -30 -30h-130c-99 0 -163 75 -163 177v515c0 6 4 10 10 10h40c6 0 10 -4 10 -10v-515
c0 -71 40 -121 103 -121h100v636z" />
    <glyph glyph-name="uni041A" unicode="&#x41a;" horiz-adv-x="446" 
d="M80 0c-6 0 -10 4 -10 10v680c0 6 4 10 10 10h40c6 0 10 -4 10 -10v-307h102l104 309c2 5 7 8 12 8h40c7 0 10 -4 8 -11l-108 -316c67 -23 105 -86 105 -169v-194c0 -6 -4 -10 -10 -10h-40c-6 0 -10 4 -10 10v194c0 73 -41 123 -103 123h-100v-317c0 -6 -4 -10 -10 -10
h-40z" />
    <glyph glyph-name="uni040C" unicode="&#x40c;" horiz-adv-x="446" 
d="M191 769c-8 0 -11 6 -6 12l69 91c3 5 8 6 13 6h46c8 0 11 -6 5 -12l-81 -91c-3 -4 -7 -6 -12 -6h-34zM80 0c-6 0 -10 4 -10 10v680c0 6 4 10 10 10h40c6 0 10 -4 10 -10v-307h102l104 309c2 5 7 8 12 8h40c7 0 10 -4 8 -11l-108 -316c67 -23 105 -86 105 -169v-194
c0 -6 -4 -10 -10 -10h-40c-6 0 -10 4 -10 10v194c0 73 -41 123 -103 123h-100v-317c0 -6 -4 -10 -10 -10h-40z" />
    <glyph glyph-name="uni041B" unicode="&#x41b;" horiz-adv-x="485" 
d="M25 -3c-6 0 -10 4 -10 10v36c0 6 3 10 10 11c53 5 85 54 85 130v350c0 101 64 168 160 168h95c32 0 50 -18 50 -50v-642c0 -6 -4 -10 -10 -10h-40c-6 0 -10 4 -10 10v636h-85c-63 0 -100 -42 -100 -112v-350c0 -107 -58 -182 -145 -187z" />
    <glyph glyph-name="uni041C" unicode="&#x41c;" horiz-adv-x="622" 
d="M80 0c-6 0 -10 4 -10 10v662c0 19 11 30 30 30h43c17 0 29 -8 34 -25l93 -288c13 -41 27 -81 40 -122h2c13 41 27 81 40 122l93 288c5 17 17 25 34 25h43c19 0 30 -11 30 -30v-662c0 -6 -4 -10 -10 -10h-40c-6 0 -10 4 -10 10l1 398c1 78 1 153 2 231h-2l-44 -141
l-93 -276c-5 -16 -17 -25 -34 -25h-22c-17 0 -29 9 -34 25l-93 276l-44 141h-2c1 -78 1 -153 2 -231l1 -398c0 -6 -4 -10 -10 -10h-40z" />
    <glyph glyph-name="uni041D" unicode="&#x41d;" horiz-adv-x="460" 
d="M330 690c0 6 4 10 10 10h40c6 0 10 -4 10 -10v-680c0 -6 -4 -10 -10 -10h-40c-6 0 -10 4 -10 10v318h-200v-318c0 -6 -4 -10 -10 -10h-40c-6 0 -10 4 -10 10v680c0 6 4 10 10 10h40c6 0 10 -4 10 -10v-307h200v307z" />
    <glyph glyph-name="uni041E" unicode="&#x41e;" horiz-adv-x="438" 
d="M219 -9c-100 0 -170 75 -170 185v348c0 110 70 185 170 185s170 -75 170 -175v-368c0 -100 -70 -175 -170 -175zM219 47c65 0 110 50 110 119v368c0 69 -45 119 -110 119s-110 -50 -110 -129v-348c0 -79 45 -129 110 -129z" />
    <glyph glyph-name="uni041F" unicode="&#x41f;" horiz-adv-x="460" 
d="M80 0c-6 0 -10 4 -10 10v640c0 32 18 50 50 50h220c32 0 50 -18 50 -50v-640c0 -6 -4 -10 -10 -10h-40c-6 0 -10 4 -10 10v634h-200v-634c0 -6 -4 -10 -10 -10h-40z" />
    <glyph glyph-name="uni0420" unicode="&#x420;" horiz-adv-x="419" 
d="M72 0c-6 0 -10 4 -10 10v520c0 105 62 180 162 180s163 -75 163 -180v-108c0 -95 -64 -161 -163 -161h-102v-251c0 -6 -4 -10 -10 -10h-40zM122 317h102c62 0 103 41 103 105v108c0 74 -40 124 -103 124s-102 -50 -102 -124v-213z" />
    <glyph glyph-name="uni0421" unicode="&#x421;" horiz-adv-x="409" 
d="M212 -10c-98 0 -163 69 -163 172v376c0 103 65 172 163 172c94 0 160 -74 163 -185c0 -6 -4 -10 -10 -10h-40c-6 0 -10 3 -10 10c-3 83 -43 129 -103 129c-65 0 -103 -43 -103 -116v-376c0 -73 38 -116 103 -116c66 0 106 50 108 134c0 7 4 10 10 10h40c6 0 10 -3 10 -9
c-3 -115 -70 -191 -168 -191z" />
    <glyph glyph-name="uni0422" unicode="&#x422;" horiz-adv-x="350" 
d="M325 700c6 0 10 -4 10 -10v-36c0 -6 -4 -10 -10 -10h-120v-634c0 -6 -4 -10 -10 -10h-40c-6 0 -10 4 -10 10v634h-120c-6 0 -10 4 -10 10v36c0 6 4 10 10 10h300z" />
    <glyph glyph-name="uni0423" unicode="&#x423;" horiz-adv-x="419" 
d="M54 -3c-6 0 -10 4 -10 10v36c0 6 4 10 10 10h140c61 0 103 50 103 116v98h-100c-96 0 -163 75 -163 172v251c0 6 4 10 10 10h40c6 0 10 -4 10 -10v-251c0 -66 42 -116 103 -116h100v367c0 6 4 10 10 10h40c6 0 10 -4 10 -10v-521c0 -97 -67 -172 -163 -172h-140z" />
    <glyph glyph-name="uni040E" unicode="&#x40e;" horiz-adv-x="419" 
d="M199 768c-63 0 -106 38 -111 97c0 6 4 10 10 10h33c6 0 10 -3 11 -10c3 -29 24 -46 57 -46s54 17 57 46c1 7 5 10 11 10h33c6 0 10 -3 10 -10c-5 -58 -47 -97 -111 -97zM54 -3c-6 0 -10 4 -10 10v36c0 6 4 10 10 10h140c61 0 103 50 103 116v98h-100
c-96 0 -163 75 -163 172v251c0 6 4 10 10 10h40c6 0 10 -4 10 -10v-251c0 -66 42 -116 103 -116h100v367c0 6 4 10 10 10h40c6 0 10 -4 10 -10v-521c0 -97 -67 -172 -163 -172h-140z" />
    <glyph glyph-name="uni0424" unicode="&#x424;" horiz-adv-x="622" 
d="M291 -50c-6 0 -10 4 -10 10v90h-74c-104 0 -170 75 -170 188v236c0 113 66 188 170 188h74v75c0 6 4 10 10 10h40c6 0 10 -4 10 -10v-75h74c104 0 170 -75 170 -188v-236c0 -113 -66 -188 -170 -188h-74v-90c0 -6 -4 -10 -10 -10h-40zM207 106h74v500h-74
c-69 0 -110 -50 -110 -132v-236c0 -82 41 -132 110 -132zM341 106h74c69 0 110 50 110 132v236c0 82 -41 132 -110 132h-74v-500z" />
    <glyph glyph-name="uni0425" unicode="&#x425;" horiz-adv-x="424" 
d="M375 500c0 -69 -30 -116 -85 -145c55 -29 85 -76 85 -145v-200c0 -6 -4 -10 -10 -10h-40c-6 0 -10 4 -10 10v200c0 67 -42 117 -103 117s-103 -50 -103 -117v-200c0 -6 -4 -10 -10 -10h-40c-6 0 -10 4 -10 10v200c0 69 30 116 85 145c-55 29 -85 76 -85 145v190
c0 6 4 10 10 10h40c6 0 10 -4 10 -10v-190c0 -67 42 -118 103 -118s103 51 103 118v190c0 6 4 10 10 10h40c6 0 10 -4 10 -10v-190z" />
    <glyph glyph-name="uni0427" unicode="&#x427;" horiz-adv-x="417" 
d="M297 0c-6 0 -10 4 -10 10v239h-100c-99 0 -163 67 -163 167v274c0 6 4 10 10 10h40c6 0 10 -4 10 -10v-274c0 -69 37 -111 103 -111h100v385c0 6 4 10 10 10h40c6 0 10 -4 10 -10v-680c0 -6 -4 -10 -10 -10h-40z" />
    <glyph glyph-name="uni0426" unicode="&#x426;" horiz-adv-x="458" 
d="M395 -109c-6 0 -10 4 -10 10v97h-163c-96 0 -160 75 -160 180v512c0 6 4 10 10 10h40c6 0 10 -4 10 -10v-512c0 -74 40 -124 100 -124h103v636c0 6 4 10 10 10h40c6 0 10 -4 10 -10v-636h8c32 0 50 -18 50 -50v-103c0 -6 -4 -10 -10 -10h-38z" />
    <glyph glyph-name="uni0428" unicode="&#x428;" horiz-adv-x="690" 
d="M222 -2c-94 0 -160 75 -160 168v524c0 6 4 10 10 10h40c6 0 10 -4 10 -10v-524c0 -62 41 -112 100 -112h90v636c0 6 4 10 10 10h40c6 0 10 -4 10 -10v-636h188v636c0 6 4 10 10 10h40c6 0 10 -4 10 -10v-642c0 -32 -18 -50 -50 -50h-348z" />
    <glyph glyph-name="uni0429" unicode="&#x429;" horiz-adv-x="693" 
d="M630 -109c-6 0 -10 4 -10 10v99h-398c-94 0 -160 75 -160 168v522c0 6 4 10 10 10h40c6 0 10 -4 10 -10v-522c0 -62 41 -112 100 -112h90v634c0 6 4 10 10 10h40c6 0 10 -4 10 -10v-634h188v634c0 6 4 10 10 10h40c6 0 10 -4 10 -10v-634h8c32 0 50 -18 50 -50v-105
c0 -6 -4 -10 -10 -10h-38z" />
    <glyph glyph-name="uni040F" unicode="&#x40f;" horiz-adv-x="460" 
d="M210 -109c-6 0 -10 4 -10 10v99h-80c-32 0 -50 18 -50 50v640c0 6 4 10 10 10h40c6 0 10 -4 10 -10v-634h200v634c0 6 4 10 10 10h40c6 0 10 -4 10 -10v-640c0 -32 -18 -50 -50 -50h-80v-99c0 -6 -4 -10 -10 -10h-40z" />
    <glyph glyph-name="uni042C" unicode="&#x42c;" horiz-adv-x="424" 
d="M120 0c-32 0 -50 18 -50 50v640c0 6 4 10 10 10h40c6 0 10 -4 10 -10v-282h103c94 0 160 -75 160 -168v-72c0 -93 -66 -168 -160 -168h-113zM130 56h103c59 0 100 50 100 112v72c0 62 -41 112 -100 112h-103v-296z" />
    <glyph glyph-name="uni042A" unicode="&#x42a;" horiz-adv-x="470" 
d="M279 408c94 0 160 -75 160 -168v-72c0 -93 -66 -168 -160 -168h-113c-32 0 -50 18 -50 50v594h-91c-6 0 -10 4 -10 10v36c0 6 4 10 10 10h101c32 0 50 -18 50 -50v-242h103zM379 168v72c0 62 -41 112 -100 112h-103v-296h103c59 0 100 50 100 112z" />
    <glyph glyph-name="uni042B" unicode="&#x42b;" horiz-adv-x="609" 
d="M120 0c-32 0 -50 18 -50 50v640c0 6 4 10 10 10h40c6 0 10 -4 10 -10v-282h103c94 0 160 -75 160 -168v-72c0 -93 -66 -168 -160 -168h-113zM489 0c-6 0 -10 4 -10 10v680c0 6 4 10 10 10h40c6 0 10 -4 10 -10v-680c0 -6 -4 -10 -10 -10h-40zM130 56h103
c59 0 100 50 100 112v72c0 62 -41 112 -100 112h-103v-296z" />
    <glyph glyph-name="uni0409" unicode="&#x409;" horiz-adv-x="691" 
d="M25 0c-6 0 -10 4 -10 10v36c0 6 3 10 10 11c47 5 85 48 85 117v353c0 99 66 173 160 173h90c32 0 50 -18 50 -50v-242h90c94 0 160 -75 160 -168v-72c0 -93 -66 -168 -160 -168h-100c-32 0 -50 18 -50 50v594h-80c-59 0 -100 -50 -100 -117v-353
c0 -100 -68 -168 -145 -174zM410 56h90c59 0 100 50 100 112v72c0 62 -41 112 -100 112h-90v-296z" />
    <glyph glyph-name="uni040A" unicode="&#x40a;" horiz-adv-x="661" 
d="M474 388c90 0 156 -69 156 -163v-62c0 -95 -66 -165 -156 -165h-104c-32 0 -50 18 -50 50v284h-190v-322c0 -6 -4 -10 -10 -10h-40c-6 0 -10 4 -10 10v680c0 6 4 10 10 10h40c6 0 10 -4 10 -10v-302h190v302c0 6 4 10 10 10h40c6 0 10 -4 10 -10v-302h94zM570 159v66
c0 64 -40 107 -96 107h-94v-278h94c56 0 96 42 96 105z" />
    <glyph glyph-name="uni0405" unicode="&#x405;" horiz-adv-x="406" 
d="M204 -10c-98 0 -165 76 -168 190c0 6 4 10 10 10h40c6 0 10 -4 10 -10c3 -88 40 -134 108 -134c70 0 106 36 106 105c0 171 -269 209 -269 404c0 93 64 155 161 155c91 0 154 -74 159 -185c0 -6 -4 -10 -10 -10h-40c-6 0 -10 4 -10 10c-4 88 -39 129 -99 129
c-66 0 -101 -34 -101 -99c0 -161 269 -198 269 -404c0 -97 -66 -161 -166 -161z" />
    <glyph glyph-name="uni0404" unicode="&#x404;" horiz-adv-x="409" 
d="M370 190c6 0 10 -3 10 -9c-3 -115 -70 -191 -168 -191s-163 69 -163 172v376c0 103 65 172 163 172c94 0 160 -74 163 -185c0 -6 -4 -10 -10 -10h-40c-6 0 -10 3 -10 10c-3 83 -43 129 -103 129c-65 0 -103 -43 -103 -116v-155h191c6 0 10 -4 10 -10v-36
c0 -6 -4 -10 -10 -10h-191v-165c0 -73 38 -116 103 -116c66 0 106 50 108 134c0 7 4 10 10 10h40z" />
    <glyph glyph-name="uni042D" unicode="&#x42d;" horiz-adv-x="409" 
d="M197 710c98 0 163 -69 163 -172v-376c0 -103 -65 -172 -163 -172s-165 76 -168 191c0 6 4 9 10 9h40c6 0 10 -3 10 -10c2 -84 42 -134 108 -134c65 0 103 43 103 116v165h-191c-6 0 -10 4 -10 10v36c0 6 4 10 10 10h191v155c0 73 -38 116 -103 116
c-60 0 -100 -46 -103 -129c0 -7 -4 -10 -10 -10h-40c-6 0 -10 4 -10 10c3 111 69 185 163 185z" />
    <glyph glyph-name="uni0406" unicode="&#x406;" horiz-adv-x="200" 
d="M70 690c0 6 4 10 10 10h40c6 0 10 -4 10 -10v-680c0 -6 -4 -10 -10 -10h-40c-6 0 -10 4 -10 10v680z" />
    <glyph glyph-name="uni0407" unicode="&#x407;" horiz-adv-x="200" 
d="M50 778c-22 0 -37 15 -37 37s15 37 37 37s37 -15 37 -37s-15 -37 -37 -37zM150 778c-22 0 -37 15 -37 37s15 37 37 37s37 -15 37 -37s-15 -37 -37 -37zM70 690c0 6 4 10 10 10h40c6 0 10 -4 10 -10v-680c0 -6 -4 -10 -10 -10h-40c-6 0 -10 4 -10 10v680z" />
    <glyph glyph-name="uni0408" unicode="&#x408;" horiz-adv-x="403" 
d="M178 -10c-98 0 -159 78 -163 190c0 6 4 10 10 10h40c6 0 10 -3 10 -10c3 -80 39 -134 104 -134c66 0 102 50 102 129v515c0 6 4 10 10 10h40c6 0 10 -4 10 -10v-515c0 -110 -57 -185 -163 -185z" />
    <glyph glyph-name="uni040B" unicode="&#x40b;" horiz-adv-x="510" 
d="M155 0c-6 0 -10 4 -10 10v634h-120c-6 0 -10 4 -10 10v36c0 6 4 10 10 10h300c6 0 10 -4 10 -10v-36c0 -6 -4 -10 -10 -10h-120v-182c22 29 55 48 99 48c95 0 151 -67 151 -162v-338c0 -6 -4 -10 -10 -10h-40c-6 0 -10 4 -10 10v335c0 68 -35 110 -96 110
c-53 0 -94 -42 -94 -105v-340c0 -6 -4 -10 -10 -10h-40z" />
    <glyph glyph-name="uni042E" unicode="&#x42e;" horiz-adv-x="613" 
d="M405 710c90 0 159 -70 159 -168v-384c0 -98 -69 -168 -159 -168s-159 70 -159 168v169h-116v-317c0 -6 -4 -10 -10 -10h-40c-6 0 -10 4 -10 10v680c0 6 4 10 10 10h40c6 0 10 -4 10 -10v-307h116v159c0 98 69 168 159 168zM504 158v384c0 68 -44 112 -99 112
s-99 -44 -99 -112v-384c0 -68 44 -112 99 -112s99 44 99 112z" />
    <glyph glyph-name="uni042F" unicode="&#x42f;" horiz-adv-x="426" 
d="M199 710c103 0 165 -75 165 -180v-520c0 -6 -4 -10 -10 -10h-40c-6 0 -10 4 -10 10v259h-107l-99 -261c-2 -6 -6 -8 -11 -8h-41c-7 0 -11 5 -8 12l103 267c-65 24 -107 87 -107 167v84c0 105 62 180 165 180zM304 325v205c0 74 -37 124 -105 124s-105 -50 -105 -124v-84
c0 -71 42 -121 105 -121h105z" />
    <glyph glyph-name="uni0402" unicode="&#x402;" horiz-adv-x="500" 
d="M308 -3c-6 0 -11 5 -11 11v35c0 5 4 10 10 10c49 5 88 46 88 104v193c0 63 -35 105 -96 105c-63 0 -94 -42 -94 -105v-340c0 -6 -4 -10 -10 -10h-40c-6 0 -10 4 -10 10v634h-120c-6 0 -10 4 -10 10v36c0 6 4 10 10 10h300c6 0 10 -4 10 -10v-36c0 -6 -4 -10 -10 -10h-120
v-181c22 28 55 47 99 47c92 0 151 -67 151 -160v-193c0 -89 -65 -154 -147 -160z" />
    <glyph glyph-name="uni0414.loclBGR" horiz-adv-x="477" 
d="M19 -109c-6 0 -10 4 -10 10v105c0 30 19 50 53 50h2l125 617c4 17 14 27 32 27h36c18 0 28 -10 32 -27l125 -617h2c35 0 52 -18 52 -50v-105c0 -6 -4 -10 -10 -10h-38c-6 0 -10 4 -10 10v99h-343v-99c0 -6 -4 -10 -10 -10h-38zM126 56h226l-113 567z" />
    <glyph glyph-name="uni0418.loclBGR" horiz-adv-x="462" 
d="M225 -10c-99 0 -163 75 -163 181v519c0 6 4 10 10 10h40c6 0 10 -4 10 -10v-519c0 -75 40 -125 100 -125c69 0 110 50 110 130v514c0 6 4 10 10 10h40c6 0 10 -4 10 -10v-680c0 -6 -4 -10 -10 -10h-30c-6 0 -9 2 -10 9l-6 42c-21 -37 -57 -61 -111 -61z" />
    <glyph glyph-name="uni0419.loclBGR" horiz-adv-x="462" 
d="M227 768c-63 0 -106 38 -111 97c0 6 4 10 10 10h33c6 0 10 -3 11 -10c3 -29 24 -46 57 -46s54 17 57 46c1 7 5 10 11 10h33c6 0 10 -3 10 -10c-5 -58 -47 -97 -111 -97zM225 -10c-99 0 -163 75 -163 181v519c0 6 4 10 10 10h40c6 0 10 -4 10 -10v-519
c0 -75 40 -125 100 -125c69 0 110 50 110 130v514c0 6 4 10 10 10h40c6 0 10 -4 10 -10v-680c0 -6 -4 -10 -10 -10h-30c-6 0 -9 2 -10 9l-6 42c-21 -37 -57 -61 -111 -61z" />
    <glyph glyph-name="uni040D.loclBGR" horiz-adv-x="462" 
d="M287 769h-34c-5 0 -9 2 -12 6l-81 91c-6 6 -3 12 5 12h46c5 0 10 -1 13 -6l69 -91c5 -6 2 -12 -6 -12zM225 -10c-99 0 -163 75 -163 181v519c0 6 4 10 10 10h40c6 0 10 -4 10 -10v-519c0 -75 40 -125 100 -125c69 0 110 50 110 130v514c0 6 4 10 10 10h40
c6 0 10 -4 10 -10v-680c0 -6 -4 -10 -10 -10h-30c-6 0 -9 2 -10 9l-6 42c-21 -37 -57 -61 -111 -61z" />
    <glyph glyph-name="uni041B.loclBGR" horiz-adv-x="384" 
d="M370 11c1 -6 -2 -11 -9 -11h-40c-6 0 -10 3 -11 9l-118 625l-118 -625c-1 -6 -5 -9 -11 -9h-40c-7 0 -10 5 -9 11l127 665c4 18 14 27 32 27h37c18 0 29 -9 32 -27z" />
    <glyph glyph-name="uni041F.loclBGR" horiz-adv-x="454" 
d="M72 0c-6 0 -10 4 -10 10v520c0 105 65 180 165 180s165 -75 165 -180v-520c0 -6 -4 -10 -10 -10h-40c-6 0 -10 4 -10 10v520c0 74 -41 124 -105 124s-105 -50 -105 -124v-520c0 -6 -4 -10 -10 -10h-40z" />
    <glyph glyph-name="uni0422.loclBGR" horiz-adv-x="350" 
d="M325 700c6 0 10 -4 10 -10v-36c0 -6 -4 -10 -10 -10h-120v-634c0 -6 -4 -10 -10 -10h-40c-6 0 -10 4 -10 10v634h-120c-6 0 -10 4 -10 10v36c0 6 4 10 10 10h300z" />
    <glyph glyph-name="uni0423.loclBGR" horiz-adv-x="404" 
d="M345 700c6 0 10 -4 10 -10v-518c0 -97 -67 -172 -163 -172h-140c-6 0 -10 4 -10 10v36c0 6 4 10 10 10h140c61 0 103 50 103 116v116c-22 -29 -56 -46 -103 -46c-100 0 -163 75 -163 181v267c0 6 4 10 10 10h40c6 0 10 -4 10 -10v-267c0 -75 39 -125 103 -125
c63 0 103 50 103 130v262c0 6 4 10 10 10h40z" />
    <glyph glyph-name="uni040E.loclBGR" horiz-adv-x="404" 
d="M197 768c-63 0 -106 38 -111 97c0 6 4 10 10 10h33c6 0 10 -3 11 -10c3 -29 24 -46 57 -46s54 17 57 46c1 7 5 10 11 10h33c6 0 10 -3 10 -10c-5 -58 -47 -97 -111 -97zM345 700c6 0 10 -4 10 -10v-518c0 -97 -67 -172 -163 -172h-140c-6 0 -10 4 -10 10v36
c0 6 4 10 10 10h140c61 0 103 50 103 116v116c-22 -29 -56 -46 -103 -46c-100 0 -163 75 -163 181v267c0 6 4 10 10 10h40c6 0 10 -4 10 -10v-267c0 -75 39 -125 103 -125c63 0 103 50 103 130v262c0 6 4 10 10 10h40z" />
    <glyph glyph-name="uni0424.loclBGR" horiz-adv-x="658" 
d="M458 708c86 0 151 -69 151 -161v-394c0 -92 -65 -162 -151 -162c-38 0 -79 23 -99 49v-115c0 -6 -4 -10 -10 -10h-40c-6 0 -10 4 -10 10v114c-20 -26 -61 -49 -99 -49c-86 0 -151 70 -151 162v396c0 92 65 161 151 161c38 0 79 -22 99 -49v115c0 6 4 10 10 10h40
c6 0 10 -4 10 -10v-116c20 27 61 49 99 49zM204 46c54 0 95 45 95 106v396c0 61 -41 105 -95 105c-55 0 -95 -44 -95 -105v-396c0 -61 40 -106 95 -106zM549 153v394c0 61 -40 105 -95 105c-54 0 -95 -44 -95 -104v-396c0 -60 41 -105 95 -105c55 0 95 45 95 106z" />
    <glyph glyph-name="uni0427.loclBGR" horiz-adv-x="430" 
d="M310 0c-6 0 -10 4 -10 10v273c-22 -29 -56 -46 -103 -46c-100 0 -163 75 -163 181v272c0 6 4 10 10 10h40c6 0 10 -4 10 -10v-272c0 -75 39 -125 103 -125c63 0 103 50 103 130v267c0 6 4 10 10 10h40c6 0 10 -4 10 -10v-680c0 -6 -4 -10 -10 -10h-40z" />
    <glyph glyph-name="uni0426.loclBGR" horiz-adv-x="478" 
d="M416 -109c-6 0 -10 4 -10 10v99c-37 3 -60 27 -68 47c-21 -32 -55 -57 -114 -57c-98 0 -162 76 -162 181v519c0 6 4 10 10 10h40c6 0 10 -4 10 -10v-519c0 -74 38 -125 103 -125c64 0 107 49 107 130v514c0 6 4 10 10 10h40c6 0 10 -4 10 -10v-593c0 -69 71 -16 71 -83
v-113c0 -6 -4 -10 -10 -10h-37z" />
    <glyph glyph-name="uni0428.loclBGR" horiz-adv-x="712" 
d="M222 -10c-101 0 -160 75 -160 181v519c0 6 4 10 10 10h40c6 0 10 -4 10 -10v-519c0 -75 38 -125 100 -125s100 50 100 125v519c0 6 4 10 10 10h40c6 0 10 -4 10 -10v-519c0 -75 38 -125 95 -125c66 0 105 50 105 130v514c0 6 4 10 10 10h40c6 0 10 -4 10 -10v-680
c0 -6 -4 -10 -10 -10h-40c-6 0 -10 4 -10 10v37c-20 -35 -52 -57 -102 -57c-61 0 -105 30 -128 80c-23 -50 -68 -80 -130 -80z" />
    <glyph glyph-name="uni0429.loclBGR" horiz-adv-x="728" 
d="M666 -109c-6 0 -10 4 -10 10v99c-37 3 -60 27 -68 47c-22 -33 -53 -57 -109 -57s-100 26 -127 69c-28 -43 -73 -69 -130 -69c-97 0 -160 75 -160 180v520c0 6 4 10 10 10h40c6 0 10 -4 10 -10v-520c0 -74 39 -124 100 -124s100 50 100 124v520c0 6 4 10 10 10h40
c6 0 10 -4 10 -10v-519c0 -74 36 -125 98 -125c61 0 102 49 102 130v514c0 6 4 10 10 10h40c6 0 10 -4 10 -10v-593c0 -69 71 -16 71 -83v-113c0 -6 -4 -10 -10 -10h-37z" />
    <glyph glyph-name="uni041B.ss01" horiz-adv-x="482" 
d="M25 0c-6 0 -10 4 -10 10v40c0 6 3 10 10 10c51 5 85 46 85 111v359c0 110 62 180 155 180c92 0 155 -70 155 -180v-520c0 -6 -4 -10 -10 -10h-40c-6 0 -10 4 -10 10v520c0 78 -35 120 -95 120c-59 0 -95 -42 -95 -120v-359c0 -97 -58 -166 -145 -171z" />
    <glyph glyph-name="uni0430" unicode="&#x430;" horiz-adv-x="389" 
d="M192 -9c-93 0 -154 66 -154 155c0 79 61 144 152 144h97v65c0 58 -35 100 -94 100c-53 0 -86 -37 -90 -92c-1 -7 -4 -10 -10 -10h-37c-6 0 -10 4 -10 10c5 85 61 147 147 147c92 0 151 -67 151 -155v-209c0 -89 -60 -155 -152 -155zM192 46c60 0 95 41 95 100v89h-97
c-59 0 -95 -40 -95 -89c0 -59 36 -100 97 -100z" />
    <glyph glyph-name="uni0431" unicode="&#x431;" horiz-adv-x="406" 
d="M208 -10c-92 0 -153 67 -153 157v331c0 121 52 171 127 196c48 15 100 26 132 33c7 1 11 -2 11 -9v-34c0 -6 -3 -10 -9 -11c-39 -7 -93 -19 -124 -31c-54 -23 -80 -52 -80 -144v-36c23 30 59 48 106 48c82 0 143 -67 143 -157v-186c0 -90 -61 -157 -153 -157zM208 45
c60 0 96 42 96 102v186c0 60 -36 102 -96 102s-96 -42 -96 -102v-186c0 -60 36 -102 96 -102z" />
    <glyph glyph-name="uni0432" unicode="&#x432;" horiz-adv-x="400" 
d="M282 271c49 -20 81 -64 81 -124c0 -86 -67 -147 -157 -147h-106c-29 0 -45 16 -45 45v328c0 81 56 137 142 137s142 -56 142 -137c0 -47 -21 -82 -57 -102zM112 373v-78h82c57 0 88 31 88 78c0 51 -30 82 -85 82s-85 -31 -85 -82zM206 55c59 0 100 36 100 92
c0 57 -41 93 -100 93h-94v-185h94z" />
    <glyph glyph-name="uni0433" unicode="&#x433;" horiz-adv-x="296" 
d="M65 0c-6 0 -10 4 -10 10v343c0 94 55 149 149 149h59c6 0 10 -4 10 -10v-35c0 -6 -4 -10 -10 -10h-59c-60 0 -92 -32 -92 -94v-343c0 -6 -4 -10 -10 -10h-37z" />
    <glyph glyph-name="uni0453" unicode="&#x453;" horiz-adv-x="299" 
d="M277 672c8 0 11 -6 6 -12l-69 -95c-3 -5 -8 -6 -13 -6h-33c-8 0 -11 5 -7 12l59 94c3 4 7 7 12 7h45zM65 0c-6 0 -10 4 -10 10v343c0 94 55 149 149 149h59c6 0 10 -4 10 -10v-35c0 -6 -4 -10 -10 -10h-59c-60 0 -92 -32 -92 -94v-343c0 -6 -4 -10 -10 -10h-37z" />
    <glyph glyph-name="uni0491" unicode="&#x491;" horiz-adv-x="313" 
d="M65 0c-6 0 -10 4 -10 10v353c0 82 62 140 145 140h33v64c0 6 4 10 10 10h37c6 0 10 -4 10 -10v-74c0 -29 -16 -45 -45 -45h-45c-52 0 -88 -33 -88 -85v-353c0 -6 -4 -10 -10 -10h-37z" />
    <glyph glyph-name="uni0434" unicode="&#x434;" horiz-adv-x="454" 
d="M24 -109c-6 0 -10 4 -10 10v134c0 12 7 19 22 22c39 9 59 44 59 99v176c0 101 65 170 153 170h82c29 0 45 -16 45 -45v-402h11c29 0 45 -16 45 -45v-109c0 -6 -4 -10 -10 -10h-36c-6 0 -10 4 -10 10v99h-305v-99c0 -6 -4 -10 -10 -10h-36zM112 55h206v392h-70
c-57 0 -96 -44 -96 -115v-171c0 -50 -16 -84 -40 -106z" />
    <glyph glyph-name="uni0435" unicode="&#x435;" horiz-adv-x="389" 
d="M198 -9c-92 0 -153 63 -153 157v203c0 92 59 158 153 158c92 0 153 -66 153 -154c0 -83 -61 -146 -153 -146h-96v-61c0 -60 36 -102 96 -102c56 0 93 41 95 102c0 7 4 10 10 10h37c6 0 10 -4 10 -10c-3 -94 -64 -157 -152 -157zM102 264h96c60 0 96 38 96 91
c0 58 -36 99 -96 99c-62 0 -96 -41 -96 -103v-87z" />
    <glyph glyph-name="uni0451" unicode="&#x451;" horiz-adv-x="387" 
d="M145 568c-22 0 -37 15 -37 37s15 37 37 37s37 -15 37 -37s-15 -37 -37 -37zM245 568c-22 0 -37 15 -37 37s15 37 37 37s37 -15 37 -37s-15 -37 -37 -37zM198 -9c-92 0 -153 63 -153 157v203c0 92 59 158 153 158c92 0 153 -66 153 -154c0 -83 -61 -146 -153 -146h-96v-61
c0 -60 36 -102 96 -102c56 0 93 41 95 102c0 7 4 10 10 10h37c6 0 10 -4 10 -10c-3 -94 -64 -157 -152 -157zM102 264h96c60 0 96 38 96 91c0 58 -36 99 -96 99c-62 0 -96 -41 -96 -103v-87z" />
    <glyph glyph-name="uni0436" unicode="&#x436;" horiz-adv-x="595" 
d="M54 0c-6 0 -10 4 -10 10v127c0 71 44 125 108 143l-116 208c-4 7 1 12 8 12h42c5 0 10 -2 12 -7l113 -206h58v203c0 6 4 10 10 10h37c6 0 10 -4 10 -10v-203h58l113 206c2 5 7 7 12 7h42c7 0 12 -5 8 -12l-116 -208c64 -18 108 -72 108 -143v-127c0 -6 -4 -10 -10 -10
h-37c-6 0 -10 4 -10 10v127c0 58 -41 95 -100 95h-68v-222c0 -6 -4 -10 -10 -10h-37c-6 0 -10 4 -10 10v222h-68c-59 0 -100 -37 -100 -95v-127c0 -6 -4 -10 -10 -10h-37z" />
    <glyph glyph-name="uni0437" unicode="&#x437;" horiz-adv-x="371" 
d="M179 -10c-89 0 -149 62 -154 147c0 6 4 10 10 10h37c6 0 10 -3 10 -10c4 -55 39 -92 97 -92c59 0 97 36 97 100c0 58 -34 95 -99 95h-46c-6 0 -10 4 -10 10v35c0 6 4 10 10 10h42c56 0 87 31 87 78c0 51 -30 82 -84 82c-51 0 -81 -28 -84 -92c0 -6 -4 -10 -10 -10h-37
c-6 0 -10 4 -10 10c4 95 59 147 141 147c85 0 141 -56 141 -137c0 -48 -25 -83 -63 -103c48 -20 80 -63 80 -125c0 -94 -65 -155 -155 -155z" />
    <glyph glyph-name="uni0438" unicode="&#x438;" horiz-adv-x="412" 
d="M212 -2c-90 0 -157 62 -157 150v342c0 6 4 10 10 10h37c6 0 10 -4 10 -10v-342c0 -58 41 -95 100 -95h78v437c0 6 4 10 10 10h37c6 0 10 -4 10 -10v-447c0 -29 -16 -45 -45 -45h-90z" />
    <glyph glyph-name="uni0439" unicode="&#x439;" horiz-adv-x="412" 
d="M196 562c-63 0 -106 38 -111 97c0 6 4 10 10 10h33c6 0 10 -3 11 -10c3 -29 24 -46 57 -46s54 17 57 46c1 7 5 10 11 10h33c6 0 10 -3 10 -10c-5 -58 -47 -97 -111 -97zM212 -2c-90 0 -157 62 -157 150v342c0 6 4 10 10 10h37c6 0 10 -4 10 -10v-342
c0 -58 41 -95 100 -95h78v437c0 6 4 10 10 10h37c6 0 10 -4 10 -10v-447c0 -29 -16 -45 -45 -45h-90z" />
    <glyph glyph-name="uni045D" unicode="&#x45d;" horiz-adv-x="412" 
d="M114 672h45c5 0 9 -3 12 -7l59 -94c4 -7 1 -12 -7 -12h-33c-5 0 -10 1 -13 6l-69 95c-5 6 -2 12 6 12zM212 -2c-90 0 -157 62 -157 150v342c0 6 4 10 10 10h37c6 0 10 -4 10 -10v-342c0 -58 41 -95 100 -95h78v437c0 6 4 10 10 10h37c6 0 10 -4 10 -10v-447
c0 -29 -16 -45 -45 -45h-90z" />
    <glyph glyph-name="uni043A" unicode="&#x43a;" horiz-adv-x="400" 
d="M249 280c64 -18 108 -72 108 -143v-127c0 -6 -4 -10 -10 -10h-37c-6 0 -10 4 -10 10v127c0 58 -41 95 -100 95h-78v-222c0 -6 -4 -10 -10 -10h-37c-6 0 -10 4 -10 10v480c0 6 4 10 10 10h37c6 0 10 -4 10 -10v-203h68l112 206c3 5 7 7 12 7h42c7 0 12 -5 8 -12z" />
    <glyph glyph-name="uni045C" unicode="&#x45c;" horiz-adv-x="400" 
d="M291 672c8 0 11 -6 6 -12l-69 -95c-3 -5 -8 -6 -13 -6h-33c-8 0 -11 5 -7 12l59 94c3 4 7 7 12 7h45zM249 280c64 -18 108 -72 108 -143v-127c0 -6 -4 -10 -10 -10h-37c-6 0 -10 4 -10 10v127c0 58 -41 95 -100 95h-78v-222c0 -6 -4 -10 -10 -10h-37c-6 0 -10 4 -10 10
v480c0 6 4 10 10 10h37c6 0 10 -4 10 -10v-203h68l112 206c3 5 7 7 12 7h42c7 0 12 -5 8 -12z" />
    <glyph glyph-name="uni043B" unicode="&#x43b;" horiz-adv-x="426" 
d="M24 0c-6 0 -10 4 -10 10v35c0 6 3 10 10 11c34 5 55 37 55 97v199c0 88 67 150 157 150h80c29 0 45 -16 45 -45v-447c0 -6 -4 -10 -10 -10h-37c-6 0 -10 4 -10 10v437h-68c-59 0 -100 -37 -100 -95v-199c0 -90 -41 -148 -112 -153z" />
    <glyph glyph-name="uni043C" unicode="&#x43c;" horiz-adv-x="544" 
d="M75 0c-6 0 -10 4 -10 10v462c0 19 11 30 30 30h29c17 0 28 -6 35 -22l70 -151c16 -34 32 -71 42 -98h2c10 28 25 63 42 99l70 150c7 16 18 22 35 22h29c19 0 30 -11 30 -30v-462c0 -6 -4 -10 -10 -10h-37c-6 0 -10 4 -10 10v283c0 54 1 108 3 142h-2
c-15 -34 -29 -69 -44 -103l-64 -147c-7 -15 -18 -23 -35 -23h-16c-17 0 -28 8 -35 23l-65 147c-15 34 -28 69 -43 103h-2c2 -34 3 -88 3 -142v-283c0 -6 -4 -10 -10 -10h-37z" />
    <glyph glyph-name="uni043D" unicode="&#x43d;" horiz-adv-x="420" 
d="M298 490c0 6 4 10 10 10h37c6 0 10 -4 10 -10v-480c0 -6 -4 -10 -10 -10h-37c-6 0 -10 4 -10 10v223h-176v-223c0 -6 -4 -10 -10 -10h-37c-6 0 -10 4 -10 10v480c0 6 4 10 10 10h37c6 0 10 -4 10 -10v-203h176v203z" />
    <glyph glyph-name="uni043E" unicode="&#x43e;" horiz-adv-x="398" 
d="M199 -10c-93 0 -154 67 -154 157v206c0 90 61 157 154 157s154 -67 154 -157v-206c0 -90 -61 -157 -154 -157zM199 44c60 0 96 42 96 103v206c0 61 -36 103 -96 103s-96 -42 -96 -103v-206c0 -61 36 -103 96 -103z" />
    <glyph glyph-name="uni043F" unicode="&#x43f;" horiz-adv-x="420" 
d="M310 500c29 0 45 -16 45 -45v-445c0 -6 -4 -10 -10 -10h-37c-6 0 -10 4 -10 10v435h-176v-435c0 -6 -4 -10 -10 -10h-37c-6 0 -10 4 -10 10v445c0 29 16 45 45 45h200z" />
    <glyph glyph-name="uni0440" unicode="&#x440;" horiz-adv-x="406" 
d="M208 510c92 0 153 -67 153 -157v-206c0 -90 -61 -157 -144 -157c-48 0 -81 20 -105 50v-230c0 -6 -4 -10 -10 -10h-37c-6 0 -10 4 -10 10v543c0 90 61 157 153 157zM304 147v206c0 60 -36 102 -96 102s-96 -42 -96 -102v-206c0 -60 36 -102 96 -102s96 42 96 102z" />
    <glyph glyph-name="uni0441" unicode="&#x441;" horiz-adv-x="384" 
d="M197 -10c-91 0 -152 67 -152 157v206c0 90 60 157 150 157c87 0 145 -62 150 -147c0 -6 -4 -10 -10 -10h-37c-6 0 -10 3 -10 10c-4 55 -38 92 -93 92c-58 0 -93 -42 -93 -102v-206c0 -60 36 -102 95 -102c56 0 91 41 95 102c0 7 4 10 10 10h37c6 0 10 -4 10 -10
c-5 -91 -64 -157 -152 -157z" />
    <glyph glyph-name="uni0442" unicode="&#x442;" horiz-adv-x="324" 
d="M143 0c-6 0 -10 4 -10 10v435h-109c-6 0 -10 4 -10 10v35c0 6 4 10 10 10h276c6 0 10 -4 10 -10v-35c0 -6 -4 -10 -10 -10h-110v-435c0 -6 -4 -10 -10 -10h-37z" />
    <glyph glyph-name="uni0443" unicode="&#x443;" horiz-adv-x="424" 
d="M349 500c6 0 10 -4 10 -10v-543c0 -94 -61 -157 -152 -157c-87 0 -148 63 -152 157c0 6 4 10 10 10h37c6 0 10 -3 10 -10c2 -64 37 -102 95 -102c60 0 95 38 95 102v114c-24 -31 -57 -51 -95 -51c-91 0 -152 67 -152 157v323c0 6 4 10 10 10h37c6 0 10 -4 10 -10v-323
c0 -60 36 -102 95 -102s95 42 95 102v323c0 6 4 10 10 10h37z" />
    <glyph glyph-name="uni045E" unicode="&#x45e;" horiz-adv-x="424" 
d="M207 562c-63 0 -106 38 -111 97c0 6 4 10 10 10h33c6 0 10 -3 11 -10c3 -29 24 -46 57 -46s54 17 57 46c1 7 5 10 11 10h33c6 0 10 -3 10 -10c-5 -58 -47 -97 -111 -97zM349 500c6 0 10 -4 10 -10v-543c0 -94 -61 -157 -152 -157c-87 0 -148 63 -152 157c0 6 4 10 10 10
h37c6 0 10 -3 10 -10c2 -64 37 -102 95 -102c60 0 95 38 95 102v114c-24 -31 -57 -51 -95 -51c-91 0 -152 67 -152 157v323c0 6 4 10 10 10h37c6 0 10 -4 10 -10v-323c0 -60 36 -102 95 -102s95 42 95 102v323c0 6 4 10 10 10h37z" />
    <glyph glyph-name="uni0444" unicode="&#x444;" horiz-adv-x="605" 
d="M284 -200c-6 0 -10 4 -10 10v188h-82c-88 0 -147 67 -147 157v190c0 90 59 157 147 157h82v188c0 6 4 10 10 10h37c6 0 10 -4 10 -10v-188h82c88 0 147 -67 147 -157v-190c0 -90 -59 -157 -147 -157h-82v-188c0 -6 -4 -10 -10 -10h-37zM192 53h82v394h-82
c-56 0 -90 -42 -90 -102v-190c0 -60 34 -102 90 -102zM331 53h82c56 0 90 42 90 102v190c0 60 -34 102 -90 102h-82v-394z" />
    <glyph glyph-name="uni0445" unicode="&#x445;" horiz-adv-x="388" 
d="M55 0c-6 0 -10 4 -10 10v111c0 57 28 103 74 130c-46 26 -74 72 -74 129v110c0 6 4 10 10 10h37c6 0 10 -4 10 -10v-110c0 -60 35 -102 92 -102s92 42 92 102v110c0 6 4 10 10 10h37c6 0 10 -4 10 -10v-110c0 -57 -28 -103 -74 -129c46 -27 74 -73 74 -130v-111
c0 -6 -4 -10 -10 -10h-37c-6 0 -10 4 -10 10v111c0 60 -35 102 -92 102s-92 -42 -92 -102v-111c0 -6 -4 -10 -10 -10h-37z" />
    <glyph glyph-name="uni0447" unicode="&#x447;" horiz-adv-x="398" 
d="M293 0c-6 0 -10 4 -10 10v176h-96c-83 0 -150 66 -150 147v157c0 6 4 10 10 10h40c6 0 10 -4 10 -10v-157c0 -51 40 -92 90 -92h96v249c0 6 4 10 10 10h40c6 0 10 -4 10 -10v-480c0 -6 -4 -10 -10 -10h-40z" />
    <glyph glyph-name="uni0446" unicode="&#x446;" horiz-adv-x="443" 
d="M367 -109c-6 0 -10 4 -10 10v97h-145c-90 0 -157 62 -157 150v342c0 6 4 10 10 10h37c6 0 10 -4 10 -10v-342c0 -58 41 -95 100 -95h88v437c0 6 4 10 10 10h37c6 0 10 -4 10 -10v-437h11c29 0 45 -16 45 -45v-107c0 -6 -4 -10 -10 -10h-36z" />
    <glyph glyph-name="uni0448" unicode="&#x448;" horiz-adv-x="619" 
d="M207 -1c-91 0 -152 67 -152 157v334c0 6 4 10 10 10h37c6 0 10 -4 10 -10v-334c0 -60 36 -102 95 -102h75v436c0 6 4 10 10 10h37c6 0 10 -4 10 -10v-436h168v436c0 6 4 10 10 10h37c6 0 10 -4 10 -10v-446c0 -29 -16 -45 -45 -45h-312z" />
    <glyph glyph-name="uni0449" unicode="&#x449;" horiz-adv-x="635" 
d="M574 -109c-6 0 -10 4 -10 10v98h-357c-91 0 -152 67 -152 157v334c0 6 4 10 10 10h37c6 0 10 -4 10 -10v-334c0 -60 36 -102 95 -102h75v436c0 6 4 10 10 10h37c6 0 10 -4 10 -10v-436h168v436c0 6 4 10 10 10h37c6 0 10 -4 10 -10v-436h11c29 0 45 -16 45 -45v-108
c0 -6 -4 -10 -10 -10h-36z" />
    <glyph glyph-name="uni045F" unicode="&#x45f;" horiz-adv-x="430" 
d="M197 -109c-6 0 -10 4 -10 10v99h-77c-29 0 -45 16 -45 45v445c0 6 4 10 10 10h37c6 0 10 -4 10 -10v-435h186v435c0 6 4 10 10 10h37c6 0 10 -4 10 -10v-445c0 -29 -16 -45 -45 -45h-76v-99c0 -6 -4 -10 -10 -10h-37z" />
    <glyph glyph-name="uni044C" unicode="&#x44c;" horiz-adv-x="397" 
d="M110 -2c-29 0 -45 16 -45 45v447c0 6 4 10 10 10h37c6 0 10 -4 10 -10v-180h88c93 0 157 -64 157 -155c0 -92 -64 -157 -157 -157h-100zM122 52h88c62 0 100 40 100 103c0 62 -38 101 -100 101h-88v-204z" />
    <glyph glyph-name="uni044A" unicode="&#x44a;" horiz-adv-x="454" 
d="M259 310c90 0 157 -64 157 -155c0 -92 -67 -157 -157 -157h-100c-29 0 -45 16 -45 45v402h-90c-6 0 -10 4 -10 10v35c0 6 4 10 10 10h102c29 0 45 -16 45 -45v-145h88zM259 52c59 0 100 40 100 103c0 62 -41 101 -100 101h-88v-204h88z" />
    <glyph glyph-name="uni044B" unicode="&#x44b;" horiz-adv-x="539" 
d="M110 -2c-29 0 -45 16 -45 45v447c0 6 4 10 10 10h37c6 0 10 -4 10 -10v-190h88c90 0 157 -62 157 -150c0 -89 -67 -152 -157 -152h-100zM427 0c-6 0 -10 4 -10 10v480c0 6 4 10 10 10h37c6 0 10 -4 10 -10v-480c0 -6 -4 -10 -10 -10h-37zM122 53h88c59 0 100 38 100 97
c0 58 -41 95 -100 95h-88v-192z" />
    <glyph glyph-name="uni0459" unicode="&#x459;" horiz-adv-x="640" 
d="M453 300c90 0 157 -62 157 -150c0 -89 -67 -151 -157 -151h-92c-29 0 -45 16 -45 45v401h-80c-59 0 -100 -37 -100 -95v-223c0 -67 -49 -121 -112 -127c-6 0 -10 4 -10 10v35c0 6 3 10 10 11c31 5 55 34 55 71v223c0 88 67 150 157 150h92c29 0 45 -16 45 -45v-155h80z
M453 54c59 0 100 37 100 96c0 58 -41 95 -100 95h-80v-191h80z" />
    <glyph glyph-name="uni045A" unicode="&#x45a;" horiz-adv-x="627" 
d="M75 0c-6 0 -10 4 -10 10v480c0 6 4 10 10 10h37c6 0 10 -4 10 -10v-195h180v195c0 6 4 10 10 10h37c6 0 10 -4 10 -10v-195h81c90 0 157 -61 157 -147c0 -88 -67 -150 -157 -150h-93c-29 0 -45 16 -45 45v197h-180v-230c0 -6 -4 -10 -10 -10h-37zM359 53h81
c59 0 100 37 100 95c0 56 -41 92 -100 92h-81v-187z" />
    <glyph glyph-name="uni0455" unicode="&#x455;" horiz-adv-x="383" 
d="M198 -10c-96 0 -156 62 -160 157c0 6 4 10 10 10h37c6 0 10 -3 10 -10c3 -68 37 -102 103 -102c60 0 90 33 90 80c0 121 -245 83 -245 250c0 73 57 135 144 135c98 0 147 -58 151 -147c0 -6 -4 -10 -10 -10h-37c-6 0 -10 3 -10 10c-3 53 -33 92 -91 92
c-54 0 -90 -33 -90 -80c0 -116 245 -78 245 -250c0 -73 -58 -135 -147 -135z" />
    <glyph glyph-name="uni0454" unicode="&#x454;" horiz-adv-x="389" 
d="M197 -10c-91 0 -152 63 -152 157v206c0 94 61 157 152 157c86 0 147 -59 152 -147c0 -6 -4 -10 -10 -10h-37c-6 0 -10 3 -10 10c-4 58 -39 92 -95 92c-60 0 -95 -38 -95 -102v-66h180c6 0 10 -4 10 -10v-35c0 -6 -4 -10 -10 -10h-180v-85c0 -64 35 -102 95 -102
c58 0 93 38 95 102c0 7 4 10 10 10h37c6 0 10 -4 10 -10c-3 -94 -64 -157 -152 -157z" />
    <glyph glyph-name="uni044D" unicode="&#x44d;" horiz-adv-x="389" 
d="M192 -10c-88 0 -149 63 -152 157c0 6 4 10 10 10h37c6 0 10 -3 10 -10c2 -64 37 -102 95 -102c60 0 95 38 95 102v85h-180c-6 0 -10 4 -10 10v35c0 6 4 10 10 10h180v66c0 64 -35 102 -95 102c-56 0 -91 -34 -95 -92c0 -7 -4 -10 -10 -10h-37c-6 0 -10 4 -10 10
c5 88 66 147 152 147c91 0 152 -63 152 -157v-206c0 -94 -61 -157 -152 -157z" />
    <glyph glyph-name="uni0456" unicode="&#x456;" horiz-adv-x="187" 
d="M93 565c-23 0 -39 17 -39 39c0 23 16 39 39 39c22 0 39 -16 39 -39c0 -21 -17 -39 -39 -39zM75 0c-6 0 -10 4 -10 10v480c0 6 4 10 10 10h37c6 0 10 -4 10 -10v-480c0 -6 -4 -10 -10 -10h-37z" />
    <glyph glyph-name="uni0457" unicode="&#x457;" horiz-adv-x="176" 
d="M44 570c-19 0 -33 14 -33 34s14 33 33 33c20 0 35 -13 35 -33s-15 -34 -35 -34zM134 570c-20 0 -35 14 -35 34s15 33 35 33c18 0 33 -13 33 -33s-15 -34 -33 -34zM69 0c-6 0 -10 4 -10 10v480c0 6 4 10 10 10h37c6 0 10 -4 10 -10v-480c0 -6 -4 -10 -10 -10h-37z" />
    <glyph glyph-name="uni0458" unicode="&#x458;" horiz-adv-x="242" 
d="M138 565c-23 0 -39 17 -39 39c0 23 16 39 39 39c22 0 39 -16 39 -39c0 -21 -17 -39 -39 -39zM10 -205c-6 0 -10 4 -10 10v35c0 6 3 10 10 10h1c70 2 99 40 99 105v535c0 6 4 10 10 10h37c6 0 10 -4 10 -10v-535c0 -95 -53 -159 -156 -160h-1z" />
    <glyph glyph-name="uni045B" unicode="&#x45b;" horiz-adv-x="463" 
d="M114 0c-6 0 -10 4 -10 10v578h-80c-6 0 -10 4 -10 10v25c0 6 4 10 10 10h80v57c0 6 4 10 10 10h37c6 0 10 -4 10 -10v-57h143c6 0 10 -4 10 -10v-25c0 -6 -4 -10 -10 -10h-143v-125c22 28 55 47 99 47c91 0 148 -67 148 -160v-340c0 -6 -4 -10 -10 -10h-37
c-6 0 -10 4 -10 10v340c0 63 -35 105 -96 105c-56 0 -94 -42 -94 -105v-340c0 -6 -4 -10 -10 -10h-37z" />
    <glyph glyph-name="uni044E" unicode="&#x44e;" horiz-adv-x="554" 
d="M362 -10c-88 0 -147 67 -147 157v85h-93v-222c0 -6 -4 -10 -10 -10h-37c-6 0 -10 4 -10 10v480c0 6 4 10 10 10h37c6 0 10 -4 10 -10v-203h93v66c0 90 59 157 147 157s147 -67 147 -157v-206c0 -90 -59 -157 -147 -157zM362 45c56 0 90 42 90 102v206
c0 60 -34 102 -90 102s-90 -42 -90 -102v-206c0 -60 34 -102 90 -102z" />
    <glyph glyph-name="uni044F" unicode="&#x44f;" horiz-adv-x="407" 
d="M207 510c84 0 145 -60 145 -149v-351c0 -6 -4 -10 -10 -10h-37c-6 0 -10 4 -10 10v180h-103l-97 -183c-2 -5 -7 -7 -12 -7h-43c-7 0 -12 5 -8 12l104 191c-54 22 -90 74 -90 147c0 98 69 160 161 160zM295 245v116c0 59 -35 94 -88 94c-61 0 -104 -37 -104 -105
s41 -105 100 -105h92z" />
    <glyph glyph-name="uni0452" unicode="&#x452;" horiz-adv-x="464" 
d="M261 510c91 0 148 -67 148 -160v-385c0 -103 -59 -170 -147 -175c-6 0 -10 4 -10 10v35c0 6 3 10 10 10c56 5 90 47 90 120v385c0 63 -35 105 -96 105c-56 0 -94 -42 -94 -105v-340c0 -6 -4 -10 -10 -10h-37c-6 0 -10 4 -10 10v578h-80c-6 0 -10 4 -10 10v25
c0 6 4 10 10 10h80v57c0 6 4 10 10 10h37c6 0 10 -4 10 -10v-57h143c6 0 10 -4 10 -10v-25c0 -6 -4 -10 -10 -10h-143v-125c22 28 55 47 99 47z" />
    <glyph glyph-name="uni0432.loclBGR" horiz-adv-x="409" 
d="M279 378c54 -20 90 -65 90 -128v-103c0 -90 -63 -157 -157 -157s-157 67 -157 157v403c0 93 52 160 146 160c93 0 146 -67 146 -160v-53c0 -55 -27 -96 -68 -119zM112 550v-150h70c63 0 108 37 108 97v53c0 63 -22 105 -89 105c-62 0 -89 -42 -89 -105zM312 147v103
c0 58 -44 95 -107 95h-93v-198c0 -60 38 -102 100 -102c63 0 100 42 100 102z" />
    <glyph glyph-name="uni0433.loclBGR" horiz-adv-x="383" 
d="M185 -10c-88 0 -147 54 -147 135c0 172 245 134 245 250c0 50 -33 80 -90 80c-54 0 -88 -34 -91 -92c0 -7 -4 -10 -10 -10h-37c-6 0 -10 4 -10 10c4 88 64 147 151 147c86 0 144 -54 144 -135c0 -167 -245 -129 -245 -250c0 -50 33 -80 90 -80c62 0 100 38 103 102
c0 7 4 10 10 10h37c6 0 10 -4 10 -10c-4 -94 -68 -157 -160 -157z" />
    <glyph glyph-name="uni0434.loclBGR" horiz-adv-x="406" 
d="M198 510c92 0 153 -67 153 -157v-406c0 -94 -61 -157 -153 -157c-89 0 -150 63 -153 157c0 6 4 10 10 10h37c6 0 10 -3 10 -10c3 -64 39 -102 96 -102c60 0 96 38 96 102v113c-24 -30 -57 -50 -96 -50c-92 0 -153 67 -153 157v186c0 90 61 157 153 157zM198 65
c60 0 96 42 96 102v186c0 60 -36 102 -96 102s-96 -42 -96 -102v-186c0 -60 36 -102 96 -102z" />
    <glyph glyph-name="uni0436.loclBGR" horiz-adv-x="595" 
d="M551 500c7 0 12 -5 8 -12l-116 -208c64 -18 108 -72 108 -143v-127c0 -6 -4 -10 -10 -10h-37c-6 0 -10 4 -10 10v127c0 58 -41 95 -100 95h-68v-222c0 -6 -4 -10 -10 -10h-37c-6 0 -10 4 -10 10v222h-68c-59 0 -100 -37 -100 -95v-127c0 -6 -4 -10 -10 -10h-37
c-6 0 -10 4 -10 10v127c0 71 44 125 108 143l-116 208c-4 7 1 12 8 12h42c5 0 10 -2 12 -7l113 -206h58v403c0 6 4 10 10 10h37c6 0 10 -4 10 -10v-403h58l113 206c2 5 7 7 12 7h42z" />
    <glyph glyph-name="uni0437.loclBGR" horiz-adv-x="379" 
d="M251 185c54 -24 83 -76 83 -137v-75c0 -117 -59 -183 -158 -183s-153 80 -156 200c0 6 4 10 10 10h37c6 0 10 -3 10 -10c2 -91 36 -145 99 -145c66 0 101 42 101 128v75c0 64 -38 106 -108 106h-60c-6 0 -10 4 -10 10v35c0 6 4 10 10 10h54c64 0 98 42 98 100v44
c0 60 -22 102 -81 102c-63 0 -89 -37 -92 -92c0 -7 -4 -10 -10 -10h-37c-6 0 -10 4 -10 10c4 85 62 147 149 147c85 0 138 -67 138 -157v-44c0 -56 -24 -102 -67 -124z" />
    <glyph glyph-name="uni0438.loclBGR" horiz-adv-x="418" 
d="M204 -10c-89 0 -149 67 -149 157v343c0 6 4 10 10 10h37c6 0 10 -4 10 -10v-343c0 -60 35 -102 92 -102s92 42 92 102v343c0 6 4 10 10 10h37c6 0 10 -4 10 -10v-480c0 -6 -4 -10 -10 -10h-37c-6 0 -10 4 -10 10v30c-23 -30 -55 -50 -92 -50z" />
    <glyph glyph-name="uni0439.loclBGR" horiz-adv-x="418" 
d="M209 562c-63 0 -106 38 -111 97c0 6 4 10 10 10h33c6 0 10 -3 11 -10c3 -29 24 -46 57 -46s54 17 57 46c1 7 5 10 11 10h33c6 0 10 -3 10 -10c-5 -58 -47 -97 -111 -97zM204 -10c-89 0 -149 67 -149 157v343c0 6 4 10 10 10h37c6 0 10 -4 10 -10v-343
c0 -60 35 -102 92 -102s92 42 92 102v343c0 6 4 10 10 10h37c6 0 10 -4 10 -10v-480c0 -6 -4 -10 -10 -10h-37c-6 0 -10 4 -10 10v30c-23 -30 -55 -50 -92 -50z" />
    <glyph glyph-name="uni045D.loclBGR" horiz-adv-x="408" 
d="M127 672h45c5 0 9 -3 12 -7l59 -94c4 -7 1 -12 -7 -12h-33c-5 0 -10 1 -13 6l-69 95c-5 6 -2 12 6 12zM204 -10c-89 0 -149 67 -149 157v343c0 6 4 10 10 10h37c6 0 10 -4 10 -10v-343c0 -60 35 -102 92 -102s92 42 92 102v343c0 6 4 10 10 10h37c6 0 10 -4 10 -10v-480
c0 -6 -4 -10 -10 -10h-37c-6 0 -10 4 -10 10v30c-23 -30 -55 -50 -92 -50z" />
    <glyph glyph-name="uni043A.loclBGR" horiz-adv-x="400" 
d="M249 280c64 -18 108 -72 108 -143v-127c0 -6 -4 -10 -10 -10h-37c-6 0 -10 4 -10 10v127c0 58 -41 95 -100 95h-78v-222c0 -6 -4 -10 -10 -10h-37c-6 0 -10 4 -10 10v680c0 6 4 10 10 10h37c6 0 10 -4 10 -10v-403h68l112 206c3 5 7 7 12 7h42c7 0 12 -5 8 -12z" />
    <glyph glyph-name="uni043B.loclBGR" horiz-adv-x="360" 
d="M289 9l-109 441l-109 -441c-1 -6 -5 -9 -11 -9h-39c-7 0 -10 4 -8 11l120 466c4 17 16 26 34 26h26c18 0 30 -9 34 -26l120 -466c2 -7 -1 -11 -8 -11h-39c-6 0 -10 3 -11 9z" />
    <glyph glyph-name="uni043F.loclBGR" horiz-adv-x="408" 
d="M65 0c-6 0 -10 4 -10 10v343c0 90 60 157 149 157s149 -67 149 -157v-343c0 -6 -4 -10 -10 -10h-37c-6 0 -10 4 -10 10v343c0 61 -35 103 -92 103s-92 -42 -92 -103v-343c0 -6 -4 -10 -10 -10h-37z" />
    <glyph glyph-name="uni0442.loclBGR" horiz-adv-x="625" 
d="M427 510c87 0 143 -67 143 -157v-343c0 -6 -4 -10 -10 -10h-37c-6 0 -10 4 -10 10v343c0 60 -31 102 -86 102s-86 -42 -86 -102v-343c0 -6 -4 -10 -10 -10h-37c-6 0 -10 4 -10 10v343c0 60 -31 102 -86 102s-86 -42 -86 -102v-343c0 -6 -4 -10 -10 -10h-37
c-6 0 -10 4 -10 10v343c0 90 56 157 143 157c52 0 93 -31 115 -75c21 44 62 75 114 75z" />
    <glyph glyph-name="uni0443.loclBGR" horiz-adv-x="424" 
d="M349 500c6 0 10 -4 10 -10v-543c0 -94 -61 -157 -152 -157c-87 0 -148 63 -152 157c0 6 4 10 10 10h37c6 0 10 -3 10 -10c2 -64 37 -102 95 -102c60 0 95 38 95 102v114c-24 -31 -57 -51 -95 -51c-91 0 -152 67 -152 157v323c0 6 4 10 10 10h37c6 0 10 -4 10 -10v-323
c0 -60 36 -102 95 -102s95 42 95 102v323c0 6 4 10 10 10h37z" />
    <glyph glyph-name="uni0444.loclBGR" horiz-adv-x="613" 
d="M427 510c85 0 141 -67 141 -157v-206c0 -90 -56 -157 -141 -157c-38 0 -72 20 -92 51v-231c0 -6 -4 -10 -10 -10h-37c-6 0 -10 4 -10 10v231c-20 -31 -54 -51 -92 -51c-85 0 -141 67 -141 157v206c0 90 56 157 141 157c38 0 72 -20 92 -51v231c0 6 4 10 10 10h37
c6 0 10 -4 10 -10v-231c20 31 54 51 92 51zM187 45c55 0 91 42 91 102v206c0 60 -36 102 -91 102c-54 0 -85 -42 -85 -102v-206c0 -60 31 -102 85 -102zM511 147v206c0 60 -31 102 -85 102c-55 0 -91 -42 -91 -102v-206c0 -60 36 -102 91 -102c54 0 85 42 85 102z" />
    <glyph glyph-name="uni0447.loclBGR" horiz-adv-x="406" 
d="M294 0c-6 0 -10 4 -10 10v203c-24 -30 -57 -50 -95 -50c-91 0 -152 67 -152 157v170c0 6 4 10 10 10h37c6 0 10 -4 10 -10v-170c0 -60 36 -102 95 -102s95 42 95 102v170c0 6 4 10 10 10h37c6 0 10 -4 10 -10v-480c0 -6 -4 -10 -10 -10h-37z" />
    <glyph glyph-name="uni0446.loclBGR" horiz-adv-x="444" 
d="M375 -109c-6 0 -10 4 -10 10l1 103c-21 3 -48 22 -54 43c-20 -34 -57 -57 -108 -57c-88 0 -149 67 -149 157v343c0 6 4 10 10 10h37c6 0 10 -4 10 -10v-343c0 -61 36 -102 93 -102c58 0 91 43 91 102v343c0 6 4 10 10 10h37c6 0 10 -4 10 -10v-390c0 -74 68 -32 68 -89
v-110c0 -6 -4 -10 -10 -10h-36z" />
    <glyph glyph-name="uni0448.loclBGR" horiz-adv-x="631" 
d="M197 -10c-84 0 -142 67 -142 157v343c0 6 4 10 10 10h37c6 0 10 -4 10 -10v-343c0 -60 33 -102 85 -102c53 0 85 42 85 102v343c0 6 4 10 10 10h37c6 0 10 -4 10 -10v-343c0 -60 33 -102 85 -102s85 42 85 102v343c0 6 4 10 10 10h37c6 0 10 -4 10 -10v-480
c0 -6 -4 -10 -10 -10h-37c-6 0 -10 4 -10 10v27c-19 -28 -47 -47 -85 -47c-53 0 -92 27 -113 70c-21 -43 -60 -70 -114 -70z" />
    <glyph glyph-name="uni0449.loclBGR" horiz-adv-x="657" 
d="M588 -109c-6 0 -10 4 -10 10l1 103c-21 3 -48 22 -54 43c-20 -34 -54 -57 -101 -57c-54 0 -92 27 -113 70c-21 -43 -59 -70 -114 -70c-84 0 -142 67 -142 157v343c0 6 4 10 10 10h37c6 0 10 -4 10 -10v-343c0 -60 33 -102 85 -102c53 0 85 42 85 102v343c0 6 4 10 10 10
h37c6 0 10 -4 10 -10v-343c0 -60 33 -102 85 -102s85 42 85 102v343c0 6 4 10 10 10h37c6 0 10 -4 10 -10v-390c0 -74 68 -32 68 -89v-110c0 -6 -4 -10 -10 -10h-36z" />
    <glyph glyph-name="uni044C.loclBGR" horiz-adv-x="391" 
d="M208 350c92 0 153 -67 153 -157v-46c0 -90 -61 -157 -153 -157s-153 67 -153 157v343c0 6 4 10 10 10h37c6 0 10 -4 10 -10v-190c24 30 57 50 96 50zM304 147v46c0 60 -36 102 -96 102s-96 -42 -96 -102v-46c0 -60 36 -102 96 -102s96 42 96 102z" />
    <glyph glyph-name="uni044A.loclBGR" horiz-adv-x="440" 
d="M257 350c92 0 153 -67 153 -157v-46c0 -90 -61 -157 -153 -157s-153 67 -153 157v298h-85c-6 0 -10 4 -10 10v35c0 6 4 10 10 10h111c17 0 31 -14 31 -31v-169c24 30 57 50 96 50zM353 147v46c0 60 -36 102 -96 102s-96 -42 -96 -102v-46c0 -60 36 -102 96 -102
s96 42 96 102z" />
    <glyph glyph-name="uni044E.loclBGR" horiz-adv-x="554" 
d="M362 -10c-88 0 -147 67 -147 157v85h-93v-222c0 -6 -4 -10 -10 -10h-37c-6 0 -10 4 -10 10v680c0 6 4 10 10 10h37c6 0 10 -4 10 -10v-403h93v66c0 90 59 157 147 157s147 -67 147 -157v-206c0 -90 -59 -157 -147 -157zM362 45c56 0 90 42 90 102v206
c0 60 -34 102 -90 102s-90 -42 -90 -102v-206c0 -60 34 -102 90 -102z" />
    <glyph glyph-name="uni043B.ss01" horiz-adv-x="420" 
d="M222 510c93 0 143 -67 143 -157v-343c0 -6 -4 -10 -10 -10h-37c-6 0 -10 4 -10 10v343c0 60 -26 102 -86 102s-86 -42 -86 -102v-200c0 -90 -41 -148 -112 -153c-6 0 -10 4 -10 10v35c0 6 3 10 10 11c34 5 55 37 55 97v200c0 90 50 157 143 157z" />
    <glyph glyph-name="zero" unicode="0" horiz-adv-x="406" 
d="M203 -10c-86 0 -153 67 -153 155v410c0 88 67 155 153 155s153 -67 153 -155v-410c0 -88 -67 -155 -153 -155zM112 126l158 499c-16 18 -40 29 -67 29c-53 0 -93 -42 -93 -99v-410c0 -7 1 -13 2 -19zM203 46c53 0 93 42 93 99v410c0 6 0 12 -1 18l-159 -498
c17 -18 40 -29 67 -29z" />
    <glyph glyph-name="one" unicode="1" horiz-adv-x="235" 
d="M115 700c32 0 50 -18 50 -50v-640c0 -6 -4 -10 -10 -10h-40c-6 0 -10 4 -10 10v634h-80c-6 0 -10 4 -10 10v36c0 6 4 10 10 10h90z" />
    <glyph glyph-name="two" unicode="2" horiz-adv-x="376" 
d="M339 552c0 -200 -243 -282 -243 -496h234c6 0 10 -4 10 -10v-36c0 -6 -4 -10 -10 -10h-264c-19 0 -30 11 -30 30v20c0 249 244 331 244 502c0 58 -33 102 -92 102c-56 0 -91 -40 -94 -114c0 -6 -4 -10 -10 -10h-38c-6 0 -10 4 -10 10c4 100 64 170 152 170
c93 0 151 -70 151 -158z" />
    <glyph glyph-name="three" unicode="3" horiz-adv-x="384" 
d="M187 -10c-86 0 -148 63 -152 172c0 6 4 10 10 10h40c6 0 10 -4 10 -10c3 -80 39 -116 92 -116c57 0 92 42 92 110v111c0 74 -43 119 -107 119h-37c-6 0 -10 4 -10 10v10c0 7 2 13 5 19l123 219h-198c-6 0 -10 4 -10 10v37c0 6 4 10 10 10l262 -1c9 0 15 -6 15 -15v-8
c0 -7 -1 -12 -5 -19l-120 -222l-2 -4c89 -11 134 -80 134 -165v-111c0 -99 -62 -166 -152 -166z" />
    <glyph glyph-name="four" unicode="4" horiz-adv-x="397" 
d="M363 264c6 0 10 -4 10 -10v-36c0 -6 -4 -10 -10 -10h-48v-198c0 -6 -4 -10 -10 -10h-40c-6 0 -10 4 -10 10v198h-205c-19 0 -30 10 -30 28v10c0 13 1 23 5 36l140 410c2 5 7 8 12 8h41c7 0 10 -4 8 -11l-143 -425h172v236c0 6 4 10 10 10h40c6 0 10 -4 10 -10v-236h48z
" />
    <glyph glyph-name="five" unicode="5" horiz-adv-x="394" 
d="M203 470c83 0 148 -67 148 -159v-153c0 -101 -60 -168 -152 -168c-89 0 -148 63 -152 172c0 6 4 10 10 10h40c6 0 10 -4 10 -10c3 -77 35 -116 92 -116c59 0 92 42 92 112v152c0 62 -38 104 -94 104c-46 0 -79 -30 -84 -79c-1 -11 -8 -19 -21 -19h-21c-13 0 -20 7 -20 20
v337c0 19 11 30 30 30h249c6 0 10 -4 10 -10v-36c0 -6 -4 -10 -10 -10h-219v-216c23 24 54 39 92 39z" />
    <glyph glyph-name="six" unicode="6" horiz-adv-x="402" 
d="M203 -10c-85 0 -153 67 -153 156v403c0 94 64 161 153 161c86 0 149 -63 153 -160c0 -6 -4 -10 -10 -10h-40c-6 0 -10 3 -10 10c-4 66 -41 104 -93 104c-55 0 -93 -42 -93 -104v-132c24 26 56 42 98 42c80 0 148 -67 148 -156v-158c0 -89 -68 -156 -153 -156zM203 46
c52 0 93 42 93 100v154c0 62 -41 104 -93 104s-93 -42 -93 -104v-154c0 -58 41 -100 93 -100z" />
    <glyph glyph-name="seven" unicode="7" horiz-adv-x="327" 
d="M15 690c0 6 4 10 10 10h248c16 0 25 -7 25 -22c0 -14 -1 -22 -4 -33l-156 -636c-1 -6 -5 -9 -11 -9h-42c-7 0 -10 4 -8 11l156 633h-208c-6 0 -10 4 -10 10v36z" />
    <glyph glyph-name="eight" unicode="8" horiz-adv-x="410" 
d="M283 361c49 -24 80 -70 80 -136v-75c0 -93 -71 -160 -158 -160s-158 67 -158 160v75c0 66 31 112 80 136c-41 27 -68 74 -68 128v71c0 84 59 150 146 150c88 0 146 -66 146 -150v-71c0 -54 -27 -101 -68 -128zM119 560v-74c0 -55 36 -98 86 -98s86 43 86 98v74
c0 51 -33 94 -86 94s-86 -43 -86 -94zM303 150v78c0 62 -44 104 -98 104s-98 -42 -98 -104v-78c0 -60 44 -104 98 -104s98 44 98 104z" />
    <glyph glyph-name="nine" unicode="9" horiz-adv-x="403" 
d="M200 710c85 0 153 -67 153 -156v-403c0 -94 -64 -161 -153 -161c-86 0 -149 63 -153 160c0 6 4 10 10 10h40c6 0 10 -3 10 -10c4 -66 41 -104 93 -104c55 0 93 42 93 104v132c-24 -26 -56 -42 -98 -42c-80 0 -148 67 -148 156v158c0 89 68 156 153 156zM200 654
c-52 0 -93 -42 -93 -100v-154c0 -62 41 -104 93 -104s93 42 93 104v154c0 58 -41 100 -93 100z" />
    <glyph glyph-name="asterisk" unicode="*" horiz-adv-x="310" 
d="M94 498l-21 14c-5 4 -6 8 -2 14l47 65l-75 24c-6 2 -8 5 -6 12l7 24c2 7 7 9 13 7l75 -25v79c0 6 4 10 10 10h25c6 0 10 -4 10 -10v-79l76 24c6 2 10 0 12 -6l8 -23c2 -7 -1 -11 -7 -13l-76 -24l47 -65c4 -6 3 -10 -2 -14l-20 -15c-5 -4 -10 -4 -14 2l-47 65l-46 -64
c-4 -6 -9 -6 -14 -2z" />
    <glyph glyph-name="backslash" unicode="\" horiz-adv-x="319" 
d="M52 700c5 0 9 -2 11 -8l252 -680c2 -7 -1 -12 -8 -12h-40c-5 0 -9 2 -11 8l-252 680c-2 7 1 12 8 12h40z" />
    <glyph glyph-name="periodcentered" unicode="&#xb7;" horiz-adv-x="146" 
d="M58 211c-26 0 -46 21 -46 46c0 26 20 46 46 46c25 0 46 -20 46 -46c0 -25 -21 -46 -46 -46z" />
    <glyph glyph-name="bullet" unicode="&#x2022;" horiz-adv-x="176" 
d="M87 188c-34 0 -62 27 -62 62s28 64 62 64c35 0 64 -29 64 -64s-29 -62 -64 -62z" />
    <glyph glyph-name="colon" unicode=":" horiz-adv-x="146" 
d="M58 337c-26 0 -46 21 -46 46c0 26 20 46 46 46c25 0 46 -20 46 -46c0 -25 -21 -46 -46 -46zM58 -10c-26 0 -46 21 -46 46c0 26 20 46 46 46c25 0 46 -20 46 -46c0 -25 -21 -46 -46 -46z" />
    <glyph glyph-name="comma" unicode="," horiz-adv-x="102" 
d="M24 61c0 7 5 10 11 10h43c7 0 10 -5 9 -11l-28 -154c-1 -6 -5 -9 -11 -9h-24c-6 0 -9 4 -9 10z" />
    <glyph glyph-name="ellipsis" unicode="&#x2026;" horiz-adv-x="466" 
d="M73 -10c-26 0 -46 21 -46 46c0 26 20 46 46 46c25 0 46 -20 46 -46c0 -25 -21 -46 -46 -46zM233 -10c-26 0 -46 21 -46 46c0 26 20 46 46 46c25 0 46 -20 46 -46c0 -25 -21 -46 -46 -46zM393 -10c-26 0 -46 21 -46 46c0 26 20 46 46 46c25 0 46 -20 46 -46
c0 -25 -21 -46 -46 -46z" />
    <glyph glyph-name="exclam" unicode="!" horiz-adv-x="228" 
d="M94 136c-6 0 -10 4 -10 10v544c0 6 4 10 10 10h40c6 0 10 -4 10 -10v-544c0 -6 -4 -10 -10 -10h-40zM114 -10c-25 0 -44 20 -44 44c0 25 19 44 44 44c24 0 44 -19 44 -44c0 -24 -20 -44 -44 -44z" />
    <glyph glyph-name="exclamdown" unicode="&#xa1;" horiz-adv-x="218" 
d="M109 509c24 0 44 -20 44 -44c0 -25 -20 -44 -44 -44c-25 0 -44 19 -44 44c0 24 19 44 44 44zM89 363h40c6 0 10 -4 10 -10v-544c0 -6 -4 -10 -10 -10h-40c-6 0 -10 4 -10 10v544c0 6 4 10 10 10z" />
    <glyph glyph-name="numbersign" unicode="#" horiz-adv-x="543" 
d="M85 0c-7 0 -9 5 -8 11l40 178h-93c-7 0 -10 4 -8 11l7 29c1 5 5 9 11 9h94l49 213h-93c-7 0 -10 5 -9 11l7 29c1 5 5 9 11 9h95l44 191c1 5 5 9 11 9h34c7 0 9 -5 8 -11l-43 -189h128l44 191c1 5 5 9 11 9h35c7 0 9 -5 8 -11l-43 -189h94c7 0 10 -5 9 -11l-7 -29
c-1 -5 -5 -9 -11 -9h-96l-49 -213h95c7 0 10 -4 8 -11l-7 -29c-1 -5 -5 -9 -11 -9h-96l-41 -180c-1 -5 -5 -9 -11 -9h-35c-7 0 -9 5 -8 11l40 178h-128l-41 -180c-1 -5 -5 -9 -11 -9h-34zM182 238h128l49 213h-128z" />
    <glyph glyph-name="period" unicode="." horiz-adv-x="122" 
d="M61 -10c-26 0 -46 21 -46 46c0 26 20 46 46 46c25 0 46 -20 46 -46c0 -25 -21 -46 -46 -46z" />
    <glyph glyph-name="question" unicode="?" horiz-adv-x="320" 
d="M120 136c-6 0 -10 4 -10 10v61c0 166 140 184 140 334c0 69 -40 113 -95 113c-53 0 -92 -40 -95 -114c0 -6 -4 -10 -10 -10h-40c-6 0 -10 4 -10 10c4 104 68 170 155 170c90 0 155 -71 155 -169c0 -176 -140 -187 -140 -341v-54c0 -6 -4 -10 -10 -10h-40zM142 -10
c-25 0 -44 20 -44 44c0 25 19 44 44 44c24 0 44 -19 44 -44c0 -24 -20 -44 -44 -44z" />
    <glyph glyph-name="questiondown" unicode="&#xbf;" horiz-adv-x="320" 
d="M178 508c25 0 44 -20 44 -44c0 -25 -19 -44 -44 -44c-24 0 -44 19 -44 44c0 24 20 44 44 44zM200 362c6 0 10 -4 10 -10v-61c0 -166 -140 -184 -140 -334c0 -69 40 -113 95 -113c53 0 92 40 95 114c0 6 4 10 10 10h40c6 0 10 -4 10 -10c-4 -104 -68 -170 -155 -170
c-90 0 -155 71 -155 169c0 176 140 187 140 341v54c0 6 4 10 10 10h40z" />
    <glyph glyph-name="quotedbl" unicode="&#x22;" horiz-adv-x="212" 
d="M27 690c0 7 5 10 11 10h43c7 0 10 -5 9 -11l-28 -154c-1 -6 -5 -9 -11 -9h-24c-6 0 -9 4 -9 10zM127 690c0 7 5 10 11 10h43c7 0 10 -5 9 -11l-28 -154c-1 -6 -5 -9 -11 -9h-24c-6 0 -9 4 -9 10z" />
    <glyph glyph-name="quotesingle" unicode="'" horiz-adv-x="105" 
d="M26 690c0 7 5 10 11 10h43c7 0 10 -5 9 -11l-28 -154c-1 -6 -5 -9 -11 -9h-24c-6 0 -9 4 -9 10z" />
    <glyph glyph-name="semicolon" unicode=";" horiz-adv-x="132" 
d="M66 337c-26 0 -46 21 -46 46c0 26 20 46 46 46c25 0 46 -20 46 -46c0 -25 -21 -46 -46 -46zM36 61c0 7 5 10 11 10h43c7 0 10 -5 9 -11l-28 -154c-1 -6 -5 -9 -11 -9h-24c-6 0 -9 4 -9 10z" />
    <glyph glyph-name="slash" unicode="/" horiz-adv-x="319" 
d="M256 692c2 6 6 8 11 8h40c7 0 10 -5 8 -12l-252 -680c-2 -6 -6 -8 -11 -8h-40c-7 0 -10 5 -8 12z" />
    <glyph glyph-name="underscore" unicode="_" horiz-adv-x="370" 
d="M10 -19c0 6 4 10 10 10h330c6 0 10 -4 10 -10v-35c0 -6 -4 -10 -10 -10h-330c-6 0 -10 4 -10 10v35z" />
    <glyph glyph-name="braceleft" unicode="{" horiz-adv-x="268" 
d="M163 484c0 -58 -27 -103 -69 -130c42 -27 69 -72 69 -130v-184c0 -58 35 -98 80 -103c7 -1 10 -5 10 -11v-36c0 -6 -4 -10 -10 -10c-78 6 -140 71 -140 160v184c0 56 -35 86 -74 98c-6 1 -9 5 -9 11v42c0 6 3 10 9 11c39 12 74 42 74 98v176c0 89 62 154 140 160
c6 0 10 -4 10 -10v-36c0 -6 -3 -10 -10 -11c-45 -5 -80 -45 -80 -103v-176z" />
    <glyph glyph-name="braceright" unicode="}" horiz-adv-x="268" 
d="M239 386c6 -1 9 -5 9 -11v-42c0 -6 -3 -10 -9 -11c-39 -12 -74 -42 -74 -98v-184c0 -89 -62 -154 -140 -160c-6 0 -10 4 -10 10v36c0 6 3 10 10 11c45 5 80 45 80 103v184c0 58 27 103 69 130c-42 27 -69 72 -69 130v176c0 58 -35 98 -80 103c-7 1 -10 5 -10 11v36
c0 6 4 10 10 10c78 -6 140 -71 140 -160v-176c0 -56 35 -86 74 -98z" />
    <glyph glyph-name="bracketleft" unicode="[" horiz-adv-x="250" 
d="M215 774c0 -6 -4 -10 -10 -10h-80v-828h80c6 0 10 -4 10 -10v-36c0 -6 -4 -10 -10 -10h-110c-19 0 -30 11 -30 30v880c0 19 11 30 30 30h110c6 0 10 -4 10 -10v-36z" />
    <glyph glyph-name="bracketright" unicode="]" horiz-adv-x="245" 
d="M30 774v36c0 6 4 10 10 10h110c19 0 30 -11 30 -30v-880c0 -19 -11 -30 -30 -30h-110c-6 0 -10 4 -10 10v36c0 6 4 10 10 10h80v828h-80c-6 0 -10 4 -10 10z" />
    <glyph glyph-name="parenleft" unicode="(" horiz-adv-x="232" 
d="M202 -120c-81 5 -140 71 -140 163v615c0 91 59 157 140 162c6 0 10 -4 10 -10v-36c0 -6 -3 -10 -10 -11c-46 -4 -80 -44 -80 -105v-615c0 -61 34 -101 80 -106c7 -1 10 -5 10 -11v-36c0 -6 -4 -10 -10 -10z" />
    <glyph glyph-name="parenright" unicode=")" horiz-adv-x="232" 
d="M30 -120c-6 0 -10 4 -10 10v36c0 6 3 10 10 11c46 5 80 45 80 106v615c0 61 -34 101 -80 105c-7 1 -10 5 -10 11v36c0 6 4 10 10 10c81 -5 140 -71 140 -162v-615c0 -92 -59 -158 -140 -163z" />
    <glyph glyph-name="emdash" unicode="&#x2014;" horiz-adv-x="510" 
d="M20 275c0 6 4 10 10 10h450c6 0 10 -4 10 -10v-36c0 -6 -4 -10 -10 -10h-450c-6 0 -10 4 -10 10v36z" />
    <glyph glyph-name="endash" unicode="&#x2013;" horiz-adv-x="384" 
d="M27 229c-6 0 -10 4 -10 10v36c0 6 4 10 10 10h330c6 0 10 -4 10 -10v-36c0 -6 -4 -10 -10 -10h-330z" />
    <glyph glyph-name="hyphen" unicode="-" horiz-adv-x="284" 
d="M27 229c-6 0 -10 4 -10 10v36c0 6 4 10 10 10h230c6 0 10 -4 10 -10v-36c0 -6 -4 -10 -10 -10h-230z" />
    <glyph glyph-name="emdash.case" horiz-adv-x="504" 
d="M17 375c0 6 4 10 10 10h450c6 0 10 -4 10 -10v-36c0 -6 -4 -10 -10 -10h-450c-6 0 -10 4 -10 10v36z" />
    <glyph glyph-name="endash.case" horiz-adv-x="384" 
d="M27 329c-6 0 -10 4 -10 10v36c0 6 4 10 10 10h330c6 0 10 -4 10 -10v-36c0 -6 -4 -10 -10 -10h-330z" />
    <glyph glyph-name="hyphen.case" horiz-adv-x="284" 
d="M27 329c-6 0 -10 4 -10 10v36c0 6 4 10 10 10h230c6 0 10 -4 10 -10v-36c0 -6 -4 -10 -10 -10h-230z" />
    <glyph glyph-name="guillemotleft" unicode="&#xab;" horiz-adv-x="402" 
d="M158 83c-5 0 -10 1 -13 6l-109 147c-10 14 -10 28 0 42l109 147c3 5 8 6 13 6h39c8 0 11 -6 6 -12l-123 -162l123 -162c5 -6 2 -12 -6 -12h-39zM318 83c-5 0 -10 1 -13 6l-109 147c-10 14 -10 28 0 42l109 147c3 5 8 6 13 6h39c8 0 11 -6 6 -12l-123 -162l123 -162
c5 -6 2 -12 -6 -12h-39z" />
    <glyph glyph-name="guillemotright" unicode="&#xbb;" horiz-adv-x="402" 
d="M84 83h-39c-8 0 -11 6 -6 12l123 162l-123 162c-5 6 -2 12 6 12h39c5 0 10 -1 13 -6l109 -147c10 -14 10 -28 0 -42l-109 -147c-3 -5 -8 -6 -13 -6zM244 83h-39c-8 0 -11 6 -6 12l123 162l-123 162c-5 6 -2 12 6 12h39c5 0 10 -1 13 -6l109 -147c10 -14 10 -28 0 -42
l-109 -147c-3 -5 -8 -6 -13 -6z" />
    <glyph glyph-name="guilsinglleft" unicode="&#x2039;" horiz-adv-x="242" 
d="M158 83c-5 0 -10 1 -13 6l-109 147c-10 14 -10 28 0 42l109 147c3 5 8 6 13 6h39c8 0 11 -6 6 -12l-123 -162l123 -162c5 -6 2 -12 -6 -12h-39z" />
    <glyph glyph-name="guilsinglright" unicode="&#x203a;" horiz-adv-x="242" 
d="M84 83h-39c-8 0 -11 6 -6 12l123 162l-123 162c-5 6 -2 12 6 12h39c5 0 10 -1 13 -6l109 -147c10 -14 10 -28 0 -42l-109 -147c-3 -5 -8 -6 -13 -6z" />
    <glyph glyph-name="quotedblbase" unicode="&#x201e;" horiz-adv-x="110" 
d="M24 61c0 7 5 10 11 10h43c7 0 10 -5 9 -11l-28 -154c-1 -6 -5 -9 -11 -9h-24c-6 0 -9 4 -9 10z" />
    <glyph glyph-name="quotedblleft" unicode="&#x201c;" horiz-adv-x="202" 
d="M80 536c0 -7 -5 -10 -11 -10h-43c-7 0 -10 5 -9 11l28 154c1 6 5 9 11 9h24c6 0 9 -4 9 -10zM180 536c0 -7 -5 -10 -11 -10h-43c-7 0 -10 5 -9 11l28 154c1 6 5 9 11 9h24c6 0 9 -4 9 -10z" />
    <glyph glyph-name="quotedblright" unicode="&#x201d;" horiz-adv-x="210" 
d="M24 690c0 7 5 10 11 10h43c7 0 10 -5 9 -11l-28 -154c-1 -6 -5 -9 -11 -9h-24c-6 0 -9 4 -9 10zM124 690c0 7 5 10 11 10h43c7 0 10 -5 9 -11l-28 -154c-1 -6 -5 -9 -11 -9h-24c-6 0 -9 4 -9 10z" />
    <glyph glyph-name="quoteleft" unicode="&#x2018;" horiz-adv-x="102" 
d="M82 536c0 -7 -5 -10 -11 -10h-43c-7 0 -10 5 -9 11l28 154c1 6 5 9 11 9h24c6 0 9 -4 9 -10z" />
    <glyph glyph-name="quoteright" unicode="&#x2019;" horiz-adv-x="102" 
d="M22 690c0 7 5 10 11 10h43c7 0 10 -5 9 -11l-28 -154c-1 -6 -5 -9 -11 -9h-24c-6 0 -9 4 -9 10z" />
    <glyph glyph-name="quotesinglbase" unicode="&#x201a;" horiz-adv-x="110" 
d="M24 61c0 7 5 10 11 10h43c7 0 10 -5 9 -11l-28 -154c-1 -6 -5 -9 -11 -9h-24c-6 0 -9 4 -9 10z" />
    <glyph glyph-name="guillemotleft.case" horiz-adv-x="401" 
d="M158 143c-5 0 -10 1 -13 6l-109 147c-10 14 -10 28 0 42l109 147c3 5 8 6 13 6h39c8 0 11 -6 6 -12l-123 -162l123 -162c5 -6 2 -12 -6 -12h-39zM318 143c-5 0 -10 1 -13 6l-109 147c-10 14 -10 28 0 42l109 147c3 5 8 6 13 6h39c8 0 11 -6 6 -12l-123 -162l123 -162
c5 -6 2 -12 -6 -12h-39z" />
    <glyph glyph-name="guillemotright.case" horiz-adv-x="402" 
d="M84 143h-39c-8 0 -11 6 -6 12l123 162l-123 162c-5 6 -2 12 6 12h39c5 0 10 -1 13 -6l109 -147c10 -14 10 -28 0 -42l-109 -147c-3 -5 -8 -6 -13 -6zM244 143h-39c-8 0 -11 6 -6 12l123 162l-123 162c-5 6 -2 12 6 12h39c5 0 10 -1 13 -6l109 -147c10 -14 10 -28 0 -42
l-109 -147c-3 -5 -8 -6 -13 -6z" />
    <glyph glyph-name="guilsinglleft.case" horiz-adv-x="241" 
d="M158 143c-5 0 -10 1 -13 6l-109 147c-10 14 -10 28 0 42l109 147c3 5 8 6 13 6h39c8 0 11 -6 6 -12l-123 -162l123 -162c5 -6 2 -12 -6 -12h-39z" />
    <glyph glyph-name="guilsinglright.case" horiz-adv-x="242" 
d="M84 143h-39c-8 0 -11 6 -6 12l123 162l-123 162c-5 6 -2 12 6 12h39c5 0 10 -1 13 -6l109 -147c10 -14 10 -28 0 -42l-109 -147c-3 -5 -8 -6 -13 -6z" />
    <glyph glyph-name="space" unicode=" " horiz-adv-x="228" 
 />
    <glyph glyph-name="cent" unicode="&#xa2;" horiz-adv-x="384" 
d="M183 -85c-6 0 -10 4 -10 10v67c-78 10 -128 73 -128 155v206c0 82 50 145 128 155v67c0 6 4 10 10 10h25c6 0 10 -4 10 -10v-66c76 -9 126 -68 131 -146c0 -6 -4 -10 -10 -10h-37c-6 0 -10 3 -10 10c-4 55 -39 92 -95 92c-59 0 -95 -42 -95 -102v-206
c0 -60 36 -102 95 -102c56 0 91 37 95 92c0 7 4 10 10 10h37c6 0 10 -4 10 -10c-5 -78 -55 -137 -131 -146v-66c0 -6 -4 -10 -10 -10h-25z" />
    <glyph glyph-name="currency" unicode="&#xa4;" horiz-adv-x="448" 
d="M224 101c-45 0 -83 15 -110 40l-38 -45c-4 -5 -9 -6 -14 -2l-23 20c-5 4 -6 9 -2 14l46 55c-12 23 -18 50 -18 79v88c0 30 6 56 18 79l-46 55c-4 5 -3 10 2 14l23 20c5 4 10 3 14 -2l38 -45c27 25 65 40 110 40s83 -15 110 -40l38 45c4 5 9 6 14 2l23 -20
c5 -4 6 -9 2 -14l-46 -54c12 -23 18 -50 18 -80v-88c0 -30 -6 -57 -18 -80l46 -54c4 -5 3 -10 -2 -14l-23 -20c-5 -4 -10 -3 -14 2l-38 45c-27 -25 -65 -40 -110 -40zM224 155c63 0 101 42 101 107v88c0 65 -38 107 -101 107s-101 -42 -101 -107v-88c0 -65 38 -107 101 -107
z" />
    <glyph glyph-name="dollar" unicode="$" horiz-adv-x="406" 
d="M370 151c0 -91 -58 -153 -147 -160v-66c0 -6 -4 -10 -10 -10h-25c-6 0 -10 4 -10 10v67c-84 11 -138 74 -142 168c0 6 4 10 10 10h40c6 0 10 -4 10 -10c3 -72 43 -114 108 -114c67 0 106 39 106 105c0 171 -269 209 -269 404c0 85 54 144 137 154v66c0 6 4 10 10 10h25
c6 0 10 -4 10 -10v-66c80 -9 134 -68 138 -169c0 -6 -4 -10 -10 -10h-40c-6 0 -10 4 -10 10c-3 78 -39 114 -99 114c-63 0 -101 -37 -101 -99c0 -161 269 -198 269 -404z" />
    <glyph glyph-name="Euro" unicode="&#x20ac;" horiz-adv-x="475" 
d="M431 190c6 0 10 -3 10 -9c-3 -115 -70 -191 -168 -191s-163 69 -163 172v108h-66c-6 0 -10 4 -10 10v27c0 6 4 10 10 10h66v65h-66c-6 0 -10 4 -10 10v27c0 6 4 10 10 10h66v109c0 103 65 172 163 172c94 0 160 -74 163 -185c0 -6 -4 -10 -10 -10h-40c-6 0 -10 3 -10 10
c-3 83 -43 129 -103 129c-65 0 -103 -43 -103 -116v-109h179c6 0 10 -4 10 -10v-27c0 -6 -4 -10 -10 -10h-179v-65h179c6 0 10 -4 10 -10v-27c0 -6 -4 -10 -10 -10h-179v-108c0 -73 38 -116 103 -116c66 0 106 50 108 134c0 7 4 10 10 10h40z" />
    <glyph glyph-name="sterling" unicode="&#xa3;" horiz-adv-x="462" 
d="M423 60c6 0 10 -4 10 -10v-40c0 -6 -4 -10 -10 -10h-389c-6 0 -10 4 -10 10v31c0 12 7 18 19 21c34 6 49 35 49 94v170h-55c-6 0 -10 4 -10 10v36c0 6 4 10 10 10h55v156c0 97 65 172 163 172c97 0 161 -73 165 -170c0 -6 -4 -10 -10 -10h-40c-6 0 -10 3 -10 10
c-4 66 -43 114 -105 114c-63 0 -103 -50 -103 -116v-156h184c6 0 10 -4 10 -10v-36c0 -6 -4 -10 -10 -10h-184v-174c0 -42 -10 -72 -26 -92h297z" />
    <glyph glyph-name="yen" unicode="&#xa5;" horiz-adv-x="508" 
d="M449 231h-165v-63h165c6 0 10 -4 10 -10v-28c0 -6 -4 -10 -10 -10h-165v-110c0 -6 -4 -10 -10 -10h-40c-6 0 -10 4 -10 10v110h-165c-6 0 -10 4 -10 10v28c0 6 4 10 10 10h165v63h-165c-6 0 -10 4 -10 10v28c0 6 4 10 10 10h82c-31 27 -49 66 -49 106v305c0 6 4 10 10 10
h40c6 0 10 -4 10 -10v-305c0 -55 46 -99 102 -99c57 0 102 44 102 99v305c0 6 4 10 10 10h40c6 0 10 -4 10 -10v-305c0 -40 -20 -79 -50 -106h83c6 0 10 -4 10 -10v-28c0 -6 -4 -10 -10 -10z" />
    <glyph glyph-name="approxequal" unicode="&#x2248;" horiz-adv-x="460" 
d="M378 474c4 6 9 7 13 0l19 -28c3 -4 4 -9 0 -14c-27 -38 -57 -54 -92 -54c-60 0 -125 48 -172 48c-29 0 -51 -18 -64 -37c-5 -6 -10 -6 -14 0l-18 31c-3 5 -3 9 1 14c28 36 57 51 91 51c60 0 125 -48 172 -48c29 0 51 18 64 37zM378 322c4 6 9 7 13 0l19 -28
c3 -4 4 -9 0 -14c-27 -38 -57 -54 -92 -54c-60 0 -125 48 -172 48c-29 0 -51 -18 -64 -37c-5 -6 -10 -6 -14 0l-18 31c-3 5 -3 9 1 14c28 36 57 51 91 51c60 0 125 -48 172 -48c29 0 51 18 64 37z" />
    <glyph glyph-name="asciitilde" unicode="~" horiz-adv-x="425" 
d="M360 403c4 6 9 7 13 0l19 -28c3 -4 4 -9 0 -14c-27 -38 -57 -54 -92 -54c-60 0 -125 48 -172 48c-29 0 -51 -18 -64 -37c-5 -6 -10 -6 -14 0l-18 31c-3 5 -3 9 1 14c28 36 57 51 91 51c60 0 125 -48 172 -48c29 0 51 18 64 37z" />
    <glyph glyph-name="divide" unicode="&#xf7;" horiz-adv-x="460" 
d="M230 455c-26 0 -46 21 -46 46c0 26 20 46 46 46c25 0 46 -20 46 -46c0 -25 -21 -46 -46 -46zM60 332c-6 0 -10 4 -10 10v34c0 6 4 10 10 10h340c6 0 10 -4 10 -10v-34c0 -6 -4 -10 -10 -10h-340zM230 163c-26 0 -46 21 -46 46c0 26 20 46 46 46c25 0 46 -20 46 -46
c0 -25 -21 -46 -46 -46z" />
    <glyph glyph-name="emptyset" unicode="&#x2205;" horiz-adv-x="805" 
d="M749 745c7 0 14 -5 9 -11l-104 -123c62 -63 97 -153 97 -261c0 -216 -141 -359 -353 -359c-84 0 -157 23 -215 63l-77 -91c-4 -5 -8 -8 -14 -8h-36c-7 0 -14 5 -9 11l100 118c-65 63 -102 155 -102 266c0 216 141 359 353 359c87 0 162 -24 220 -67l81 95c4 5 8 8 14 8
h36zM92 350c0 -95 31 -174 86 -229l410 485c-50 37 -115 58 -190 58c-184 0 -306 -126 -306 -314zM704 350c0 92 -29 170 -81 224l-409 -484c49 -35 112 -54 184 -54c184 0 306 126 306 314z" />
    <glyph glyph-name="equal" unicode="=" horiz-adv-x="400" 
d="M30 397c-6 0 -10 4 -10 10v34c0 6 4 10 10 10h340c6 0 10 -4 10 -10v-34c0 -6 -4 -10 -10 -10h-340zM30 250c-6 0 -10 4 -10 10v34c0 6 4 10 10 10h340c6 0 10 -4 10 -10v-34c0 -6 -4 -10 -10 -10h-340z" />
    <glyph glyph-name="greater" unicode="&#x3e;" horiz-adv-x="330" 
d="M295 392c3 -1 5 -5 5 -8v-50c0 -3 -2 -7 -5 -8l-247 -135c-9 -5 -18 1 -18 11v34c0 3 2 7 5 8l210 115l-210 115c-3 1 -5 5 -5 8v34c0 10 9 16 18 11z" />
    <glyph glyph-name="greaterequal" unicode="&#x2265;" horiz-adv-x="460" 
d="M320 422c3 -1 5 -5 5 -8v-50c0 -3 -2 -7 -5 -8l-247 -125c-9 -5 -18 1 -18 11v34c0 3 2 7 5 8l211 105l-211 105c-3 1 -5 5 -5 8v34c0 10 9 16 18 11zM315 197c6 0 10 -4 10 -10v-34c0 -6 -4 -10 -10 -10h-250c-6 0 -10 4 -10 10v34c0 6 4 10 10 10h250z" />
    <glyph glyph-name="infinity" unicode="&#x221e;" horiz-adv-x="616" 
d="M433 400c75 0 138 -57 138 -149c0 -91 -63 -147 -138 -147c-67 0 -101 39 -125 85c-24 -46 -58 -85 -125 -85c-75 0 -138 56 -138 147c0 92 63 149 138 149c65 0 100 -35 125 -78c25 43 60 78 125 78zM183 158c51 0 72 46 94 98c-21 49 -44 90 -94 90
c-47 0 -80 -30 -80 -95c0 -57 33 -93 80 -93zM433 158c47 0 80 36 80 93c0 65 -33 95 -80 95c-50 0 -73 -41 -94 -90c22 -52 43 -98 94 -98z" />
    <glyph glyph-name="integral" unicode="&#x222b;" horiz-adv-x="297" 
d="M277 703c6 0 10 -4 10 -10v-35c0 -6 -3 -10 -10 -10h-1c-70 -2 -99 -40 -99 -105v-588c0 -95 -53 -159 -156 -160h-1c-6 0 -10 4 -10 10v35c0 6 3 10 10 10h1c70 2 99 40 99 105v588c0 95 53 159 156 160h1z" />
    <glyph glyph-name="less" unicode="&#x3c;" horiz-adv-x="380" 
d="M350 482c0 -3 -2 -7 -5 -8l-210 -115l210 -115c3 -1 5 -5 5 -8v-34c0 -10 -9 -16 -18 -11l-247 135c-3 1 -5 5 -5 8v50c0 3 2 7 5 8l247 135c9 5 18 -1 18 -11v-34z" />
    <glyph glyph-name="lessequal" unicode="&#x2264;" horiz-adv-x="380" 
d="M325 502c0 -3 -2 -7 -5 -8l-211 -105l211 -105c3 -1 5 -5 5 -8v-34c0 -10 -9 -16 -18 -11l-247 125c-3 1 -5 5 -5 8v50c0 3 2 7 5 8l247 125c9 5 18 -1 18 -11v-34zM315 197c6 0 10 -4 10 -10v-34c0 -6 -4 -10 -10 -10h-250c-6 0 -10 4 -10 10v34c0 6 4 10 10 10h250z
" />
    <glyph glyph-name="logicalnot" unicode="&#xac;" horiz-adv-x="460" 
d="M400 386c6 0 10 -4 10 -10v-121c0 -6 -4 -10 -10 -10h-32c-6 0 -10 4 -10 10v77h-298c-6 0 -10 4 -10 10v34c0 6 4 10 10 10h340z" />
    <glyph glyph-name="minus" unicode="&#x2212;" horiz-adv-x="460" 
d="M60 332c-6 0 -10 4 -10 10v34c0 6 4 10 10 10h340c6 0 10 -4 10 -10v-34c0 -6 -4 -10 -10 -10h-340z" />
    <glyph glyph-name="multiply" unicode="&#xd7;" horiz-adv-x="460" 
d="M79 184l-24 24c-4 5 -4 10 0 15l136 136l-136 136c-4 5 -4 10 0 15l24 24c5 4 10 4 15 0l136 -136l136 136c5 4 10 4 15 0l24 -24c4 -5 4 -10 0 -15l-136 -136l136 -136c4 -5 4 -10 0 -15l-24 -24c-5 -4 -10 -4 -15 0l-136 136l-136 -136c-5 -4 -10 -4 -15 0z" />
    <glyph glyph-name="notequal" unicode="&#x2260;" horiz-adv-x="460" 
d="M400 397h-117l-50 -93h167c6 0 10 -4 10 -10v-34c0 -6 -4 -10 -10 -10h-196l-42 -78c-2 -5 -7 -7 -12 -7h-33c-7 0 -12 5 -8 12l39 73h-88c-6 0 -10 4 -10 10v34c0 6 4 10 10 10h118l50 93h-168c-6 0 -10 4 -10 10v34c0 6 4 10 10 10h197l42 78c2 5 7 7 12 7h33
c7 0 12 -5 8 -12l-39 -73h87c6 0 10 -4 10 -10v-34c0 -6 -4 -10 -10 -10z" />
    <glyph glyph-name="partialdiff" unicode="&#x2202;" horiz-adv-x="406" 
d="M139 709c131 0 212 -94 212 -214v-345c0 -93 -60 -160 -153 -160s-153 67 -153 160v203c0 90 61 157 153 157c39 0 72 -20 96 -50v35c0 89 -59 159 -155 159h-20c-6 0 -10 4 -10 10v35c0 6 4 10 10 10h20zM294 150v203c0 60 -36 102 -96 102s-96 -42 -96 -102v-203
c0 -63 35 -105 96 -105s96 42 96 105z" />
    <glyph glyph-name="percent" unicode="%" horiz-adv-x="566" 
d="M112 393c-49 0 -87 38 -87 88v139c0 50 38 89 87 89c48 0 86 -39 86 -89v-139c0 -50 -38 -88 -86 -88zM35 -3c-7 0 -13 5 -9 11l456 687c4 5 7 8 13 8h36c7 0 13 -5 9 -11l-456 -687c-3 -5 -7 -8 -13 -8h-36zM112 440c21 0 37 17 37 41v139c0 25 -16 42 -37 42
c-22 0 -38 -17 -38 -42v-139c0 -24 16 -41 38 -41zM455 -9c-49 0 -87 38 -87 88v139c0 50 38 89 87 89c48 0 86 -39 86 -89v-139c0 -50 -38 -88 -86 -88zM455 38c21 0 37 17 37 41v139c0 25 -16 42 -37 42c-22 0 -38 -17 -38 -42v-139c0 -24 16 -41 38 -41z" />
    <glyph glyph-name="perthousand" unicode="&#x2030;" horiz-adv-x="850" 
d="M113 393c-49 0 -87 38 -87 88v139c0 50 38 89 87 89c48 0 86 -39 86 -89v-139c0 -50 -38 -88 -86 -88zM36 -3c-7 0 -14 5 -9 11l516 687c4 5 7 8 13 8h36c7 0 14 -5 9 -11l-516 -687c-4 -5 -7 -8 -13 -8h-36zM113 440c21 0 37 17 37 41v139c0 25 -16 42 -37 42
c-22 0 -38 -17 -38 -42v-139c0 -24 16 -41 38 -41zM516 -9c-49 0 -87 38 -87 88v139c0 50 38 89 87 89c48 0 86 -39 86 -89v-139c0 -50 -38 -88 -86 -88zM746 -9c-49 0 -87 38 -87 88v139c0 50 38 89 87 89c48 0 86 -39 86 -89v-139c0 -50 -38 -88 -86 -88zM516 38
c21 0 37 17 37 41v139c0 25 -16 42 -37 42c-22 0 -38 -17 -38 -42v-139c0 -24 16 -41 38 -41zM746 38c21 0 37 17 37 41v139c0 25 -16 42 -37 42c-22 0 -38 -17 -38 -42v-139c0 -24 16 -41 38 -41z" />
    <glyph glyph-name="plus" unicode="+" horiz-adv-x="460" 
d="M400 386c6 0 10 -4 10 -10v-34c0 -6 -4 -10 -10 -10h-143v-146c0 -6 -4 -10 -10 -10h-34c-6 0 -10 4 -10 10v146h-143c-6 0 -10 4 -10 10v34c0 6 4 10 10 10h143v146c0 6 4 10 10 10h34c6 0 10 -4 10 -10v-146h143z" />
    <glyph glyph-name="plusminus" unicode="&#xb1;" horiz-adv-x="460" 
d="M400 415c6 0 10 -4 10 -10v-34c0 -6 -4 -10 -10 -10h-143v-143c0 -6 -4 -10 -10 -10h-34c-6 0 -10 4 -10 10v143h-143c-6 0 -10 4 -10 10v34c0 6 4 10 10 10h143v143c0 6 4 10 10 10h34c6 0 10 -4 10 -10v-143h143zM400 168c6 0 10 -4 10 -10v-34c0 -6 -4 -10 -10 -10
h-340c-6 0 -10 4 -10 10v34c0 6 4 10 10 10h340z" />
    <glyph glyph-name="product" unicode="&#x220f;" horiz-adv-x="470" 
d="M80 -100c-6 0 -10 4 -10 10v740c0 32 18 50 50 50h230c32 0 50 -18 50 -50v-740c0 -6 -4 -10 -10 -10h-40c-6 0 -10 4 -10 10v734h-210v-734c0 -6 -4 -10 -10 -10h-40z" />
    <glyph glyph-name="radical" unicode="&#x221a;" horiz-adv-x="442" 
d="M433 800c7 0 10 -5 9 -11l-151 -765c-4 -18 -14 -27 -32 -27h-37c-18 0 -28 9 -32 27l-84 421h-81c-6 0 -10 4 -10 10v35c0 6 4 10 10 10h103c18 0 29 -9 32 -27l81 -408l141 726c1 6 5 9 11 9h40z" />
    <glyph glyph-name="summation" unicode="&#x2211;" horiz-adv-x="328" 
d="M53 -3c-16 0 -25 7 -25 22c0 14 -1 23 4 33l150 298l-150 298c-5 10 -4 19 -4 33c0 15 9 22 25 22h248c6 0 10 -4 10 -10v-36c0 -6 -4 -10 -10 -10h-209l137 -273c2 -5 3 -9 3 -13v-22c0 -4 -1 -8 -3 -13l-137 -273h209c6 0 10 -4 10 -10v-36c0 -6 -4 -10 -10 -10h-248z
" />
    <glyph glyph-name="lozenge" unicode="&#x25ca;" horiz-adv-x="446" 
d="M216 -3c-17 0 -28 8 -35 23l-132 310c-6 15 -6 25 0 40l132 310c7 15 18 23 35 23h14c17 0 28 -8 35 -23l132 -310c6 -15 6 -25 0 -40l-132 -310c-7 -15 -18 -23 -35 -23h-14zM223 52l124 298l-124 298l-124 -298z" />
    <glyph glyph-name="bar" unicode="|" horiz-adv-x="190" 
d="M65 790c0 6 4 10 10 10h40c6 0 10 -4 10 -10v-850c0 -6 -4 -10 -10 -10h-40c-6 0 -10 4 -10 10v850z" />
    <glyph glyph-name="brokenbar" unicode="&#xa6;" horiz-adv-x="170" 
d="M65 502c-6 0 -10 4 -10 10v278c0 6 4 10 10 10h40c6 0 10 -4 10 -10v-278c0 -6 -4 -10 -10 -10h-40zM65 -70c-6 0 -10 4 -10 10v278c0 6 4 10 10 10h40c6 0 10 -4 10 -10v-278c0 -6 -4 -10 -10 -10h-40z" />
    <glyph glyph-name="at" unicode="@" horiz-adv-x="615" 
d="M250 -100c-123 0 -205 82 -205 206v231c0 123 82 203 205 203h54c82 0 136 -54 136 -136v-208c0 -76 -52 -126 -131 -126c-85 0 -141 54 -141 140c1 88 55 141 136 141h82v53c0 50 -33 84 -82 84h-54c-91 0 -151 -59 -151 -151v-231c0 -93 60 -154 151 -154h115
c91 0 151 61 151 154v392c0 92 -60 153 -151 153h-175c-6 0 -10 4 -10 10v32c0 6 4 10 10 10h175c123 0 205 -82 205 -205v-392c0 -124 -82 -206 -205 -206h-115zM309 122c46 0 77 30 77 74v103h-82c-48 0 -80 -32 -82 -89c0 -54 35 -88 87 -88z" />
    <glyph glyph-name="ampersand" unicode="&#x26;" horiz-adv-x="452" 
d="M209 -3c-91 0 -160 67 -160 153v82c0 54 27 103 70 128c-43 25 -70 74 -70 128v43c0 95 50 179 160 179c112 0 164 -86 167 -185c0 -6 -4 -10 -10 -10h-40c-6 0 -10 3 -10 10c-2 68 -26 129 -107 129c-78 0 -100 -59 -100 -123v-48c0 -53 44 -95 102 -95h198
c6 0 10 -4 10 -10v-36c0 -6 -4 -10 -10 -10h-43v-305c0 -19 -11 -30 -30 -30h-127zM209 53h97v279h-95c-60 0 -102 -41 -102 -95v-87c0 -55 42 -97 100 -97z" />
    <glyph glyph-name="paragraph" unicode="&#xb6;" horiz-adv-x="465" 
d="M365 700c19 0 30 -11 30 -30v-759c0 -6 -4 -10 -10 -10h-40c-6 0 -10 4 -10 10v733h-100v-733c0 -6 -4 -10 -10 -10h-40c-6 0 -10 4 -10 10v479c-94 0 -159 59 -159 155s65 155 159 155h190z" />
    <glyph glyph-name="copyright" unicode="&#xa9;" horiz-adv-x="616" 
d="M245 -3c-114 0 -190 76 -190 190v322c0 116 76 194 190 194h127c113 0 189 -78 189 -194v-322c0 -114 -76 -190 -189 -190h-127zM245 33h127c95 0 151 57 151 154v322c0 99 -56 158 -151 158h-127c-96 0 -152 -59 -152 -158v-322c0 -97 56 -154 152 -154zM309 133
c-76 0 -127 52 -127 130v171c0 78 51 130 127 130c71 0 121 -51 125 -125c0 -4 -3 -7 -7 -7h-36c-4 0 -7 3 -7 7c-5 47 -33 75 -75 75c-49 0 -77 -30 -77 -80v-171c0 -50 28 -80 77 -80c44 0 72 29 77 77c0 4 3 7 7 7h36c4 0 7 -3 7 -7c-4 -76 -55 -127 -127 -127z" />
    <glyph glyph-name="registered" unicode="&#xae;" horiz-adv-x="438" 
d="M159 264c-60 0 -109 49 -109 109v221c0 60 49 109 109 109h120c60 0 109 -49 109 -109v-221c0 -60 -49 -109 -109 -109h-120zM159 289h120c46 0 84 38 84 84v221c0 46 -38 84 -84 84h-120c-46 0 -84 -38 -84 -84v-221c0 -46 38 -84 84 -84zM150 344c-2 0 -4 2 -4 4v212
c0 43 29 73 73 73c42 0 71 -30 71 -73v-30c0 -34 -17 -57 -42 -68l47 -113c1 -3 -1 -5 -3 -5h-24c-2 0 -4 1 -5 3l-43 109h-44v-108c0 -2 -1 -4 -4 -4h-22zM176 484h43c24 0 41 19 41 46v30c0 27 -17 46 -41 46c-26 0 -43 -19 -43 -46v-76z" />
    <glyph glyph-name="section" unicode="&#xa7;" horiz-adv-x="391" 
d="M274 234c39 -25 70 -60 70 -118c0 -68 -57 -125 -145 -125c-94 0 -150 61 -155 135c0 6 4 10 10 10h40c6 0 10 -3 10 -10c4 -47 32 -79 95 -79c57 0 85 29 85 69c0 124 -248 76 -248 255c0 44 29 83 77 103c-40 23 -69 57 -69 109c0 68 57 126 145 126
c94 0 141 -57 145 -125c0 -6 -4 -10 -10 -10h-40c-6 0 -10 3 -10 10c-4 41 -32 69 -85 69c-48 0 -86 -25 -86 -70c0 -113 252 -83 252 -231c0 -58 -29 -96 -81 -118zM95 363c0 -54 60 -87 117 -98c46 5 84 38 84 86c0 47 -64 79 -123 92c-51 -9 -78 -43 -78 -80z" />
    <glyph glyph-name="trademark" unicode="&#x2122;" horiz-adv-x="531" 
d="M418 703c53 0 84 -36 84 -98v-171c0 -4 -2 -6 -5 -6h-31c-4 0 -6 2 -6 6v171c0 39 -14 58 -42 58s-41 -22 -41 -58v-171c0 -4 -3 -6 -6 -6h-30c-3 0 -6 2 -6 6v171c0 36 -13 58 -41 58s-42 -19 -42 -58v-171c0 -4 -4 -6 -6 -6h-31c-5 0 -5 2 -5 6v171c0 62 31 98 84 98
c26 0 48 -16 62 -44c14 28 36 44 62 44zM180 700c3 0 5 -2 5 -5v-30c0 -3 -2 -5 -5 -5h-56v-227c0 -3 -2 -5 -5 -5h-32c-3 0 -5 2 -5 5v227h-54c-3 0 -5 2 -5 5v30c0 3 2 5 5 5h152z" />
    <glyph glyph-name="degree" unicode="&#xb0;" horiz-adv-x="298" 
d="M25 580c0 78 50 130 124 130s124 -52 124 -130s-50 -130 -124 -130s-124 52 -124 130zM75 580c0 -50 30 -83 74 -83s74 33 74 83s-30 83 -74 83s-74 -33 -74 -83z" />
    <glyph glyph-name="asciicircum" unicode="^" horiz-adv-x="296" 
d="M292 484c3 -7 0 -12 -7 -12h-44c-5 0 -10 2 -12 7l-76 161l-77 -161c-2 -5 -7 -7 -12 -7h-44c-7 0 -10 5 -7 12l103 209c2 5 7 7 12 7h49c5 0 10 -2 12 -7z" />
    <glyph glyph-name="dagger" unicode="&#x2020;" horiz-adv-x="342" 
d="M311 510c6 0 10 -4 10 -10v-36c0 -6 -4 -10 -10 -10h-110v-544c0 -6 -4 -10 -10 -10h-40c-6 0 -10 4 -10 10v544h-110c-6 0 -10 4 -10 10v36c0 6 4 10 10 10h110v180c0 6 4 10 10 10h40c6 0 10 -4 10 -10v-180h110z" />
    <glyph glyph-name="daggerdbl" unicode="&#x2021;" horiz-adv-x="348" 
d="M314 454h-110v-264h110c6 0 10 -4 10 -10v-36c0 -6 -4 -10 -10 -10h-110v-224c0 -6 -4 -10 -10 -10h-40c-6 0 -10 4 -10 10v224h-110c-6 0 -10 4 -10 10v36c0 6 4 10 10 10h110v264h-110c-6 0 -10 4 -10 10v36c0 6 4 10 10 10h110v180c0 6 4 10 10 10h40
c6 0 10 -4 10 -10v-180h110c6 0 10 -4 10 -10v-36c0 -6 -4 -10 -10 -10z" />
    <glyph glyph-name="uni0308" unicode="&#x308;" 
d="M-137 568c-22 0 -37 15 -37 37s15 37 37 37s37 -15 37 -37s-15 -37 -37 -37zM-37 568c-22 0 -37 15 -37 37s15 37 37 37s37 -15 37 -37s-15 -37 -37 -37z" />
    <glyph glyph-name="uni0307" unicode="&#x307;" 
d="M-43 565c-23 0 -39 17 -39 39c0 23 16 39 39 39c22 0 39 -16 39 -39c0 -21 -17 -39 -39 -39z" />
    <glyph glyph-name="gravecomb" unicode="&#x300;" 
d="M-118 672h45c5 0 9 -3 12 -7l59 -94c4 -7 1 -12 -7 -12h-33c-5 0 -10 1 -13 6l-69 95c-5 6 -2 12 6 12z" />
    <glyph glyph-name="acutecomb" unicode="&#x301;" 
d="M-8 672c8 0 11 -6 6 -12l-69 -95c-3 -5 -8 -6 -13 -6h-33c-8 0 -11 5 -7 12l59 94c3 4 7 7 12 7h45z" />
    <glyph glyph-name="uni030B" unicode="&#x30b;" 
d="M-110 672c8 0 11 -6 6 -12l-69 -95c-3 -5 -8 -6 -13 -6h-28c-8 0 -11 5 -7 12l59 94c3 4 7 7 12 7h40zM-15 672c8 0 11 -6 6 -12l-69 -95c-3 -5 -8 -6 -13 -6h-28c-8 0 -11 5 -7 12l59 94c3 4 7 7 12 7h40z" />
    <glyph glyph-name="uni0302" unicode="&#x302;" 
d="M-211 559c-8 0 -11 6 -6 12l69 95c3 5 7 6 12 6h46c5 0 9 -1 12 -6l69 -95c5 -6 2 -12 -6 -12h-32c-5 0 -10 2 -13 6l-53 65l-53 -65c-3 -4 -8 -6 -13 -6h-32z" />
    <glyph glyph-name="uni030C" unicode="&#x30c;" 
d="M-211 672h32c5 0 10 -2 13 -6l53 -65l53 65c3 4 8 6 13 6h32c8 0 11 -6 6 -12l-69 -95c-3 -5 -7 -6 -12 -6h-46c-5 0 -9 1 -12 6l-69 95c-5 6 -2 12 6 12z" />
    <glyph glyph-name="uni0306" unicode="&#x306;" 
d="M-115 562c-63 0 -106 38 -111 97c0 6 4 10 10 10h33c6 0 10 -3 11 -10c3 -29 24 -46 57 -46s54 17 57 46c1 7 5 10 11 10h33c6 0 10 -3 10 -10c-5 -58 -47 -97 -111 -97z" />
    <glyph glyph-name="uni030A" unicode="&#x30a;" 
d="M-153 616c0 39 27 65 68 65s68 -26 68 -65c0 -40 -27 -67 -68 -67s-68 27 -68 67zM-114 615c0 -18 11 -29 29 -29c17 0 29 11 29 29c0 17 -12 29 -29 29c-18 0 -29 -12 -29 -29z" />
    <glyph glyph-name="tildecomb" unicode="&#x303;" 
d="M-144 608c-11 0 -17 -7 -19 -21c-1 -7 -5 -10 -11 -10h-31c-6 0 -10 4 -10 10c4 43 30 70 66 70c39 0 57 -32 78 -32c11 0 17 7 19 21c1 7 5 10 11 10h31c6 0 10 -4 10 -10c-4 -43 -31 -70 -66 -70c-38 0 -56 32 -78 32z" />
    <glyph glyph-name="uni0304" unicode="&#x304;" 
d="M-164 634c0 6 4 10 10 10h144c6 0 10 -4 10 -10v-32c0 -6 -4 -10 -10 -10h-144c-6 0 -10 4 -10 10v32z" />
    <glyph glyph-name="uni0312" unicode="&#x312;" 
d="M-74 573l-9 154c0 6 3 10 9 10h24c6 0 10 -3 11 -9l28 -154c1 -6 -2 -11 -9 -11h-43c-6 0 -11 3 -11 10z" />
    <glyph glyph-name="uni0326" unicode="&#x326;" 
d="M-76 -69c0 7 5 10 11 10h43c7 0 10 -5 9 -11l-28 -154c-1 -6 -5 -9 -11 -9h-24c-6 0 -9 4 -9 10z" />
    <glyph glyph-name="uni0327" unicode="&#x327;" 
d="M-89 -200c-47 0 -84 26 -88 71c-1 6 3 10 9 10h28c6 0 9 -3 10 -9c4 -19 20 -29 41 -29c24 0 42 14 42 38c0 20 -17 34 -40 34c-13 0 -25 -2 -35 -5c-3 -1 -6 0 -8 2l-2 2c-2 2 -4 4 -3 8l15 78h46l-8 -44h6c42 -3 76 -33 76 -75c0 -51 -38 -81 -89 -81z" />
    <glyph glyph-name="uni0328" unicode="&#x328;" 
d="M0 -188c0 -6 -3 -10 -9 -10c-8 -1 -16 -2 -23 -2c-67 0 -92 42 -92 83c0 40 21 76 54 117h58c-34 -29 -58 -69 -58 -102c0 -31 22 -44 53 -44h7c6 0 10 -3 10 -9v-33z" />
    <glyph glyph-name="uni0335" unicode="&#x335;" 
d="M-210 372v46h200v-46h-200z" />
    <glyph glyph-name="uni0336" unicode="&#x336;" 
d="M-330 418h320v-46h-320v46z" />
    <glyph glyph-name="uni0337" unicode="&#x337;" 
d="M-232 -45c-7 0 -11 4 -9 11l159 571c1 5 5 8 11 8h39c7 0 11 -4 9 -11l-159 -571c-1 -5 -5 -8 -11 -8h-39z" />
    <glyph glyph-name="uni0338" unicode="&#x338;" 
d="M-323 -45c-7 0 -11 4 -9 11l215 771c1 5 5 8 11 8h39c7 0 11 -4 9 -11l-215 -771c-1 -5 -5 -8 -11 -8h-39z" />
    <glyph glyph-name="uni0308.case" 
d="M-137 778c-22 0 -37 15 -37 37s15 37 37 37s37 -15 37 -37s-15 -37 -37 -37zM-37 778c-22 0 -37 15 -37 37s15 37 37 37s37 -15 37 -37s-15 -37 -37 -37z" />
    <glyph glyph-name="uni0307.case" 
d="M-43 773c-23 0 -39 17 -39 39c0 23 16 39 39 39c22 0 39 -16 39 -39c0 -21 -17 -39 -39 -39z" />
    <glyph glyph-name="gravecomb.case" 
d="M-15 769h-34c-5 0 -9 2 -12 6l-81 91c-6 6 -3 12 5 12h46c5 0 10 -1 13 -6l69 -91c5 -6 2 -12 -6 -12z" />
    <glyph glyph-name="acutecomb.case" 
d="M-135 769c-8 0 -11 6 -6 12l69 91c3 5 8 6 13 6h46c8 0 11 -6 5 -12l-81 -91c-3 -4 -7 -6 -12 -6h-34z" />
    <glyph glyph-name="uni030B.case" 
d="M-230 769c-8 0 -11 6 -6 12l69 91c3 5 8 6 13 6h46c8 0 11 -6 5 -12l-81 -91c-3 -4 -7 -6 -12 -6h-34zM-130 769c-8 0 -11 6 -6 12l69 91c3 5 8 6 13 6h46c8 0 11 -6 5 -12l-81 -91c-3 -4 -7 -6 -12 -6h-34z" />
    <glyph glyph-name="uni0302.case" 
d="M-10 781c5 -7 2 -12 -6 -12h-33c-5 0 -9 1 -12 5l-62 70l-62 -70c-3 -4 -7 -5 -12 -5h-33c-8 0 -11 5 -6 12l75 91c3 4 7 6 12 6h52c5 0 9 -2 12 -6z" />
    <glyph glyph-name="uni030C.case" 
d="M-14 866l-75 -91c-3 -4 -7 -6 -12 -6h-52c-5 0 -9 2 -12 6l-75 91c-5 7 -2 12 6 12h33c5 0 9 -1 12 -5l62 -70l62 70c3 4 7 5 12 5h33c8 0 11 -5 6 -12z" />
    <glyph glyph-name="uni0306.case" 
d="M-115 768c-63 0 -106 38 -111 97c0 6 4 10 10 10h33c6 0 10 -3 11 -10c3 -29 24 -46 57 -46s54 17 57 46c1 7 5 10 11 10h33c6 0 10 -3 10 -10c-5 -58 -47 -97 -111 -97z" />
    <glyph glyph-name="uni030A.case" 
d="M-154 822c0 39 27 65 68 65s68 -26 68 -65c0 -40 -27 -67 -68 -67s-68 27 -68 67zM-115 821c0 -18 11 -29 29 -29c17 0 29 11 29 29c0 17 -12 29 -29 29c-18 0 -29 -12 -29 -29z" />
    <glyph glyph-name="tildecomb.case" 
d="M-144 808c-11 0 -17 -7 -19 -21c-1 -7 -5 -10 -11 -10h-31c-6 0 -10 4 -10 10c4 43 30 70 66 70c39 0 57 -32 78 -32c11 0 17 7 19 21c1 7 5 10 11 10h31c6 0 10 -4 10 -10c-4 -43 -31 -70 -66 -70c-38 0 -56 32 -78 32z" />
    <glyph glyph-name="uni0304.case" 
d="M-169 834c0 6 4 10 10 10h144c6 0 10 -4 10 -10v-32c0 -6 -4 -10 -10 -10h-144c-6 0 -10 4 -10 10v32z" />
    <glyph glyph-name="uni0312.case" 
d="M-114 766l-9 154c0 6 3 10 9 10h24c6 0 10 -3 11 -9l28 -154c1 -6 -2 -11 -9 -11h-43c-6 0 -11 3 -11 10z" />
    <glyph glyph-name="uni0326.case" 
d="M-76 -69c0 7 5 10 11 10h43c7 0 10 -5 9 -11l-28 -154c-1 -6 -5 -9 -11 -9h-24c-6 0 -9 4 -9 10z" />
    <glyph glyph-name="uni0327.case" 
d="M-89 -200c-47 0 -84 26 -88 71c-1 6 3 10 9 10h28c6 0 9 -3 10 -9c4 -19 20 -29 41 -29c24 0 42 14 42 38c0 20 -17 34 -40 34c-13 0 -25 -2 -35 -5c-3 -1 -6 0 -8 2l-2 2c-2 2 -4 4 -3 8l15 78h46l-8 -44h6c42 -3 76 -33 76 -75c0 -51 -38 -81 -89 -81z" />
    <glyph glyph-name="uni0328.case" 
d="M-68 -188c0 -6 -3 -10 -9 -10c-8 -1 -16 -2 -23 -2c-67 0 -92 42 -92 83c0 40 21 76 54 117h58c-34 -29 -58 -69 -58 -102c0 -31 22 -44 53 -44h7c6 0 10 -3 10 -9v-33z" />
    <glyph glyph-name="uni0337.case" 
d="M-210 -45c-7 0 -11 4 -9 11l159 571c1 5 5 8 11 8h39c7 0 11 -4 9 -11l-159 -571c-1 -5 -5 -8 -11 -8h-39z" />
    <glyph glyph-name="uni0338.case" 
d="M-372 -45c-7 0 -11 4 -9 11l215 771c1 5 5 8 11 8h39c7 0 11 -4 9 -11l-215 -771c-1 -5 -5 -8 -11 -8h-39z" />
    <glyph glyph-name="brevecombcy" 
d="M-115 562c-63 0 -106 38 -111 97c0 6 4 10 10 10h33c6 0 10 -3 11 -10c3 -29 24 -46 57 -46s54 17 57 46c1 7 5 10 11 10h33c6 0 10 -3 10 -10c-5 -58 -47 -97 -111 -97z" />
    <glyph glyph-name="brevecombcy.case" 
d="M-115 768c-63 0 -106 38 -111 97c0 6 4 10 10 10h33c6 0 10 -3 11 -10c3 -29 24 -46 57 -46s54 17 57 46c1 7 5 10 11 10h33c6 0 10 -3 10 -10c-5 -58 -47 -97 -111 -97z" />
    </font>
</defs>
</svg>
